  0
SECTION
  2
HEADER
  9
$ACADVER
  1
AC1024
  9
$ACADMAINTVER
 70
     6
  9
$DWGCODEPAGE
  3
UNDEFINED
  9
$INSBASE
 10
0.0
 20
0.0
 30
0.0
  9
$EXTMIN
 10
1.000000000000000E+20
 20
1.000000000000000E+20
 30
1.000000000000000E+20
  9
$EXTMAX
 10
-1.000000000000000E+20
 20
-1.000000000000000E+20
 30
-1.000000000000000E+20
  9
$LIMMIN
 10
0.0
 20
0.0
  9
$LIMMAX
 10
12.0
 20
9.0
  9
$ORTHOMODE
 70
     0
  9
$REGENMODE
 70
     1
  9
$FILLMODE
 70
     1
  9
$QTEXTMODE
 70
     0
  9
$MIRRTEXT
 70
     1
  9
$LTSCALE
 40
1.0
  9
$ATTMODE
 70
     1
  9
$TEXTSIZE
 40
0.2
  9
$TRACEWID
 40
0.05
  9
$TEXTSTYLE
  7
Standard
  9
$CLAYER
  8
0
  9
$CELTYPE
  6
ByLayer
  9
$CECOLOR
 62
   256
  9
$CELTSCALE
 40
1.0
  9
$DISPSILH
 70
     0
  9
$DIMSCALE
 40
1.0
  9
$DIMASZ
 40
0.18
  9
$DIMEXO
 40
0.0625
  9
$DIMDLI
 40
0.38
  9
$DIMRND
 40
0.0
  9
$DIMDLE
 40
0.0
  9
$DIMEXE
 40
0.18
  9
$DIMTP
 40
0.0
  9
$DIMTM
 40
0.0
  9
$DIMTXT
 40
0.18
  9
$DIMCEN
 40
0.09
  9
$DIMTSZ
 40
0.0
  9
$DIMTOL
 70
     0
  9
$DIMLIM
 70
     0
  9
$DIMTIH
 70
     1
  9
$DIMTOH
 70
     1
  9
$DIMSE1
 70
     0
  9
$DIMSE2
 70
     0
  9
$DIMTAD
 70
     0
  9
$DIMZIN
 70
     0
  9
$DIMBLK
  1

  9
$DIMASO
 70
     1
  9
$DIMSHO
 70
     1
  9
$DIMPOST
  1

  9
$DIMAPOST
  1

  9
$DIMALT
 70
     0
  9
$DIMALTD
 70
     2
  9
$DIMALTF
 40
25.4
  9
$DIMLFAC
 40
1.0
  9
$DIMTOFL
 70
     0
  9
$DIMTVP
 40
0.0
  9
$DIMTIX
 70
     0
  9
$DIMSOXD
 70
     0
  9
$DIMSAH
 70
     0
  9
$DIMBLK1
  1

  9
$DIMBLK2
  1

  9
$DIMSTYLE
  2
Standard
  9
$DIMCLRD
 70
     0
  9
$DIMCLRE
 70
     0
  9
$DIMCLRT
 70
     0
  9
$DIMTFAC
 40
1.0
  9
$DIMGAP
 40
0.09
  9
$DIMJUST
 70
     0
  9
$DIMSD1
 70
     0
  9
$DIMSD2
 70
     0
  9
$DIMTOLJ
 70
     1
  9
$DIMTZIN
 70
     0
  9
$DIMALTZ
 70
     0
  9
$DIMALTTZ
 70
     0
  9
$DIMUPT
 70
     0
  9
$DIMDEC
 70
     4
  9
$DIMTDEC
 70
     4
  9
$DIMALTU
 70
     2
  9
$DIMALTTD
 70
     2
  9
$DIMTXSTY
  7
Standard
  9
$DIMAUNIT
 70
     0
  9
$DIMADEC
 70
     0
  9
$DIMALTRND
 40
0.0
  9
$DIMAZIN
 70
     0
  9
$DIMDSEP
 70
    46
  9
$DIMATFIT
 70
     3
  9
$DIMFRAC
 70
     0
  9
$DIMLDRBLK
  1

  9
$DIMLUNIT
 70
     2
  9
$DIMLWD
 70
    -2
  9
$DIMLWE
 70
    -2
  9
$DIMTMOVE
 70
     0
  9
$DIMFXL
 40
1.0
  9
$DIMFXLON
 70
     0
  9
$DIMJOGANG
 40
0.7853981633974483
  9
$DIMTFILL
 70
     0
  9
$DIMTFILLCLR
 70
     0
  9
$DIMARCSYM
 70
     0
  9
$DIMLTYPE
  6

  9
$DIMLTEX1
  6

  9
$DIMLTEX2
  6

  9
$DIMTXTDIRECTION
 70
     0
  9
$LUNITS
 70
     2
  9
$LUPREC
 70
     4
  9
$SKETCHINC
 40
0.1
  9
$FILLETRAD
 40
0.5
  9
$AUNITS
 70
     0
  9
$AUPREC
 70
     0
  9
$MENU
  1
.
  9
$ELEVATION
 40
0.0
  9
$PELEVATION
 40
0.0
  9
$THICKNESS
 40
0.0
  9
$LIMCHECK
 70
     0
  9
$CHAMFERA
 40
0.5
  9
$CHAMFERB
 40
0.5
  9
$CHAMFERC
 40
1.0
  9
$CHAMFERD
 40
0.0
  9
$SKPOLY
 70
     0
  9
$TDCREATE
 40
2458419.574629618
  9
$TDUCREATE
 40
2458419.782962963
  9
$TDUPDATE
 40
2458419.574629618
  9
$TDUUPDATE
 40
2458419.782962963
  9
$TDINDWG
 40
0.0000000116
  9
$TDUSRTIMER
 40
0.0000000116
  9
$USRTIMER
 70
     1
  9
$ANGBASE
 50
0.0
  9
$ANGDIR
 70
     0
  9
$PDMODE
 70
     0
  9
$PDSIZE
 40
0.0
  9
$PLINEWID
 40
0.0
  9
$SPLFRAME
 70
     0
  9
$SPLINETYPE
 70
     6
  9
$SPLINESEGS
 70
     8
  9
$HANDSEED
  5
10B
  9
$SURFTAB1
 70
     6
  9
$SURFTAB2
 70
     6
  9
$SURFTYPE
 70
     6
  9
$SURFU
 70
     6
  9
$SURFV
 70
     6
  9
$UCSBASE
  2

  9
$UCSNAME
  2

  9
$UCSORG
 10
0.0
 20
0.0
 30
0.0
  9
$UCSXDIR
 10
1.0
 20
0.0
 30
0.0
  9
$UCSYDIR
 10
0.0
 20
1.0
 30
0.0
  9
$UCSORTHOREF
  2

  9
$UCSORTHOVIEW
 70
     0
  9
$UCSORGTOP
 10
0.0
 20
0.0
 30
0.0
  9
$UCSORGBOTTOM
 10
0.0
 20
0.0
 30
0.0
  9
$UCSORGLEFT
 10
0.0
 20
0.0
 30
0.0
  9
$UCSORGRIGHT
 10
0.0
 20
0.0
 30
0.0
  9
$UCSORGFRONT
 10
0.0
 20
0.0
 30
0.0
  9
$UCSORGBACK
 10
0.0
 20
0.0
 30
0.0
  9
$PUCSBASE
  2

  9
$PUCSNAME
  2

  9
$PUCSORG
 10
0.0
 20
0.0
 30
0.0
  9
$PUCSXDIR
 10
1.0
 20
0.0
 30
0.0
  9
$PUCSYDIR
 10
0.0
 20
1.0
 30
0.0
  9
$PUCSORTHOREF
  2

  9
$PUCSORTHOVIEW
 70
     0
  9
$PUCSORGTOP
 10
0.0
 20
0.0
 30
0.0
  9
$PUCSORGBOTTOM
 10
0.0
 20
0.0
 30
0.0
  9
$PUCSORGLEFT
 10
0.0
 20
0.0
 30
0.0
  9
$PUCSORGRIGHT
 10
0.0
 20
0.0
 30
0.0
  9
$PUCSORGFRONT
 10
0.0
 20
0.0
 30
0.0
  9
$PUCSORGBACK
 10
0.0
 20
0.0
 30
0.0
  9
$USERI1
 70
     0
  9
$USERI2
 70
     0
  9
$USERI3
 70
     0
  9
$USERI4
 70
     0
  9
$USERI5
 70
     0
  9
$USERR1
 40
0.0
  9
$USERR2
 40
0.0
  9
$USERR3
 40
0.0
  9
$USERR4
 40
0.0
  9
$USERR5
 40
0.0
  9
$WORLDVIEW
 70
     1
  9
$SHADEDGE
 70
     3
  9
$SHADEDIF
 70
    70
  9
$TILEMODE
 70
     1
  9
$MAXACTVP
 70
    64
  9
$PINSBASE
 10
0.0
 20
0.0
 30
0.0
  9
$PLIMCHECK
 70
     0
  9
$PEXTMIN
 10
1.000000000000000E+20
 20
1.000000000000000E+20
 30
1.000000000000000E+20
  9
$PEXTMAX
 10
-1.000000000000000E+20
 20
-1.000000000000000E+20
 30
-1.000000000000000E+20
  9
$PLIMMIN
 10
0.0
 20
0.0
  9
$PLIMMAX
 10
12.0
 20
9.0
  9
$UNITMODE
 70
     0
  9
$VISRETAIN
 70
     1
  9
$PLINEGEN
 70
     0
  9
$PSLTSCALE
 70
     1
  9
$TREEDEPTH
 70
  3020
  9
$CMLSTYLE
  2
Standard
  9
$CMLJUST
 70
     0
  9
$CMLSCALE
 40
1.0
  9
$PROXYGRAPHICS
 70
     1
  9
$MEASUREMENT
 70
     0
  9
$CELWEIGHT
370
    -1
  9
$ENDCAPS
280
     0
  9
$JOINSTYLE
280
     0
  9
$LWDISPLAY
290
     1
  9
$INSUNITS
 70
     1
  9
$HYPERLINKBASE
  1

  9
$STYLESHEET
  1

  9
$XEDIT
290
     1
  9
$CEPSNTYPE
380
     0
  9
$PSTYLEMODE
290
     1
  9
$FINGERPRINTGUID
  2
{A06B7DF1-8EE1-393B-767D-4518FF77DCB4}
  9
$VERSIONGUID
  2
{FAEB1C32-E019-11D5-929B-00C0DF256EC4}
  9
$EXTNAMES
290
     1
  9
$PSVPSCALE
 40
0.0
  9
$OLESTARTUP
290
     0
  9
$SORTENTS
280
   127
  9
$INDEXCTL
280
     0
  9
$HIDETEXT
280
     1
  9
$XCLIPFRAME
280
     2
  9
$HALOGAP
280
     0
  9
$OBSCOLOR
 70
   257
  9
$OBSLTYPE
280
     0
  9
$INTERSECTIONDISPLAY
280
     0
  9
$INTERSECTIONCOLOR
 70
   257
  9
$DIMASSOC
280
     2
  9
$PROJECTNAME
  1

  9
$CAMERADISPLAY
290
     0
  9
$LENSLENGTH
 40
50.0
  9
$CAMERAHEIGHT
 40
0.0
  9
$STEPSPERSEC
 40
2.0
  9
$STEPSIZE
 40
6.0
  9
$3DDWFPREC
 40
2.0
  9
$PSOLWIDTH
 40
0.25
  9
$PSOLHEIGHT
 40
4.0
  9
$LOFTANG1
 40
1.570796326794897
  9
$LOFTANG2
 40
1.570796326794897
  9
$LOFTMAG1
 40
0.0
  9
$LOFTMAG2
 40
0.0
  9
$LOFTPARAM
 70
     7
  9
$LOFTNORMALS
280
     1
  9
$LATITUDE
 40
37.795
  9
$LONGITUDE
 40
-122.394
  9
$NORTHDIRECTION
 40
0.0
  9
$TIMEZONE
 70
 -8000
  9
$LIGHTGLYPHDISPLAY
280
     1
  9
$TILEMODELIGHTSYNCH
280
     1
  9
$CMATERIAL
347
3C
  9
$SOLIDHIST
280
     1
  9
$SHOWHIST
280
     1
  9
$DWFFRAME
280
     2
  9
$DGNFRAME
280
     2
  9
$REALWORLDSCALE
290
     1
  9
$INTERFERECOLOR
 62
   256
  9
$CSHADOW
280
     0
  9
$SHADOWPLANELOCATION
 40
0.0
  0
ENDSEC
  0
SECTION
  2
CLASSES
  0
CLASS
  1
ACDBDICTIONARYWDFLT
  2
AcDbDictionaryWithDefault
  3
ObjectDBX Classes
 90
        0
 91
        4
280
     0
281
     0
  0
CLASS
  1
VISUALSTYLE
  2
AcDbVisualStyle
  3
ObjectDBX Classes
 90
     4095
 91
        4
280
     0
281
     0
  0
CLASS
  1
MATERIAL
  2
AcDbMaterial
  3
ObjectDBX Classes
 90
     1153
 91
        4
280
     0
281
     0
  0
CLASS
  1
SUN
  2
AcDbSun
  3
SCENEOE
 90
     1024
 91
        4
280
     0
281
     0
  0
ENDSEC
  0
SECTION
  2
TABLES
  0
TABLE
  2
VPORT
  5
8
330
0
100
AcDbSymbolTable
 70
     1
  0
VPORT
  5
29
330
8
100
AcDbSymbolTableRecord
100
AcDbViewportTableRecord
  2
*Active
 70
     0
 10
0.0
 20
0.0
 11
1.0
 21
1.0
 12
0.0
 22
0.0
 13
0.0
 23
0.0
 14
0.5
 24
0.5
 15
0.5
 25
0.5
 16
0.0
 26
0.0
 36
1.0
 17
5.5
 27
-8.5
 37
0.0
 40
12.0
 41
1.0
 42
50.0
 43
0.0
 44
0.0
 50
0.0
 51
0.0
 71
     0
 72
   100
 73
     1
 74
     3
 75
     0
 76
     0
 77
     0
 78
     0
281
     0
 65
     1
110
0.0
120
0.0
130
0.0
111
1.0
121
0.0
131
0.0
112
0.0
122
1.0
132
0.0
 79
     0
146
0.0
 60
     3
 61
     5
292
     1
282
     1
141
0.0
142
0.0
 63
   250
361
3F
  0
ENDTAB
  0
TABLE
  2
LTYPE
  5
5
330
0
100
AcDbSymbolTable
 70
     1
  0
LTYPE
  5
14
330
5
100
AcDbSymbolTableRecord
100
AcDbLinetypeTableRecord
  2
ByBlock
 70
     0
  3

 72
    65
 73
     0
 40
0.0
  0
LTYPE
  5
15
330
5
100
AcDbSymbolTableRecord
100
AcDbLinetypeTableRecord
  2
ByLayer
 70
     0
  3

 72
    65
 73
     0
 40
0.0
  0
LTYPE
  5
16
330
5
100
AcDbSymbolTableRecord
100
AcDbLinetypeTableRecord
  2
Continuous
 70
     0
  3
Solid line
 72
    65
 73
     0
 40
0.0
  0
ENDTAB
  0
TABLE
  2
LAYER
  5
2
330
0
100
AcDbSymbolTable
 70
     2
  0
LAYER
  5
10
330
2
100
AcDbSymbolTableRecord
100
AcDbLayerTableRecord
  2
0
 70
     0
 62
     7
  6
Continuous
370
    -3
390
F
347
3E
  0
LAYER
  5
40
330
2
100
AcDbSymbolTableRecord
100
AcDbLayerTableRecord
  2
Layer 1
 70
     0
 62
     7
  6
Continuous
370
    -3
390
F
347
3E
  0
ENDTAB
  0
TABLE
  2
STYLE
  5
3
330
0
100
AcDbSymbolTable
 70
     1
  0
STYLE
  5
11
330
3
100
AcDbSymbolTableRecord
100
AcDbTextStyleTableRecord
  2
Standard
 70
     0
 40
0.0
 41
1.0
 50
0.0
 71
     0
 42
0.2
  3
txt
  4

  0
ENDTAB
  0
TABLE
  2
VIEW
  5
6
330
0
100
AcDbSymbolTable
 70
     0
  0
ENDTAB
  0
TABLE
  2
UCS
  5
7
330
0
100
AcDbSymbolTable
 70
     0
  0
ENDTAB
  0
TABLE
  2
APPID
  5
9
330
0
100
AcDbSymbolTable
 70
     1
  0
APPID
  5
12
330
9
100
AcDbSymbolTableRecord
100
AcDbRegAppTableRecord
  2
ACAD
 70
     0
  0
ENDTAB
  0
TABLE
  2
DIMSTYLE
  5
A
330
0
100
AcDbSymbolTable
 70
     1
100
AcDbDimStyleTable
  0
DIMSTYLE
105
27
330
A
100
AcDbSymbolTableRecord
100
AcDbDimStyleTableRecord
  2
Standard
 70
     0
178
     0
340
11
  0
ENDTAB
  0
TABLE
  2
BLOCK_RECORD
  5
1
330
0
100
AcDbSymbolTable
 70
    26
  0
BLOCK_RECORD
  5
1F
330
1
100
AcDbSymbolTableRecord
100
AcDbBlockTableRecord
  2
*Model_Space
340
22
 70
     0
280
     1
281
     0
  0
BLOCK_RECORD
  5
1B
330
1
100
AcDbSymbolTableRecord
100
AcDbBlockTableRecord
  2
*Paper_Space
340
1E
 70
     0
280
     1
281
     0
  0
BLOCK_RECORD
  5
23
330
1
100
AcDbSymbolTableRecord
100
AcDbBlockTableRecord
  2
*Paper_Space0
340
26
 70
     0
280
     1
281
     0
  0
BLOCK_RECORD
  5
41
330
1
100
AcDbSymbolTableRecord
100
AcDbBlockTableRecord
  2
block 2
340
0
102
{BLKREFS
331
42
102
}
 70
     0
280
     1
281
     0
  0
BLOCK_RECORD
  5
49
330
1
100
AcDbSymbolTableRecord
100
AcDbBlockTableRecord
  2
block 3
340
0
102
{BLKREFS
331
4A
102
}
 70
     0
280
     1
281
     0
  0
BLOCK_RECORD
  5
51
330
1
100
AcDbSymbolTableRecord
100
AcDbBlockTableRecord
  2
block 4
340
0
102
{BLKREFS
331
52
102
}
 70
     0
280
     1
281
     0
  0
BLOCK_RECORD
  5
59
330
1
100
AcDbSymbolTableRecord
100
AcDbBlockTableRecord
  2
block 5
340
0
102
{BLKREFS
331
5A
102
}
 70
     0
280
     1
281
     0
  0
BLOCK_RECORD
  5
61
330
1
100
AcDbSymbolTableRecord
100
AcDbBlockTableRecord
  2
block 6
340
0
102
{BLKREFS
331
62
102
}
 70
     0
280
     1
281
     0
  0
BLOCK_RECORD
  5
69
330
1
100
AcDbSymbolTableRecord
100
AcDbBlockTableRecord
  2
block 7
340
0
102
{BLKREFS
331
6A
102
}
 70
     0
280
     1
281
     0
  0
BLOCK_RECORD
  5
71
330
1
100
AcDbSymbolTableRecord
100
AcDbBlockTableRecord
  2
block 8
340
0
102
{BLKREFS
331
72
102
}
 70
     0
280
     1
281
     0
  0
BLOCK_RECORD
  5
79
330
1
100
AcDbSymbolTableRecord
100
AcDbBlockTableRecord
  2
block 9
340
0
102
{BLKREFS
331
7A
102
}
 70
     0
280
     1
281
     0
  0
BLOCK_RECORD
  5
81
330
1
100
AcDbSymbolTableRecord
100
AcDbBlockTableRecord
  2
block 10
340
0
102
{BLKREFS
331
82
102
}
 70
     0
280
     1
281
     0
  0
BLOCK_RECORD
  5
89
330
1
100
AcDbSymbolTableRecord
100
AcDbBlockTableRecord
  2
block 11
340
0
102
{BLKREFS
331
8A
102
}
 70
     0
280
     1
281
     0
  0
BLOCK_RECORD
  5
91
330
1
100
AcDbSymbolTableRecord
100
AcDbBlockTableRecord
  2
block 12
340
0
102
{BLKREFS
331
92
102
}
 70
     0
280
     1
281
     0
  0
BLOCK_RECORD
  5
99
330
1
100
AcDbSymbolTableRecord
100
AcDbBlockTableRecord
  2
block 13
340
0
102
{BLKREFS
331
9A
102
}
 70
     0
280
     1
281
     0
  0
BLOCK_RECORD
  5
A1
330
1
100
AcDbSymbolTableRecord
100
AcDbBlockTableRecord
  2
block 14
340
0
102
{BLKREFS
331
A2
102
}
 70
     0
280
     1
281
     0
  0
BLOCK_RECORD
  5
A9
330
1
100
AcDbSymbolTableRecord
100
AcDbBlockTableRecord
  2
block 15
340
0
102
{BLKREFS
331
AA
102
}
 70
     0
280
     1
281
     0
  0
BLOCK_RECORD
  5
B1
330
1
100
AcDbSymbolTableRecord
100
AcDbBlockTableRecord
  2
block 16
340
0
102
{BLKREFS
331
B2
102
}
 70
     0
280
     1
281
     0
  0
BLOCK_RECORD
  5
B9
330
1
100
AcDbSymbolTableRecord
100
AcDbBlockTableRecord
  2
block 17
340
0
102
{BLKREFS
331
BA
102
}
 70
     0
280
     1
281
     0
  0
BLOCK_RECORD
  5
C1
330
1
100
AcDbSymbolTableRecord
100
AcDbBlockTableRecord
  2
block 18
340
0
102
{BLKREFS
331
C2
102
}
 70
     0
280
     1
281
     0
  0
BLOCK_RECORD
  5
C9
330
1
100
AcDbSymbolTableRecord
100
AcDbBlockTableRecord
  2
block 19
340
0
102
{BLKREFS
331
CA
102
}
 70
     0
280
     1
281
     0
  0
BLOCK_RECORD
  5
D1
330
1
100
AcDbSymbolTableRecord
100
AcDbBlockTableRecord
  2
block 20
340
0
102
{BLKREFS
331
D2
102
}
 70
     0
280
     1
281
     0
  0
BLOCK_RECORD
  5
D9
330
1
100
AcDbSymbolTableRecord
100
AcDbBlockTableRecord
  2
block 21
340
0
102
{BLKREFS
331
DA
102
}
 70
     0
280
     1
281
     0
  0
BLOCK_RECORD
  5
E1
330
1
100
AcDbSymbolTableRecord
100
AcDbBlockTableRecord
  2
block 22
340
0
102
{BLKREFS
331
E2
102
}
 70
     0
280
     1
281
     0
  0
BLOCK_RECORD
  5
E9
330
1
100
AcDbSymbolTableRecord
100
AcDbBlockTableRecord
  2
block 23
340
0
102
{BLKREFS
331
EA
102
}
 70
     0
280
     1
281
     0
  0
BLOCK_RECORD
  5
F1
330
1
100
AcDbSymbolTableRecord
100
AcDbBlockTableRecord
  2
block 24
340
0
102
{BLKREFS
331
F2
102
}
 70
     0
280
     1
281
     0
  0
BLOCK_RECORD
  5
F9
330
1
100
AcDbSymbolTableRecord
100
AcDbBlockTableRecord
  2
block 25
340
0
102
{BLKREFS
331
FA
102
}
 70
     0
280
     1
281
     0
  0
BLOCK_RECORD
  5
101
330
1
100
AcDbSymbolTableRecord
100
AcDbBlockTableRecord
  2
block 26
340
0
102
{BLKREFS
331
102
102
}
 70
     0
280
     1
281
     0
  0
ENDTAB
  0
ENDSEC
  0
SECTION
  2
BLOCKS
  0
BLOCK
  5
20
330
1F
100
AcDbEntity
  8
0
100
AcDbBlockBegin
  2
*Model_Space
 70
     0
 10
0.0
 20
0.0
 30
0.0
  3
*Model_Space
  1

  0
ENDBLK
  5
21
330
1F
100
AcDbEntity
  8
0
100
AcDbBlockEnd
  0
BLOCK
  5
1C
330
1B
100
AcDbEntity
 67
     1
  8
0
100
AcDbBlockBegin
  2
*Paper_Space
 70
     0
 10
0.0
 20
0.0
 30
0.0
  3
*Paper_Space
  1

  0
ENDBLK
  5
1D
330
1B
100
AcDbEntity
 67
     1
  8
0
100
AcDbBlockEnd
  0
BLOCK
  5
24
330
23
100
AcDbEntity
  8
0
100
AcDbBlockBegin
  2
*Paper_Space0
 70
     0
 10
0.0
 20
0.0
 30
0.0
  3
*Paper_Space0
  1

  0
ENDBLK
  5
25
330
23
100
AcDbEntity
  8
0
100
AcDbBlockEnd
  0
BLOCK
  5
43
330
41
100
AcDbEntity
  8
0
100
AcDbBlockBegin
  2
block 2
 70
     0
 10
0.0
 20
0.0
 30
0.0
  3
block 2
  1

  0
SPLINE
  5
45
330
41
100
AcDbEntity
  8
Layer 1
 62
   179
420
  2301728
370
     9
100
AcDbSpline
210
0.0
220
0.0
230
1.0
 70
    11
 71
     3
 72
    29
 73
    25
 74
     0
 42
0.0000000001
 43
0.0000000001
 12
1.0
 22
0.0
 32
0.0
 13
1.0
 23
0.0
 33
0.0
 40
0.0
 40
0.0
 40
0.0
 40
0.0
 40
1.0
 40
1.0
 40
1.0
 40
2.0
 40
2.0
 40
2.0
 40
3.0
 40
3.0
 40
3.0
 40
4.0
 40
4.0
 40
4.0
 40
5.0
 40
5.0
 40
5.0
 40
6.0
 40
6.0
 40
6.0
 40
7.0
 40
7.0
 40
7.0
 40
8.0
 40
8.0
 40
8.0
 40
8.0
 10
-0.0999999999999975
 20
-11.64999999999999
 30
0.0
 10
-0.0999999999999975
 20
-11.64999999999999
 30
0.0
 10
-0.1034036225697971
 20
-11.64999999999999
 30
0.0
 10
-0.1034036225697971
 20
-11.64999999999999
 30
0.0
 10
-0.2405349256077519
 20
-11.64999999999999
 30
0.0
 10
-0.3517018112848973
 20
-11.53883311432284
 30
0.0
 10
-0.3517018112848973
 20
-11.40170181128491
 30
0.0
 10
-0.3517018112848973
 20
-11.40170181128491
 30
0.0
 10
-0.3517018112848973
 20
-2.898298188715103
 30
0.0
 10
-0.3517018112848973
 20
-2.898298188715103
 30
0.0
 10
-0.3517018112848973
 20
-2.761166885677135
 30
0.0
 10
-0.2405349256077519
 20
-2.650000000000003
 30
0.0
 10
-0.1034036225697971
 20
-2.650000000000003
 30
0.0
 10
-0.1034036225697971
 20
-2.650000000000003
 30
0.0
 10
-0.0999999999999975
 20
-2.650000000000003
 30
0.0
 10
-0.0999999999999975
 20
-2.650000000000003
 30
0.0
 10
0.0371313030379573
 20
-2.650000000000003
 30
0.0
 10
0.1482981887151027
 20
-2.761166885677135
 30
0.0
 10
0.1482981887151027
 20
-2.898298188715103
 30
0.0
 10
0.1482981887151027
 20
-2.898298188715103
 30
0.0
 10
0.1482981887151027
 20
-11.40170181128491
 30
0.0
 10
0.1482981887151027
 20
-11.40170181128491
 30
0.0
 10
0.1482981887151027
 20
-11.53883311432284
 30
0.0
 10
0.0371313030379573
 20
-11.64999999999999
 30
0.0
 10
-0.0999999999999975
 20
-11.64999999999999
 30
0.0
  0
SPLINE
  5
46
330
41
100
AcDbEntity
  8
Layer 1
 62
   179
420
  2301728
370
     9
100
AcDbSpline
210
0.0
220
0.0
230
1.0
 70
    11
 71
     3
 72
    17
 73
    13
 74
     0
 42
0.0000000001
 43
0.0000000001
 12
1.0
 22
0.0
 32
0.0
 13
1.0
 23
0.0
 33
0.0
 40
0.0
 40
0.0
 40
0.0
 40
0.0
 40
1.0
 40
1.0
 40
1.0
 40
2.0
 40
2.0
 40
2.0
 40
3.0
 40
3.0
 40
3.0
 40
4.0
 40
4.0
 40
4.0
 40
4.0
 10
-0.026701811284915
 20
-2.900000000000003
 30
0.0
 10
-0.026701811284915
 20
-2.941421356235019
 30
0.0
 10
-0.0602804550499059
 20
-2.974999999999997
 30
0.0
 10
-0.1017018112848973
 20
-2.974999999999997
 30
0.0
 10
-0.143123167519914
 20
-2.974999999999997
 30
0.0
 10
-0.1767018112849049
 20
-2.941421356235019
 30
0.0
 10
-0.1767018112849049
 20
-2.900000000000003
 30
0.0
 10
-0.1767018112849049
 20
-2.858578643764986
 30
0.0
 10
-0.143123167519914
 20
-2.825000000000007
 30
0.0
 10
-0.1017018112848973
 20
-2.825000000000007
 30
0.0
 10
-0.0602804550499059
 20
-2.825000000000007
 30
0.0
 10
-0.026701811284915
 20
-2.858578643764986
 30
0.0
 10
-0.026701811284915
 20
-2.900000000000003
 30
0.0
  0
SPLINE
  5
47
330
41
100
AcDbEntity
  8
Layer 1
 62
   179
420
  2301728
370
     9
100
AcDbSpline
210
0.0
220
0.0
230
1.0
 70
    11
 71
     3
 72
    17
 73
    13
 74
     0
 42
0.0000000001
 43
0.0000000001
 12
1.0
 22
0.0
 32
0.0
 13
1.0
 23
0.0
 33
0.0
 40
0.0
 40
0.0
 40
0.0
 40
0.0
 40
1.0
 40
1.0
 40
1.0
 40
2.0
 40
2.0
 40
2.0
 40
3.0
 40
3.0
 40
3.0
 40
4.0
 40
4.0
 40
4.0
 40
4.0
 10
-0.0267018112849024
 20
-11.39999999999999
 30
0.0
 10
-0.0267018112849024
 20
-11.44142135623502
 30
0.0
 10
-0.0602804550498932
 20
-11.47500000000001
 30
0.0
 10
-0.1017018112848847
 20
-11.47500000000001
 30
0.0
 10
-0.1431231675199014
 20
-11.47500000000001
 30
0.0
 10
-0.1767018112848922
 20
-11.44142135623502
 30
0.0
 10
-0.1767018112848922
 20
-11.39999999999999
 30
0.0
 10
-0.1767018112848922
 20
-11.35857864376496
 30
0.0
 10
-0.1431231675199014
 20
-11.32500000000002
 30
0.0
 10
-0.1017018112848847
 20
-11.32500000000002
 30
0.0
 10
-0.0602804550498932
 20
-11.32500000000002
 30
0.0
 10
-0.0267018112849024
 20
-11.35857864376496
 30
0.0
 10
-0.0267018112849024
 20
-11.39999999999999
 30
0.0
  0
SPLINE
  5
48
330
41
100
AcDbEntity
  8
Layer 1
 62
   179
420
  2301728
370
     9
100
AcDbSpline
210
0.0
220
0.0
230
1.0
 70
    11
 71
     3
 72
    17
 73
    13
 74
     0
 42
0.0000000001
 43
0.0000000001
 12
1.0
 22
0.0
 32
0.0
 13
1.0
 23
0.0
 33
0.0
 40
0.0
 40
0.0
 40
0.0
 40
0.0
 40
1.0
 40
1.0
 40
1.0
 40
2.0
 40
2.0
 40
2.0
 40
3.0
 40
3.0
 40
3.0
 40
4.0
 40
4.0
 40
4.0
 40
4.0
 10
-0.026701811284915
 20
-7.150000000000002
 30
0.0
 10
-0.026701811284915
 20
-7.191421356235018
 30
0.0
 10
-0.0602804550499059
 20
-7.224999999999997
 30
0.0
 10
-0.1017018112848973
 20
-7.224999999999997
 30
0.0
 10
-0.143123167519914
 20
-7.224999999999997
 30
0.0
 10
-0.1767018112849049
 20
-7.191421356235018
 30
0.0
 10
-0.1767018112849049
 20
-7.150000000000002
 30
0.0
 10
-0.1767018112849049
 20
-7.108578643764986
 30
0.0
 10
-0.143123167519914
 20
-7.075000000000007
 30
0.0
 10
-0.1017018112848973
 20
-7.075000000000007
 30
0.0
 10
-0.0602804550499059
 20
-7.075000000000007
 30
0.0
 10
-0.026701811284915
 20
-7.108578643764986
 30
0.0
 10
-0.026701811284915
 20
-7.150000000000002
 30
0.0
  0
ENDBLK
  5
44
330
41
100
AcDbEntity
  8
0
100
AcDbBlockEnd
  0
BLOCK
  5
4B
330
49
100
AcDbEntity
  8
0
100
AcDbBlockBegin
  2
block 3
 70
     0
 10
0.0
 20
0.0
 30
0.0
  3
block 3
  1

  0
SPLINE
  5
4D
330
49
100
AcDbEntity
  8
Layer 1
 62
   179
420
  2301728
370
     9
100
AcDbSpline
210
0.0
220
0.0
230
1.0
 70
    11
 71
     3
 72
    29
 73
    25
 74
     0
 42
0.0000000001
 43
0.0000000001
 12
1.0
 22
0.0
 32
0.0
 13
1.0
 23
0.0
 33
0.0
 40
0.0
 40
0.0
 40
0.0
 40
0.0
 40
1.0
 40
1.0
 40
1.0
 40
2.0
 40
2.0
 40
2.0
 40
3.0
 40
3.0
 40
3.0
 40
4.0
 40
4.0
 40
4.0
 40
5.0
 40
5.0
 40
5.0
 40
6.0
 40
6.0
 40
6.0
 40
7.0
 40
7.0
 40
7.0
 40
8.0
 40
8.0
 40
8.0
 40
8.0
 10
2.675425452821223
 20
-11.64999999999999
 30
0.0
 10
2.675425452821223
 20
-11.64999999999999
 30
0.0
 10
2.672021830251424
 20
-11.64999999999999
 30
0.0
 10
2.672021830251424
 20
-11.64999999999999
 30
0.0
 10
2.534890527213469
 20
-11.64999999999999
 30
0.0
 10
2.423723641536324
 20
-11.53883311432284
 30
0.0
 10
2.423723641536324
 20
-11.40170181128491
 30
0.0
 10
2.423723641536324
 20
-11.40170181128491
 30
0.0
 10
2.423723641536324
 20
-2.898298188715103
 30
0.0
 10
2.423723641536324
 20
-2.898298188715103
 30
0.0
 10
2.423723641536324
 20
-2.761166885677135
 30
0.0
 10
2.534890527213469
 20
-2.650000000000003
 30
0.0
 10
2.672021830251424
 20
-2.650000000000003
 30
0.0
 10
2.672021830251424
 20
-2.650000000000003
 30
0.0
 10
2.675425452821223
 20
-2.650000000000003
 30
0.0
 10
2.675425452821223
 20
-2.650000000000003
 30
0.0
 10
2.812556755859178
 20
-2.650000000000003
 30
0.0
 10
2.923723641536324
 20
-2.761166885677135
 30
0.0
 10
2.923723641536324
 20
-2.898298188715103
 30
0.0
 10
2.923723641536324
 20
-2.898298188715103
 30
0.0
 10
2.923723641536324
 20
-11.40170181128491
 30
0.0
 10
2.923723641536324
 20
-11.40170181128491
 30
0.0
 10
2.923723641536324
 20
-11.53883311432284
 30
0.0
 10
2.812556755859178
 20
-11.64999999999999
 30
0.0
 10
2.675425452821223
 20
-11.64999999999999
 30
0.0
  0
SPLINE
  5
4E
330
49
100
AcDbEntity
  8
Layer 1
 62
   179
420
  2301728
370
     9
100
AcDbSpline
210
0.0
220
0.0
230
1.0
 70
    11
 71
     3
 72
    17
 73
    13
 74
     0
 42
0.0000000001
 43
0.0000000001
 12
1.0
 22
0.0
 32
0.0
 13
1.0
 23
0.0
 33
0.0
 40
0.0
 40
0.0
 40
0.0
 40
0.0
 40
1.0
 40
1.0
 40
1.0
 40
2.0
 40
2.0
 40
2.0
 40
3.0
 40
3.0
 40
3.0
 40
4.0
 40
4.0
 40
4.0
 40
4.0
 10
2.748723641536306
 20
-2.900000000000003
 30
0.0
 10
2.748723641536306
 20
-2.941421356235019
 30
0.0
 10
2.715144997771315
 20
-2.974999999999997
 30
0.0
 10
2.673723641536324
 20
-2.974999999999997
 30
0.0
 10
2.632302285301307
 20
-2.974999999999997
 30
0.0
 10
2.598723641536316
 20
-2.941421356235019
 30
0.0
 10
2.598723641536316
 20
-2.900000000000003
 30
0.0
 10
2.598723641536316
 20
-2.858578643764986
 30
0.0
 10
2.632302285301307
 20
-2.825000000000007
 30
0.0
 10
2.673723641536324
 20
-2.825000000000007
 30
0.0
 10
2.715144997771315
 20
-2.825000000000007
 30
0.0
 10
2.748723641536306
 20
-2.858578643764986
 30
0.0
 10
2.748723641536306
 20
-2.900000000000003
 30
0.0
  0
SPLINE
  5
4F
330
49
100
AcDbEntity
  8
Layer 1
 62
   179
420
  2301728
370
     9
100
AcDbSpline
210
0.0
220
0.0
230
1.0
 70
    11
 71
     3
 72
    17
 73
    13
 74
     0
 42
0.0000000001
 43
0.0000000001
 12
1.0
 22
0.0
 32
0.0
 13
1.0
 23
0.0
 33
0.0
 40
0.0
 40
0.0
 40
0.0
 40
0.0
 40
1.0
 40
1.0
 40
1.0
 40
2.0
 40
2.0
 40
2.0
 40
3.0
 40
3.0
 40
3.0
 40
4.0
 40
4.0
 40
4.0
 40
4.0
 10
2.748723641536319
 20
-11.39999999999999
 30
0.0
 10
2.748723641536319
 20
-11.44142135623502
 30
0.0
 10
2.715144997771328
 20
-11.47500000000001
 30
0.0
 10
2.673723641536336
 20
-11.47500000000001
 30
0.0
 10
2.63230228530132
 20
-11.47500000000001
 30
0.0
 10
2.598723641536329
 20
-11.44142135623502
 30
0.0
 10
2.598723641536329
 20
-11.39999999999999
 30
0.0
 10
2.598723641536329
 20
-11.35857864376496
 30
0.0
 10
2.63230228530132
 20
-11.32500000000002
 30
0.0
 10
2.673723641536336
 20
-11.32500000000002
 30
0.0
 10
2.715144997771328
 20
-11.32500000000002
 30
0.0
 10
2.748723641536319
 20
-11.35857864376496
 30
0.0
 10
2.748723641536319
 20
-11.39999999999999
 30
0.0
  0
SPLINE
  5
50
330
49
100
AcDbEntity
  8
Layer 1
 62
   179
420
  2301728
370
     9
100
AcDbSpline
210
0.0
220
0.0
230
1.0
 70
    11
 71
     3
 72
    17
 73
    13
 74
     0
 42
0.0000000001
 43
0.0000000001
 12
1.0
 22
0.0
 32
0.0
 13
1.0
 23
0.0
 33
0.0
 40
0.0
 40
0.0
 40
0.0
 40
0.0
 40
1.0
 40
1.0
 40
1.0
 40
2.0
 40
2.0
 40
2.0
 40
3.0
 40
3.0
 40
3.0
 40
4.0
 40
4.0
 40
4.0
 40
4.0
 10
2.748723641536306
 20
-7.150000000000002
 30
0.0
 10
2.748723641536306
 20
-7.191421356235018
 30
0.0
 10
2.715144997771315
 20
-7.224999999999997
 30
0.0
 10
2.673723641536324
 20
-7.224999999999997
 30
0.0
 10
2.632302285301307
 20
-7.224999999999997
 30
0.0
 10
2.598723641536316
 20
-7.191421356235018
 30
0.0
 10
2.598723641536316
 20
-7.150000000000002
 30
0.0
 10
2.598723641536316
 20
-7.108578643764986
 30
0.0
 10
2.632302285301307
 20
-7.075000000000007
 30
0.0
 10
2.673723641536324
 20
-7.075000000000007
 30
0.0
 10
2.715144997771315
 20
-7.075000000000007
 30
0.0
 10
2.748723641536306
 20
-7.108578643764986
 30
0.0
 10
2.748723641536306
 20
-7.150000000000002
 30
0.0
  0
ENDBLK
  5
4C
330
49
100
AcDbEntity
  8
0
100
AcDbBlockEnd
  0
BLOCK
  5
53
330
51
100
AcDbEntity
  8
0
100
AcDbBlockBegin
  2
block 4
 70
     0
 10
0.0
 20
0.0
 30
0.0
  3
block 4
  1

  0
SPLINE
  5
55
330
51
100
AcDbEntity
  8
Layer 1
 62
   179
420
  2301728
370
     9
100
AcDbSpline
210
0.0
220
0.0
230
1.0
 70
    11
 71
     3
 72
    29
 73
    25
 74
     0
 42
0.0000000001
 43
0.0000000001
 12
1.0
 22
0.0
 32
0.0
 13
1.0
 23
0.0
 33
0.0
 40
0.0
 40
0.0
 40
0.0
 40
0.0
 40
1.0
 40
1.0
 40
1.0
 40
2.0
 40
2.0
 40
2.0
 40
3.0
 40
3.0
 40
3.0
 40
4.0
 40
4.0
 40
4.0
 40
5.0
 40
5.0
 40
5.0
 40
6.0
 40
6.0
 40
6.0
 40
7.0
 40
7.0
 40
7.0
 40
8.0
 40
8.0
 40
8.0
 40
8.0
 10
2.120340362256987
 20
-11.64999999999999
 30
0.0
 10
2.120340362256987
 20
-11.64999999999999
 30
0.0
 10
2.116936739687187
 20
-11.64999999999999
 30
0.0
 10
2.116936739687187
 20
-11.64999999999999
 30
0.0
 10
1.979805436649233
 20
-11.64999999999999
 30
0.0
 10
1.868638550972087
 20
-11.53883311432284
 30
0.0
 10
1.868638550972087
 20
-11.40170181128491
 30
0.0
 10
1.868638550972087
 20
-11.40170181128491
 30
0.0
 10
1.868638550972087
 20
-2.898298188715103
 30
0.0
 10
1.868638550972087
 20
-2.898298188715103
 30
0.0
 10
1.868638550972087
 20
-2.761166885677135
 30
0.0
 10
1.979805436649233
 20
-2.650000000000003
 30
0.0
 10
2.116936739687187
 20
-2.650000000000003
 30
0.0
 10
2.116936739687187
 20
-2.650000000000003
 30
0.0
 10
2.120340362256987
 20
-2.650000000000003
 30
0.0
 10
2.120340362256987
 20
-2.650000000000003
 30
0.0
 10
2.257471665294942
 20
-2.650000000000003
 30
0.0
 10
2.368638550972087
 20
-2.761166885677135
 30
0.0
 10
2.368638550972087
 20
-2.898298188715103
 30
0.0
 10
2.368638550972087
 20
-2.898298188715103
 30
0.0
 10
2.368638550972087
 20
-11.40170181128491
 30
0.0
 10
2.368638550972087
 20
-11.40170181128491
 30
0.0
 10
2.368638550972087
 20
-11.53883311432284
 30
0.0
 10
2.257471665294942
 20
-11.64999999999999
 30
0.0
 10
2.120340362256987
 20
-11.64999999999999
 30
0.0
  0
SPLINE
  5
56
330
51
100
AcDbEntity
  8
Layer 1
 62
   179
420
  2301728
370
     9
100
AcDbSpline
210
0.0
220
0.0
230
1.0
 70
    11
 71
     3
 72
    17
 73
    13
 74
     0
 42
0.0000000001
 43
0.0000000001
 12
1.0
 22
0.0
 32
0.0
 13
1.0
 23
0.0
 33
0.0
 40
0.0
 40
0.0
 40
0.0
 40
0.0
 40
1.0
 40
1.0
 40
1.0
 40
2.0
 40
2.0
 40
2.0
 40
3.0
 40
3.0
 40
3.0
 40
4.0
 40
4.0
 40
4.0
 40
4.0
 10
2.193638550972069
 20
-2.900000000000003
 30
0.0
 10
2.193638550972069
 20
-2.941421356235019
 30
0.0
 10
2.160059907207079
 20
-2.974999999999997
 30
0.0
 10
2.118638550972087
 20
-2.974999999999997
 30
0.0
 10
2.077217194737071
 20
-2.974999999999997
 30
0.0
 10
2.04363855097208
 20
-2.941421356235019
 30
0.0
 10
2.04363855097208
 20
-2.900000000000003
 30
0.0
 10
2.04363855097208
 20
-2.858578643764986
 30
0.0
 10
2.077217194737071
 20
-2.825000000000007
 30
0.0
 10
2.118638550972087
 20
-2.825000000000007
 30
0.0
 10
2.160059907207079
 20
-2.825000000000007
 30
0.0
 10
2.193638550972069
 20
-2.858578643764986
 30
0.0
 10
2.193638550972069
 20
-2.900000000000003
 30
0.0
  0
SPLINE
  5
57
330
51
100
AcDbEntity
  8
Layer 1
 62
   179
420
  2301728
370
     9
100
AcDbSpline
210
0.0
220
0.0
230
1.0
 70
    11
 71
     3
 72
    17
 73
    13
 74
     0
 42
0.0000000001
 43
0.0000000001
 12
1.0
 22
0.0
 32
0.0
 13
1.0
 23
0.0
 33
0.0
 40
0.0
 40
0.0
 40
0.0
 40
0.0
 40
1.0
 40
1.0
 40
1.0
 40
2.0
 40
2.0
 40
2.0
 40
3.0
 40
3.0
 40
3.0
 40
4.0
 40
4.0
 40
4.0
 40
4.0
 10
2.193638550972082
 20
-11.39999999999999
 30
0.0
 10
2.193638550972082
 20
-11.44142135623502
 30
0.0
 10
2.160059907207091
 20
-11.47500000000001
 30
0.0
 10
2.1186385509721
 20
-11.47500000000001
 30
0.0
 10
2.077217194737083
 20
-11.47500000000001
 30
0.0
 10
2.043638550972092
 20
-11.44142135623502
 30
0.0
 10
2.043638550972092
 20
-11.39999999999999
 30
0.0
 10
2.043638550972092
 20
-11.35857864376496
 30
0.0
 10
2.077217194737083
 20
-11.32500000000002
 30
0.0
 10
2.1186385509721
 20
-11.32500000000002
 30
0.0
 10
2.160059907207091
 20
-11.32500000000002
 30
0.0
 10
2.193638550972082
 20
-11.35857864376496
 30
0.0
 10
2.193638550972082
 20
-11.39999999999999
 30
0.0
  0
SPLINE
  5
58
330
51
100
AcDbEntity
  8
Layer 1
 62
   179
420
  2301728
370
     9
100
AcDbSpline
210
0.0
220
0.0
230
1.0
 70
    11
 71
     3
 72
    17
 73
    13
 74
     0
 42
0.0000000001
 43
0.0000000001
 12
1.0
 22
0.0
 32
0.0
 13
1.0
 23
0.0
 33
0.0
 40
0.0
 40
0.0
 40
0.0
 40
0.0
 40
1.0
 40
1.0
 40
1.0
 40
2.0
 40
2.0
 40
2.0
 40
3.0
 40
3.0
 40
3.0
 40
4.0
 40
4.0
 40
4.0
 40
4.0
 10
2.193638550972069
 20
-7.150000000000002
 30
0.0
 10
2.193638550972069
 20
-7.191421356235018
 30
0.0
 10
2.160059907207079
 20
-7.224999999999997
 30
0.0
 10
2.118638550972087
 20
-7.224999999999997
 30
0.0
 10
2.077217194737071
 20
-7.224999999999997
 30
0.0
 10
2.04363855097208
 20
-7.191421356235018
 30
0.0
 10
2.04363855097208
 20
-7.150000000000002
 30
0.0
 10
2.04363855097208
 20
-7.108578643764986
 30
0.0
 10
2.077217194737071
 20
-7.075000000000007
 30
0.0
 10
2.118638550972087
 20
-7.075000000000007
 30
0.0
 10
2.160059907207079
 20
-7.075000000000007
 30
0.0
 10
2.193638550972069
 20
-7.108578643764986
 30
0.0
 10
2.193638550972069
 20
-7.150000000000002
 30
0.0
  0
ENDBLK
  5
54
330
51
100
AcDbEntity
  8
0
100
AcDbBlockEnd
  0
BLOCK
  5
5B
330
59
100
AcDbEntity
  8
0
100
AcDbBlockBegin
  2
block 5
 70
     0
 10
0.0
 20
0.0
 30
0.0
  3
block 5
  1

  0
SPLINE
  5
5D
330
59
100
AcDbEntity
  8
Layer 1
 62
   179
420
  2301728
370
     9
100
AcDbSpline
210
0.0
220
0.0
230
1.0
 70
    11
 71
     3
 72
    29
 73
    25
 74
     0
 42
0.0000000001
 43
0.0000000001
 12
1.0
 22
0.0
 32
0.0
 13
1.0
 23
0.0
 33
0.0
 40
0.0
 40
0.0
 40
0.0
 40
0.0
 40
1.0
 40
1.0
 40
1.0
 40
2.0
 40
2.0
 40
2.0
 40
3.0
 40
3.0
 40
3.0
 40
4.0
 40
4.0
 40
4.0
 40
5.0
 40
5.0
 40
5.0
 40
6.0
 40
6.0
 40
6.0
 40
7.0
 40
7.0
 40
7.0
 40
8.0
 40
8.0
 40
8.0
 40
8.0
 10
1.565255271692738
 20
-11.64999999999999
 30
0.0
 10
1.565255271692738
 20
-11.64999999999999
 30
0.0
 10
1.561851649122938
 20
-11.64999999999999
 30
0.0
 10
1.561851649122938
 20
-11.64999999999999
 30
0.0
 10
1.424720346084983
 20
-11.64999999999999
 30
0.0
 10
1.313553460407838
 20
-11.53883311432284
 30
0.0
 10
1.313553460407838
 20
-11.40170181128491
 30
0.0
 10
1.313553460407838
 20
-11.40170181128491
 30
0.0
 10
1.313553460407838
 20
-2.898298188715103
 30
0.0
 10
1.313553460407838
 20
-2.898298188715103
 30
0.0
 10
1.313553460407838
 20
-2.761166885677135
 30
0.0
 10
1.424720346084983
 20
-2.650000000000003
 30
0.0
 10
1.561851649122938
 20
-2.650000000000003
 30
0.0
 10
1.561851649122938
 20
-2.650000000000003
 30
0.0
 10
1.565255271692738
 20
-2.650000000000003
 30
0.0
 10
1.565255271692738
 20
-2.650000000000003
 30
0.0
 10
1.702386574730692
 20
-2.650000000000003
 30
0.0
 10
1.813553460407838
 20
-2.761166885677135
 30
0.0
 10
1.813553460407838
 20
-2.898298188715103
 30
0.0
 10
1.813553460407838
 20
-2.898298188715103
 30
0.0
 10
1.813553460407838
 20
-11.40170181128491
 30
0.0
 10
1.813553460407838
 20
-11.40170181128491
 30
0.0
 10
1.813553460407838
 20
-11.53883311432284
 30
0.0
 10
1.702386574730692
 20
-11.64999999999999
 30
0.0
 10
1.565255271692738
 20
-11.64999999999999
 30
0.0
  0
SPLINE
  5
5E
330
59
100
AcDbEntity
  8
Layer 1
 62
   179
420
  2301728
370
     9
100
AcDbSpline
210
0.0
220
0.0
230
1.0
 70
    11
 71
     3
 72
    17
 73
    13
 74
     0
 42
0.0000000001
 43
0.0000000001
 12
1.0
 22
0.0
 32
0.0
 13
1.0
 23
0.0
 33
0.0
 40
0.0
 40
0.0
 40
0.0
 40
0.0
 40
1.0
 40
1.0
 40
1.0
 40
2.0
 40
2.0
 40
2.0
 40
3.0
 40
3.0
 40
3.0
 40
4.0
 40
4.0
 40
4.0
 40
4.0
 10
1.63855346040782
 20
-2.900000000000003
 30
0.0
 10
1.63855346040782
 20
-2.941421356235019
 30
0.0
 10
1.604974816642829
 20
-2.974999999999997
 30
0.0
 10
1.563553460407838
 20
-2.974999999999997
 30
0.0
 10
1.522132104172821
 20
-2.974999999999997
 30
0.0
 10
1.48855346040783
 20
-2.941421356235019
 30
0.0
 10
1.48855346040783
 20
-2.900000000000003
 30
0.0
 10
1.48855346040783
 20
-2.858578643764986
 30
0.0
 10
1.522132104172821
 20
-2.825000000000007
 30
0.0
 10
1.563553460407838
 20
-2.825000000000007
 30
0.0
 10
1.604974816642829
 20
-2.825000000000007
 30
0.0
 10
1.63855346040782
 20
-2.858578643764986
 30
0.0
 10
1.63855346040782
 20
-2.900000000000003
 30
0.0
  0
SPLINE
  5
5F
330
59
100
AcDbEntity
  8
Layer 1
 62
   179
420
  2301728
370
     9
100
AcDbSpline
210
0.0
220
0.0
230
1.0
 70
    11
 71
     3
 72
    17
 73
    13
 74
     0
 42
0.0000000001
 43
0.0000000001
 12
1.0
 22
0.0
 32
0.0
 13
1.0
 23
0.0
 33
0.0
 40
0.0
 40
0.0
 40
0.0
 40
0.0
 40
1.0
 40
1.0
 40
1.0
 40
2.0
 40
2.0
 40
2.0
 40
3.0
 40
3.0
 40
3.0
 40
4.0
 40
4.0
 40
4.0
 40
4.0
 10
1.638553460407833
 20
-11.39999999999999
 30
0.0
 10
1.638553460407833
 20
-11.44142135623502
 30
0.0
 10
1.604974816642842
 20
-11.47500000000001
 30
0.0
 10
1.56355346040785
 20
-11.47500000000001
 30
0.0
 10
1.522132104172834
 20
-11.47500000000001
 30
0.0
 10
1.488553460407843
 20
-11.44142135623502
 30
0.0
 10
1.488553460407843
 20
-11.39999999999999
 30
0.0
 10
1.488553460407843
 20
-11.35857864376496
 30
0.0
 10
1.522132104172834
 20
-11.32500000000002
 30
0.0
 10
1.56355346040785
 20
-11.32500000000002
 30
0.0
 10
1.604974816642842
 20
-11.32500000000002
 30
0.0
 10
1.638553460407833
 20
-11.35857864376496
 30
0.0
 10
1.638553460407833
 20
-11.39999999999999
 30
0.0
  0
SPLINE
  5
60
330
59
100
AcDbEntity
  8
Layer 1
 62
   179
420
  2301728
370
     9
100
AcDbSpline
210
0.0
220
0.0
230
1.0
 70
    11
 71
     3
 72
    17
 73
    13
 74
     0
 42
0.0000000001
 43
0.0000000001
 12
1.0
 22
0.0
 32
0.0
 13
1.0
 23
0.0
 33
0.0
 40
0.0
 40
0.0
 40
0.0
 40
0.0
 40
1.0
 40
1.0
 40
1.0
 40
2.0
 40
2.0
 40
2.0
 40
3.0
 40
3.0
 40
3.0
 40
4.0
 40
4.0
 40
4.0
 40
4.0
 10
1.63855346040782
 20
-7.150000000000002
 30
0.0
 10
1.63855346040782
 20
-7.191421356235018
 30
0.0
 10
1.604974816642829
 20
-7.224999999999997
 30
0.0
 10
1.563553460407838
 20
-7.224999999999997
 30
0.0
 10
1.522132104172821
 20
-7.224999999999997
 30
0.0
 10
1.48855346040783
 20
-7.191421356235018
 30
0.0
 10
1.48855346040783
 20
-7.150000000000002
 30
0.0
 10
1.48855346040783
 20
-7.108578643764986
 30
0.0
 10
1.522132104172821
 20
-7.075000000000007
 30
0.0
 10
1.563553460407838
 20
-7.075000000000007
 30
0.0
 10
1.604974816642829
 20
-7.075000000000007
 30
0.0
 10
1.63855346040782
 20
-7.108578643764986
 30
0.0
 10
1.63855346040782
 20
-7.150000000000002
 30
0.0
  0
ENDBLK
  5
5C
330
59
100
AcDbEntity
  8
0
100
AcDbBlockEnd
  0
BLOCK
  5
63
330
61
100
AcDbEntity
  8
0
100
AcDbBlockBegin
  2
block 6
 70
     0
 10
0.0
 20
0.0
 30
0.0
  3
block 6
  1

  0
SPLINE
  5
65
330
61
100
AcDbEntity
  8
Layer 1
 62
   179
420
  2301728
370
     9
100
AcDbSpline
210
0.0
220
0.0
230
1.0
 70
    11
 71
     3
 72
    29
 73
    25
 74
     0
 42
0.0000000001
 43
0.0000000001
 12
1.0
 22
0.0
 32
0.0
 13
1.0
 23
0.0
 33
0.0
 40
0.0
 40
0.0
 40
0.0
 40
0.0
 40
1.0
 40
1.0
 40
1.0
 40
2.0
 40
2.0
 40
2.0
 40
3.0
 40
3.0
 40
3.0
 40
4.0
 40
4.0
 40
4.0
 40
5.0
 40
5.0
 40
5.0
 40
6.0
 40
6.0
 40
6.0
 40
7.0
 40
7.0
 40
7.0
 40
8.0
 40
8.0
 40
8.0
 40
8.0
 10
1.010170181128488
 20
-11.64999999999999
 30
0.0
 10
1.010170181128488
 20
-11.64999999999999
 30
0.0
 10
1.006766558558689
 20
-11.64999999999999
 30
0.0
 10
1.006766558558689
 20
-11.64999999999999
 30
0.0
 10
0.8696352555207341
 20
-11.64999999999999
 30
0.0
 10
0.7584683698435886
 20
-11.53883311432284
 30
0.0
 10
0.7584683698435886
 20
-11.40170181128491
 30
0.0
 10
0.7584683698435886
 20
-11.40170181128491
 30
0.0
 10
0.7584683698435886
 20
-2.898298188715103
 30
0.0
 10
0.7584683698435886
 20
-2.898298188715103
 30
0.0
 10
0.7584683698435886
 20
-2.761166885677135
 30
0.0
 10
0.8696352555207341
 20
-2.650000000000003
 30
0.0
 10
1.006766558558689
 20
-2.650000000000003
 30
0.0
 10
1.006766558558689
 20
-2.650000000000003
 30
0.0
 10
1.010170181128488
 20
-2.650000000000003
 30
0.0
 10
1.010170181128488
 20
-2.650000000000003
 30
0.0
 10
1.147301484166443
 20
-2.650000000000003
 30
0.0
 10
1.258468369843589
 20
-2.761166885677135
 30
0.0
 10
1.258468369843589
 20
-2.898298188715103
 30
0.0
 10
1.258468369843589
 20
-2.898298188715103
 30
0.0
 10
1.258468369843589
 20
-11.40170181128491
 30
0.0
 10
1.258468369843589
 20
-11.40170181128491
 30
0.0
 10
1.258468369843589
 20
-11.53883311432284
 30
0.0
 10
1.147301484166443
 20
-11.64999999999999
 30
0.0
 10
1.010170181128488
 20
-11.64999999999999
 30
0.0
  0
SPLINE
  5
66
330
61
100
AcDbEntity
  8
Layer 1
 62
   179
420
  2301728
370
     9
100
AcDbSpline
210
0.0
220
0.0
230
1.0
 70
    11
 71
     3
 72
    17
 73
    13
 74
     0
 42
0.0000000001
 43
0.0000000001
 12
1.0
 22
0.0
 32
0.0
 13
1.0
 23
0.0
 33
0.0
 40
0.0
 40
0.0
 40
0.0
 40
0.0
 40
1.0
 40
1.0
 40
1.0
 40
2.0
 40
2.0
 40
2.0
 40
3.0
 40
3.0
 40
3.0
 40
4.0
 40
4.0
 40
4.0
 40
4.0
 10
1.083468369843571
 20
-2.900000000000003
 30
0.0
 10
1.083468369843571
 20
-2.941421356235019
 30
0.0
 10
1.04988972607858
 20
-2.974999999999997
 30
0.0
 10
1.008468369843589
 20
-2.974999999999997
 30
0.0
 10
0.9670470136085719
 20
-2.974999999999997
 30
0.0
 10
0.9334683698435811
 20
-2.941421356235019
 30
0.0
 10
0.9334683698435811
 20
-2.900000000000003
 30
0.0
 10
0.9334683698435811
 20
-2.858578643764986
 30
0.0
 10
0.9670470136085719
 20
-2.825000000000007
 30
0.0
 10
1.008468369843589
 20
-2.825000000000007
 30
0.0
 10
1.04988972607858
 20
-2.825000000000007
 30
0.0
 10
1.083468369843571
 20
-2.858578643764986
 30
0.0
 10
1.083468369843571
 20
-2.900000000000003
 30
0.0
  0
SPLINE
  5
67
330
61
100
AcDbEntity
  8
Layer 1
 62
   179
420
  2301728
370
     9
100
AcDbSpline
210
0.0
220
0.0
230
1.0
 70
    11
 71
     3
 72
    17
 73
    13
 74
     0
 42
0.0000000001
 43
0.0000000001
 12
1.0
 22
0.0
 32
0.0
 13
1.0
 23
0.0
 33
0.0
 40
0.0
 40
0.0
 40
0.0
 40
0.0
 40
1.0
 40
1.0
 40
1.0
 40
2.0
 40
2.0
 40
2.0
 40
3.0
 40
3.0
 40
3.0
 40
4.0
 40
4.0
 40
4.0
 40
4.0
 10
1.083468369843584
 20
-11.39999999999999
 30
0.0
 10
1.083468369843584
 20
-11.44142135623502
 30
0.0
 10
1.049889726078593
 20
-11.47500000000001
 30
0.0
 10
1.008468369843601
 20
-11.47500000000001
 30
0.0
 10
0.9670470136085845
 20
-11.47500000000001
 30
0.0
 10
0.9334683698435936
 20
-11.44142135623502
 30
0.0
 10
0.9334683698435936
 20
-11.39999999999999
 30
0.0
 10
0.9334683698435936
 20
-11.35857864376496
 30
0.0
 10
0.9670470136085845
 20
-11.32500000000002
 30
0.0
 10
1.008468369843601
 20
-11.32500000000002
 30
0.0
 10
1.049889726078593
 20
-11.32500000000002
 30
0.0
 10
1.083468369843584
 20
-11.35857864376496
 30
0.0
 10
1.083468369843584
 20
-11.39999999999999
 30
0.0
  0
SPLINE
  5
68
330
61
100
AcDbEntity
  8
Layer 1
 62
   179
420
  2301728
370
     9
100
AcDbSpline
210
0.0
220
0.0
230
1.0
 70
    11
 71
     3
 72
    17
 73
    13
 74
     0
 42
0.0000000001
 43
0.0000000001
 12
1.0
 22
0.0
 32
0.0
 13
1.0
 23
0.0
 33
0.0
 40
0.0
 40
0.0
 40
0.0
 40
0.0
 40
1.0
 40
1.0
 40
1.0
 40
2.0
 40
2.0
 40
2.0
 40
3.0
 40
3.0
 40
3.0
 40
4.0
 40
4.0
 40
4.0
 40
4.0
 10
1.083468369843571
 20
-7.150000000000002
 30
0.0
 10
1.083468369843571
 20
-7.191421356235018
 30
0.0
 10
1.04988972607858
 20
-7.224999999999997
 30
0.0
 10
1.008468369843589
 20
-7.224999999999997
 30
0.0
 10
0.9670470136085719
 20
-7.224999999999997
 30
0.0
 10
0.9334683698435811
 20
-7.191421356235018
 30
0.0
 10
0.9334683698435811
 20
-7.150000000000002
 30
0.0
 10
0.9334683698435811
 20
-7.108578643764986
 30
0.0
 10
0.9670470136085719
 20
-7.075000000000007
 30
0.0
 10
1.008468369843589
 20
-7.075000000000007
 30
0.0
 10
1.04988972607858
 20
-7.075000000000007
 30
0.0
 10
1.083468369843571
 20
-7.108578643764986
 30
0.0
 10
1.083468369843571
 20
-7.150000000000002
 30
0.0
  0
ENDBLK
  5
64
330
61
100
AcDbEntity
  8
0
100
AcDbBlockEnd
  0
BLOCK
  5
6B
330
69
100
AcDbEntity
  8
0
100
AcDbBlockBegin
  2
block 7
 70
     0
 10
0.0
 20
0.0
 30
0.0
  3
block 7
  1

  0
SPLINE
  5
6D
330
69
100
AcDbEntity
  8
Layer 1
 62
   179
420
  2301728
370
     9
100
AcDbSpline
210
0.0
220
0.0
230
1.0
 70
    11
 71
     3
 72
    29
 73
    25
 74
     0
 42
0.0000000001
 43
0.0000000001
 12
1.0
 22
0.0
 32
0.0
 13
1.0
 23
0.0
 33
0.0
 40
0.0
 40
0.0
 40
0.0
 40
0.0
 40
1.0
 40
1.0
 40
1.0
 40
2.0
 40
2.0
 40
2.0
 40
3.0
 40
3.0
 40
3.0
 40
4.0
 40
4.0
 40
4.0
 40
5.0
 40
5.0
 40
5.0
 40
6.0
 40
6.0
 40
6.0
 40
7.0
 40
7.0
 40
7.0
 40
8.0
 40
8.0
 40
8.0
 40
8.0
 10
0.4550850905642518
 20
-11.64999999999999
 30
0.0
 10
0.4550850905642518
 20
-11.64999999999999
 30
0.0
 10
0.4516814679944521
 20
-11.64999999999999
 30
0.0
 10
0.4516814679944521
 20
-11.64999999999999
 30
0.0
 10
0.3145501649564974
 20
-11.64999999999999
 30
0.0
 10
0.203383279279352
 20
-11.53883311432284
 30
0.0
 10
0.203383279279352
 20
-11.40170181128491
 30
0.0
 10
0.203383279279352
 20
-11.40170181128491
 30
0.0
 10
0.203383279279352
 20
-2.898298188715103
 30
0.0
 10
0.203383279279352
 20
-2.898298188715103
 30
0.0
 10
0.203383279279352
 20
-2.761166885677135
 30
0.0
 10
0.3145501649564974
 20
-2.650000000000003
 30
0.0
 10
0.4516814679944521
 20
-2.650000000000003
 30
0.0
 10
0.4516814679944521
 20
-2.650000000000003
 30
0.0
 10
0.4550850905642518
 20
-2.650000000000003
 30
0.0
 10
0.4550850905642518
 20
-2.650000000000003
 30
0.0
 10
0.5922163936022066
 20
-2.650000000000003
 30
0.0
 10
0.703383279279352
 20
-2.761166885677135
 30
0.0
 10
0.703383279279352
 20
-2.898298188715103
 30
0.0
 10
0.703383279279352
 20
-2.898298188715103
 30
0.0
 10
0.703383279279352
 20
-11.40170181128491
 30
0.0
 10
0.703383279279352
 20
-11.40170181128491
 30
0.0
 10
0.703383279279352
 20
-11.53883311432284
 30
0.0
 10
0.5922163936022066
 20
-11.64999999999999
 30
0.0
 10
0.4550850905642518
 20
-11.64999999999999
 30
0.0
  0
SPLINE
  5
6E
330
69
100
AcDbEntity
  8
Layer 1
 62
   179
420
  2301728
370
     9
100
AcDbSpline
210
0.0
220
0.0
230
1.0
 70
    11
 71
     3
 72
    17
 73
    13
 74
     0
 42
0.0000000001
 43
0.0000000001
 12
1.0
 22
0.0
 32
0.0
 13
1.0
 23
0.0
 33
0.0
 40
0.0
 40
0.0
 40
0.0
 40
0.0
 40
1.0
 40
1.0
 40
1.0
 40
2.0
 40
2.0
 40
2.0
 40
3.0
 40
3.0
 40
3.0
 40
4.0
 40
4.0
 40
4.0
 40
4.0
 10
0.5283832792793343
 20
-2.900000000000003
 30
0.0
 10
0.5283832792793343
 20
-2.941421356235019
 30
0.0
 10
0.4948046355143434
 20
-2.974999999999997
 30
0.0
 10
0.453383279279352
 20
-2.974999999999997
 30
0.0
 10
0.4119619230443353
 20
-2.974999999999997
 30
0.0
 10
0.3783832792793444
 20
-2.941421356235019
 30
0.0
 10
0.3783832792793444
 20
-2.900000000000003
 30
0.0
 10
0.3783832792793444
 20
-2.858578643764986
 30
0.0
 10
0.4119619230443353
 20
-2.825000000000007
 30
0.0
 10
0.453383279279352
 20
-2.825000000000007
 30
0.0
 10
0.4948046355143434
 20
-2.825000000000007
 30
0.0
 10
0.5283832792793343
 20
-2.858578643764986
 30
0.0
 10
0.5283832792793343
 20
-2.900000000000003
 30
0.0
  0
SPLINE
  5
6F
330
69
100
AcDbEntity
  8
Layer 1
 62
   179
420
  2301728
370
     9
100
AcDbSpline
210
0.0
220
0.0
230
1.0
 70
    11
 71
     3
 72
    17
 73
    13
 74
     0
 42
0.0000000001
 43
0.0000000001
 12
1.0
 22
0.0
 32
0.0
 13
1.0
 23
0.0
 33
0.0
 40
0.0
 40
0.0
 40
0.0
 40
0.0
 40
1.0
 40
1.0
 40
1.0
 40
2.0
 40
2.0
 40
2.0
 40
3.0
 40
3.0
 40
3.0
 40
4.0
 40
4.0
 40
4.0
 40
4.0
 10
0.5283832792793469
 20
-11.39999999999999
 30
0.0
 10
0.5283832792793469
 20
-11.44142135623502
 30
0.0
 10
0.4948046355143561
 20
-11.47500000000001
 30
0.0
 10
0.4533832792793646
 20
-11.47500000000001
 30
0.0
 10
0.4119619230443479
 20
-11.47500000000001
 30
0.0
 10
0.378383279279357
 20
-11.44142135623502
 30
0.0
 10
0.378383279279357
 20
-11.39999999999999
 30
0.0
 10
0.378383279279357
 20
-11.35857864376496
 30
0.0
 10
0.4119619230443479
 20
-11.32500000000002
 30
0.0
 10
0.4533832792793646
 20
-11.32500000000002
 30
0.0
 10
0.4948046355143561
 20
-11.32500000000002
 30
0.0
 10
0.5283832792793469
 20
-11.35857864376496
 30
0.0
 10
0.5283832792793469
 20
-11.39999999999999
 30
0.0
  0
SPLINE
  5
70
330
69
100
AcDbEntity
  8
Layer 1
 62
   179
420
  2301728
370
     9
100
AcDbSpline
210
0.0
220
0.0
230
1.0
 70
    11
 71
     3
 72
    17
 73
    13
 74
     0
 42
0.0000000001
 43
0.0000000001
 12
1.0
 22
0.0
 32
0.0
 13
1.0
 23
0.0
 33
0.0
 40
0.0
 40
0.0
 40
0.0
 40
0.0
 40
1.0
 40
1.0
 40
1.0
 40
2.0
 40
2.0
 40
2.0
 40
3.0
 40
3.0
 40
3.0
 40
4.0
 40
4.0
 40
4.0
 40
4.0
 10
0.5283832792793343
 20
-7.150000000000002
 30
0.0
 10
0.5283832792793343
 20
-7.191421356235018
 30
0.0
 10
0.4948046355143434
 20
-7.224999999999997
 30
0.0
 10
0.453383279279352
 20
-7.224999999999997
 30
0.0
 10
0.4119619230443353
 20
-7.224999999999997
 30
0.0
 10
0.3783832792793444
 20
-7.191421356235018
 30
0.0
 10
0.3783832792793444
 20
-7.150000000000002
 30
0.0
 10
0.3783832792793444
 20
-7.108578643764986
 30
0.0
 10
0.4119619230443353
 20
-7.075000000000007
 30
0.0
 10
0.453383279279352
 20
-7.075000000000007
 30
0.0
 10
0.4948046355143434
 20
-7.075000000000007
 30
0.0
 10
0.5283832792793343
 20
-7.108578643764986
 30
0.0
 10
0.5283832792793343
 20
-7.150000000000002
 30
0.0
  0
ENDBLK
  5
6C
330
69
100
AcDbEntity
  8
0
100
AcDbBlockEnd
  0
BLOCK
  5
73
330
71
100
AcDbEntity
  8
0
100
AcDbBlockBegin
  2
block 8
 70
     0
 10
0.0
 20
0.0
 30
0.0
  3
block 8
  1

  0
SPLINE
  5
75
330
71
100
AcDbEntity
  8
Layer 1
 62
   179
420
  2301728
370
     9
100
AcDbSpline
210
0.0
220
0.0
230
1.0
 70
    11
 71
     3
 72
    29
 73
    25
 74
     0
 42
0.0000000001
 43
0.0000000001
 12
1.0
 22
0.0
 32
0.0
 13
1.0
 23
0.0
 33
0.0
 40
0.0
 40
0.0
 40
0.0
 40
0.0
 40
1.0
 40
1.0
 40
1.0
 40
2.0
 40
2.0
 40
2.0
 40
3.0
 40
3.0
 40
3.0
 40
4.0
 40
4.0
 40
4.0
 40
5.0
 40
5.0
 40
5.0
 40
6.0
 40
6.0
 40
6.0
 40
7.0
 40
7.0
 40
7.0
 40
8.0
 40
8.0
 40
8.0
 40
8.0
 10
8.226276358463666
 20
-11.64999999999999
 30
0.0
 10
8.226276358463666
 20
-11.64999999999999
 30
0.0
 10
8.222872735893866
 20
-11.64999999999999
 30
0.0
 10
8.222872735893866
 20
-11.64999999999999
 30
0.0
 10
8.085741432855912
 20
-11.64999999999999
 30
0.0
 10
7.974574547178766
 20
-11.53883311432284
 30
0.0
 10
7.974574547178766
 20
-11.40170181128491
 30
0.0
 10
7.974574547178766
 20
-11.40170181128491
 30
0.0
 10
7.974574547178766
 20
-2.898298188715103
 30
0.0
 10
7.974574547178766
 20
-2.898298188715103
 30
0.0
 10
7.974574547178766
 20
-2.761166885677135
 30
0.0
 10
8.085741432855912
 20
-2.650000000000003
 30
0.0
 10
8.222872735893866
 20
-2.650000000000003
 30
0.0
 10
8.222872735893866
 20
-2.650000000000003
 30
0.0
 10
8.226276358463666
 20
-2.650000000000003
 30
0.0
 10
8.226276358463666
 20
-2.650000000000003
 30
0.0
 10
8.36340766150162
 20
-2.650000000000003
 30
0.0
 10
8.474574547178765
 20
-2.761166885677135
 30
0.0
 10
8.474574547178765
 20
-2.898298188715103
 30
0.0
 10
8.474574547178765
 20
-2.898298188715103
 30
0.0
 10
8.474574547178765
 20
-11.40170181128491
 30
0.0
 10
8.474574547178765
 20
-11.40170181128491
 30
0.0
 10
8.474574547178765
 20
-11.53883311432284
 30
0.0
 10
8.36340766150162
 20
-11.64999999999999
 30
0.0
 10
8.226276358463666
 20
-11.64999999999999
 30
0.0
  0
SPLINE
  5
76
330
71
100
AcDbEntity
  8
Layer 1
 62
   179
420
  2301728
370
     9
100
AcDbSpline
210
0.0
220
0.0
230
1.0
 70
    11
 71
     3
 72
    17
 73
    13
 74
     0
 42
0.0000000001
 43
0.0000000001
 12
1.0
 22
0.0
 32
0.0
 13
1.0
 23
0.0
 33
0.0
 40
0.0
 40
0.0
 40
0.0
 40
0.0
 40
1.0
 40
1.0
 40
1.0
 40
2.0
 40
2.0
 40
2.0
 40
3.0
 40
3.0
 40
3.0
 40
4.0
 40
4.0
 40
4.0
 40
4.0
 10
8.299574547178736
 20
-2.900000000000003
 30
0.0
 10
8.299574547178736
 20
-2.941421356235019
 30
0.0
 10
8.265995903413744
 20
-2.974999999999997
 30
0.0
 10
8.224574547178765
 20
-2.974999999999997
 30
0.0
 10
8.183153190943736
 20
-2.974999999999997
 30
0.0
 10
8.149574547178746
 20
-2.941421356235019
 30
0.0
 10
8.149574547178746
 20
-2.900000000000003
 30
0.0
 10
8.149574547178746
 20
-2.858578643764986
 30
0.0
 10
8.183153190943736
 20
-2.825000000000007
 30
0.0
 10
8.224574547178765
 20
-2.825000000000007
 30
0.0
 10
8.265995903413744
 20
-2.825000000000007
 30
0.0
 10
8.299574547178736
 20
-2.858578643764986
 30
0.0
 10
8.299574547178736
 20
-2.900000000000003
 30
0.0
  0
SPLINE
  5
77
330
71
100
AcDbEntity
  8
Layer 1
 62
   179
420
  2301728
370
     9
100
AcDbSpline
210
0.0
220
0.0
230
1.0
 70
    11
 71
     3
 72
    17
 73
    13
 74
     0
 42
0.0000000001
 43
0.0000000001
 12
1.0
 22
0.0
 32
0.0
 13
1.0
 23
0.0
 33
0.0
 40
0.0
 40
0.0
 40
0.0
 40
0.0
 40
1.0
 40
1.0
 40
1.0
 40
2.0
 40
2.0
 40
2.0
 40
3.0
 40
3.0
 40
3.0
 40
4.0
 40
4.0
 40
4.0
 40
4.0
 10
8.299574547178786
 20
-11.39999999999999
 30
0.0
 10
8.299574547178786
 20
-11.44142135623502
 30
0.0
 10
8.265995903413796
 20
-11.47500000000001
 30
0.0
 10
8.224574547178765
 20
-11.47500000000001
 30
0.0
 10
8.183153190943761
 20
-11.47500000000001
 30
0.0
 10
8.149574547178771
 20
-11.44142135623502
 30
0.0
 10
8.149574547178771
 20
-11.39999999999999
 30
0.0
 10
8.149574547178771
 20
-11.35857864376496
 30
0.0
 10
8.183153190943761
 20
-11.32500000000002
 30
0.0
 10
8.224574547178765
 20
-11.32500000000002
 30
0.0
 10
8.265995903413796
 20
-11.32500000000002
 30
0.0
 10
8.299574547178786
 20
-11.35857864376496
 30
0.0
 10
8.299574547178786
 20
-11.39999999999999
 30
0.0
  0
SPLINE
  5
78
330
71
100
AcDbEntity
  8
Layer 1
 62
   179
420
  2301728
370
     9
100
AcDbSpline
210
0.0
220
0.0
230
1.0
 70
    11
 71
     3
 72
    17
 73
    13
 74
     0
 42
0.0000000001
 43
0.0000000001
 12
1.0
 22
0.0
 32
0.0
 13
1.0
 23
0.0
 33
0.0
 40
0.0
 40
0.0
 40
0.0
 40
0.0
 40
1.0
 40
1.0
 40
1.0
 40
2.0
 40
2.0
 40
2.0
 40
3.0
 40
3.0
 40
3.0
 40
4.0
 40
4.0
 40
4.0
 40
4.0
 10
8.299574547178736
 20
-7.150000000000002
 30
0.0
 10
8.299574547178736
 20
-7.191421356235018
 30
0.0
 10
8.265995903413744
 20
-7.225000000000009
 30
0.0
 10
8.224574547178765
 20
-7.225000000000009
 30
0.0
 10
8.183153190943736
 20
-7.225000000000009
 30
0.0
 10
8.149574547178746
 20
-7.191421356235018
 30
0.0
 10
8.149574547178746
 20
-7.150000000000002
 30
0.0
 10
8.149574547178746
 20
-7.108578643764986
 30
0.0
 10
8.183153190943736
 20
-7.075000000000007
 30
0.0
 10
8.224574547178765
 20
-7.075000000000007
 30
0.0
 10
8.265995903413744
 20
-7.075000000000007
 30
0.0
 10
8.299574547178736
 20
-7.108578643764986
 30
0.0
 10
8.299574547178736
 20
-7.150000000000002
 30
0.0
  0
ENDBLK
  5
74
330
71
100
AcDbEntity
  8
0
100
AcDbBlockEnd
  0
BLOCK
  5
7B
330
79
100
AcDbEntity
  8
0
100
AcDbBlockBegin
  2
block 9
 70
     0
 10
0.0
 20
0.0
 30
0.0
  3
block 9
  1

  0
SPLINE
  5
7D
330
79
100
AcDbEntity
  8
Layer 1
 62
   179
420
  2301728
370
     9
100
AcDbSpline
210
0.0
220
0.0
230
1.0
 70
    11
 71
     3
 72
    29
 73
    25
 74
     0
 42
0.0000000001
 43
0.0000000001
 12
1.0
 22
0.0
 32
0.0
 13
1.0
 23
0.0
 33
0.0
 40
0.0
 40
0.0
 40
0.0
 40
0.0
 40
1.0
 40
1.0
 40
1.0
 40
2.0
 40
2.0
 40
2.0
 40
3.0
 40
3.0
 40
3.0
 40
4.0
 40
4.0
 40
4.0
 40
5.0
 40
5.0
 40
5.0
 40
6.0
 40
6.0
 40
6.0
 40
7.0
 40
7.0
 40
7.0
 40
8.0
 40
8.0
 40
8.0
 40
8.0
 10
7.671191267899429
 20
-11.64999999999999
 30
0.0
 10
7.671191267899429
 20
-11.64999999999999
 30
0.0
 10
7.667787645329629
 20
-11.64999999999999
 30
0.0
 10
7.667787645329629
 20
-11.64999999999999
 30
0.0
 10
7.530656342291675
 20
-11.64999999999999
 30
0.0
 10
7.419489456614529
 20
-11.53883311432284
 30
0.0
 10
7.419489456614529
 20
-11.40170181128491
 30
0.0
 10
7.419489456614529
 20
-11.40170181128491
 30
0.0
 10
7.419489456614529
 20
-2.898298188715103
 30
0.0
 10
7.419489456614529
 20
-2.898298188715103
 30
0.0
 10
7.419489456614529
 20
-2.761166885677135
 30
0.0
 10
7.530656342291675
 20
-2.650000000000003
 30
0.0
 10
7.667787645329629
 20
-2.650000000000003
 30
0.0
 10
7.667787645329629
 20
-2.650000000000003
 30
0.0
 10
7.671191267899429
 20
-2.650000000000003
 30
0.0
 10
7.671191267899429
 20
-2.650000000000003
 30
0.0
 10
7.808322570937384
 20
-2.650000000000003
 30
0.0
 10
7.919489456614529
 20
-2.761166885677135
 30
0.0
 10
7.919489456614529
 20
-2.898298188715103
 30
0.0
 10
7.919489456614529
 20
-2.898298188715103
 30
0.0
 10
7.919489456614529
 20
-11.40170181128491
 30
0.0
 10
7.919489456614529
 20
-11.40170181128491
 30
0.0
 10
7.919489456614529
 20
-11.53883311432284
 30
0.0
 10
7.808322570937384
 20
-11.64999999999999
 30
0.0
 10
7.671191267899429
 20
-11.64999999999999
 30
0.0
  0
SPLINE
  5
7E
330
79
100
AcDbEntity
  8
Layer 1
 62
   179
420
  2301728
370
     9
100
AcDbSpline
210
0.0
220
0.0
230
1.0
 70
    11
 71
     3
 72
    17
 73
    13
 74
     0
 42
0.0000000001
 43
0.0000000001
 12
1.0
 22
0.0
 32
0.0
 13
1.0
 23
0.0
 33
0.0
 40
0.0
 40
0.0
 40
0.0
 40
0.0
 40
1.0
 40
1.0
 40
1.0
 40
2.0
 40
2.0
 40
2.0
 40
3.0
 40
3.0
 40
3.0
 40
4.0
 40
4.0
 40
4.0
 40
4.0
 10
7.744489456614524
 20
-2.900000000000003
 30
0.0
 10
7.744489456614524
 20
-2.941421356235019
 30
0.0
 10
7.710910812849534
 20
-2.974999999999997
 30
0.0
 10
7.669489456614529
 20
-2.974999999999997
 30
0.0
 10
7.628068100379525
 20
-2.974999999999997
 30
0.0
 10
7.594489456614534
 20
-2.941421356235019
 30
0.0
 10
7.594489456614534
 20
-2.900000000000003
 30
0.0
 10
7.594489456614534
 20
-2.858578643764986
 30
0.0
 10
7.628068100379525
 20
-2.825000000000007
 30
0.0
 10
7.669489456614529
 20
-2.825000000000007
 30
0.0
 10
7.710910812849534
 20
-2.825000000000007
 30
0.0
 10
7.744489456614524
 20
-2.858578643764986
 30
0.0
 10
7.744489456614524
 20
-2.900000000000003
 30
0.0
  0
SPLINE
  5
7F
330
79
100
AcDbEntity
  8
Layer 1
 62
   179
420
  2301728
370
     9
100
AcDbSpline
210
0.0
220
0.0
230
1.0
 70
    11
 71
     3
 72
    17
 73
    13
 74
     0
 42
0.0000000001
 43
0.0000000001
 12
1.0
 22
0.0
 32
0.0
 13
1.0
 23
0.0
 33
0.0
 40
0.0
 40
0.0
 40
0.0
 40
0.0
 40
1.0
 40
1.0
 40
1.0
 40
2.0
 40
2.0
 40
2.0
 40
3.0
 40
3.0
 40
3.0
 40
4.0
 40
4.0
 40
4.0
 40
4.0
 10
7.744489456614549
 20
-11.39999999999999
 30
0.0
 10
7.744489456614549
 20
-11.44142135623502
 30
0.0
 10
7.710910812849558
 20
-11.47500000000001
 30
0.0
 10
7.669489456614555
 20
-11.47500000000001
 30
0.0
 10
7.628068100379525
 20
-11.47500000000001
 30
0.0
 10
7.594489456614534
 20
-11.44142135623502
 30
0.0
 10
7.594489456614534
 20
-11.39999999999999
 30
0.0
 10
7.594489456614534
 20
-11.35857864376496
 30
0.0
 10
7.628068100379525
 20
-11.32500000000002
 30
0.0
 10
7.669489456614555
 20
-11.32500000000002
 30
0.0
 10
7.710910812849558
 20
-11.32500000000002
 30
0.0
 10
7.744489456614549
 20
-11.35857864376496
 30
0.0
 10
7.744489456614549
 20
-11.39999999999999
 30
0.0
  0
SPLINE
  5
80
330
79
100
AcDbEntity
  8
Layer 1
 62
   179
420
  2301728
370
     9
100
AcDbSpline
210
0.0
220
0.0
230
1.0
 70
    11
 71
     3
 72
    17
 73
    13
 74
     0
 42
0.0000000001
 43
0.0000000001
 12
1.0
 22
0.0
 32
0.0
 13
1.0
 23
0.0
 33
0.0
 40
0.0
 40
0.0
 40
0.0
 40
0.0
 40
1.0
 40
1.0
 40
1.0
 40
2.0
 40
2.0
 40
2.0
 40
3.0
 40
3.0
 40
3.0
 40
4.0
 40
4.0
 40
4.0
 40
4.0
 10
7.744489456614524
 20
-7.150000000000002
 30
0.0
 10
7.744489456614524
 20
-7.191421356235018
 30
0.0
 10
7.710910812849534
 20
-7.225000000000009
 30
0.0
 10
7.669489456614529
 20
-7.225000000000009
 30
0.0
 10
7.628068100379525
 20
-7.225000000000009
 30
0.0
 10
7.594489456614534
 20
-7.191421356235018
 30
0.0
 10
7.594489456614534
 20
-7.150000000000002
 30
0.0
 10
7.594489456614534
 20
-7.108578643764986
 30
0.0
 10
7.628068100379525
 20
-7.075000000000007
 30
0.0
 10
7.669489456614529
 20
-7.075000000000007
 30
0.0
 10
7.710910812849534
 20
-7.075000000000007
 30
0.0
 10
7.744489456614524
 20
-7.108578643764986
 30
0.0
 10
7.744489456614524
 20
-7.150000000000002
 30
0.0
  0
ENDBLK
  5
7C
330
79
100
AcDbEntity
  8
0
100
AcDbBlockEnd
  0
BLOCK
  5
83
330
81
100
AcDbEntity
  8
0
100
AcDbBlockBegin
  2
block 10
 70
     0
 10
0.0
 20
0.0
 30
0.0
  3
block 10
  1

  0
SPLINE
  5
85
330
81
100
AcDbEntity
  8
Layer 1
 62
   179
420
  2301728
370
     9
100
AcDbSpline
210
0.0
220
0.0
230
1.0
 70
    11
 71
     3
 72
    29
 73
    25
 74
     0
 42
0.0000000001
 43
0.0000000001
 12
1.0
 22
0.0
 32
0.0
 13
1.0
 23
0.0
 33
0.0
 40
0.0
 40
0.0
 40
0.0
 40
0.0
 40
1.0
 40
1.0
 40
1.0
 40
2.0
 40
2.0
 40
2.0
 40
3.0
 40
3.0
 40
3.0
 40
4.0
 40
4.0
 40
4.0
 40
5.0
 40
5.0
 40
5.0
 40
6.0
 40
6.0
 40
6.0
 40
7.0
 40
7.0
 40
7.0
 40
8.0
 40
8.0
 40
8.0
 40
8.0
 10
7.116106177335192
 20
-11.64999999999999
 30
0.0
 10
7.116106177335192
 20
-11.64999999999999
 30
0.0
 10
7.112702554765392
 20
-11.64999999999999
 30
0.0
 10
7.112702554765392
 20
-11.64999999999999
 30
0.0
 10
6.975571251727438
 20
-11.64999999999999
 30
0.0
 10
6.864404366050293
 20
-11.53883311432284
 30
0.0
 10
6.864404366050293
 20
-11.40170181128491
 30
0.0
 10
6.864404366050293
 20
-11.40170181128491
 30
0.0
 10
6.864404366050293
 20
-2.898298188715103
 30
0.0
 10
6.864404366050293
 20
-2.898298188715103
 30
0.0
 10
6.864404366050293
 20
-2.761166885677135
 30
0.0
 10
6.975571251727438
 20
-2.650000000000003
 30
0.0
 10
7.112702554765392
 20
-2.650000000000003
 30
0.0
 10
7.112702554765392
 20
-2.650000000000003
 30
0.0
 10
7.116106177335192
 20
-2.650000000000003
 30
0.0
 10
7.116106177335192
 20
-2.650000000000003
 30
0.0
 10
7.253237480373122
 20
-2.650000000000003
 30
0.0
 10
7.364404366050267
 20
-2.761166885677135
 30
0.0
 10
7.364404366050267
 20
-2.898298188715103
 30
0.0
 10
7.364404366050267
 20
-2.898298188715103
 30
0.0
 10
7.364404366050267
 20
-11.40170181128491
 30
0.0
 10
7.364404366050267
 20
-11.40170181128491
 30
0.0
 10
7.364404366050267
 20
-11.53883311432284
 30
0.0
 10
7.253237480373122
 20
-11.64999999999999
 30
0.0
 10
7.116106177335192
 20
-11.64999999999999
 30
0.0
  0
SPLINE
  5
86
330
81
100
AcDbEntity
  8
Layer 1
 62
   179
420
  2301728
370
     9
100
AcDbSpline
210
0.0
220
0.0
230
1.0
 70
    11
 71
     3
 72
    17
 73
    13
 74
     0
 42
0.0000000001
 43
0.0000000001
 12
1.0
 22
0.0
 32
0.0
 13
1.0
 23
0.0
 33
0.0
 40
0.0
 40
0.0
 40
0.0
 40
0.0
 40
1.0
 40
1.0
 40
1.0
 40
2.0
 40
2.0
 40
2.0
 40
3.0
 40
3.0
 40
3.0
 40
4.0
 40
4.0
 40
4.0
 40
4.0
 10
7.189404366050262
 20
-2.900000000000003
 30
0.0
 10
7.189404366050262
 20
-2.941421356235019
 30
0.0
 10
7.155825722285272
 20
-2.974999999999997
 30
0.0
 10
7.114404366050293
 20
-2.974999999999997
 30
0.0
 10
7.072983009815263
 20
-2.974999999999997
 30
0.0
 10
7.039404366050272
 20
-2.941421356235019
 30
0.0
 10
7.039404366050272
 20
-2.900000000000003
 30
0.0
 10
7.039404366050272
 20
-2.858578643764986
 30
0.0
 10
7.072983009815263
 20
-2.825000000000007
 30
0.0
 10
7.114404366050293
 20
-2.825000000000007
 30
0.0
 10
7.155825722285272
 20
-2.825000000000007
 30
0.0
 10
7.189404366050262
 20
-2.858578643764986
 30
0.0
 10
7.189404366050262
 20
-2.900000000000003
 30
0.0
  0
SPLINE
  5
87
330
81
100
AcDbEntity
  8
Layer 1
 62
   179
420
  2301728
370
     9
100
AcDbSpline
210
0.0
220
0.0
230
1.0
 70
    11
 71
     3
 72
    17
 73
    13
 74
     0
 42
0.0000000001
 43
0.0000000001
 12
1.0
 22
0.0
 32
0.0
 13
1.0
 23
0.0
 33
0.0
 40
0.0
 40
0.0
 40
0.0
 40
0.0
 40
1.0
 40
1.0
 40
1.0
 40
2.0
 40
2.0
 40
2.0
 40
3.0
 40
3.0
 40
3.0
 40
4.0
 40
4.0
 40
4.0
 40
4.0
 10
7.189404366050288
 20
-11.39999999999999
 30
0.0
 10
7.189404366050288
 20
-11.44142135623502
 30
0.0
 10
7.155825722285297
 20
-11.47500000000001
 30
0.0
 10
7.114404366050293
 20
-11.47500000000001
 30
0.0
 10
7.072983009815289
 20
-11.47500000000001
 30
0.0
 10
7.039404366050298
 20
-11.44142135623502
 30
0.0
 10
7.039404366050298
 20
-11.39999999999999
 30
0.0
 10
7.039404366050298
 20
-11.35857864376496
 30
0.0
 10
7.072983009815289
 20
-11.32500000000002
 30
0.0
 10
7.114404366050293
 20
-11.32500000000002
 30
0.0
 10
7.155825722285297
 20
-11.32500000000002
 30
0.0
 10
7.189404366050288
 20
-11.35857864376496
 30
0.0
 10
7.189404366050288
 20
-11.39999999999999
 30
0.0
  0
SPLINE
  5
88
330
81
100
AcDbEntity
  8
Layer 1
 62
   179
420
  2301728
370
     9
100
AcDbSpline
210
0.0
220
0.0
230
1.0
 70
    11
 71
     3
 72
    17
 73
    13
 74
     0
 42
0.0000000001
 43
0.0000000001
 12
1.0
 22
0.0
 32
0.0
 13
1.0
 23
0.0
 33
0.0
 40
0.0
 40
0.0
 40
0.0
 40
0.0
 40
1.0
 40
1.0
 40
1.0
 40
2.0
 40
2.0
 40
2.0
 40
3.0
 40
3.0
 40
3.0
 40
4.0
 40
4.0
 40
4.0
 40
4.0
 10
7.189404366050262
 20
-7.150000000000002
 30
0.0
 10
7.189404366050262
 20
-7.191421356235018
 30
0.0
 10
7.155825722285272
 20
-7.225000000000009
 30
0.0
 10
7.114404366050293
 20
-7.225000000000009
 30
0.0
 10
7.072983009815263
 20
-7.225000000000009
 30
0.0
 10
7.039404366050272
 20
-7.191421356235018
 30
0.0
 10
7.039404366050272
 20
-7.150000000000002
 30
0.0
 10
7.039404366050272
 20
-7.108578643764986
 30
0.0
 10
7.072983009815263
 20
-7.075000000000007
 30
0.0
 10
7.114404366050293
 20
-7.075000000000007
 30
0.0
 10
7.155825722285272
 20
-7.075000000000007
 30
0.0
 10
7.189404366050262
 20
-7.108578643764986
 30
0.0
 10
7.189404366050262
 20
-7.150000000000002
 30
0.0
  0
ENDBLK
  5
84
330
81
100
AcDbEntity
  8
0
100
AcDbBlockEnd
  0
BLOCK
  5
8B
330
89
100
AcDbEntity
  8
0
100
AcDbBlockBegin
  2
block 11
 70
     0
 10
0.0
 20
0.0
 30
0.0
  3
block 11
  1

  0
SPLINE
  5
8D
330
89
100
AcDbEntity
  8
Layer 1
 62
   179
420
  2301728
370
     9
100
AcDbSpline
210
0.0
220
0.0
230
1.0
 70
    11
 71
     3
 72
    29
 73
    25
 74
     0
 42
0.0000000001
 43
0.0000000001
 12
1.0
 22
0.0
 32
0.0
 13
1.0
 23
0.0
 33
0.0
 40
0.0
 40
0.0
 40
0.0
 40
0.0
 40
1.0
 40
1.0
 40
1.0
 40
2.0
 40
2.0
 40
2.0
 40
3.0
 40
3.0
 40
3.0
 40
4.0
 40
4.0
 40
4.0
 40
5.0
 40
5.0
 40
5.0
 40
6.0
 40
6.0
 40
6.0
 40
7.0
 40
7.0
 40
7.0
 40
8.0
 40
8.0
 40
8.0
 40
8.0
 10
6.56102108677093
 20
-11.64999999999999
 30
0.0
 10
6.56102108677093
 20
-11.64999999999999
 30
0.0
 10
6.55761746420113
 20
-11.64999999999999
 30
0.0
 10
6.55761746420113
 20
-11.64999999999999
 30
0.0
 10
6.420486161163176
 20
-11.64999999999999
 30
0.0
 10
6.309319275486031
 20
-11.53883311432284
 30
0.0
 10
6.309319275486031
 20
-11.40170181128491
 30
0.0
 10
6.309319275486031
 20
-11.40170181128491
 30
0.0
 10
6.309319275486031
 20
-2.898298188715103
 30
0.0
 10
6.309319275486031
 20
-2.898298188715103
 30
0.0
 10
6.309319275486031
 20
-2.761166885677135
 30
0.0
 10
6.420486161163176
 20
-2.650000000000003
 30
0.0
 10
6.55761746420113
 20
-2.650000000000003
 30
0.0
 10
6.55761746420113
 20
-2.650000000000003
 30
0.0
 10
6.56102108677093
 20
-2.650000000000003
 30
0.0
 10
6.56102108677093
 20
-2.650000000000003
 30
0.0
 10
6.698152389808885
 20
-2.650000000000003
 30
0.0
 10
6.809319275486031
 20
-2.761166885677135
 30
0.0
 10
6.809319275486031
 20
-2.898298188715103
 30
0.0
 10
6.809319275486031
 20
-2.898298188715103
 30
0.0
 10
6.809319275486031
 20
-11.40170181128491
 30
0.0
 10
6.809319275486031
 20
-11.40170181128491
 30
0.0
 10
6.809319275486031
 20
-11.53883311432284
 30
0.0
 10
6.698152389808885
 20
-11.64999999999999
 30
0.0
 10
6.56102108677093
 20
-11.64999999999999
 30
0.0
  0
SPLINE
  5
8E
330
89
100
AcDbEntity
  8
Layer 1
 62
   179
420
  2301728
370
     9
100
AcDbSpline
210
0.0
220
0.0
230
1.0
 70
    11
 71
     3
 72
    17
 73
    13
 74
     0
 42
0.0000000001
 43
0.0000000001
 12
1.0
 22
0.0
 32
0.0
 13
1.0
 23
0.0
 33
0.0
 40
0.0
 40
0.0
 40
0.0
 40
0.0
 40
1.0
 40
1.0
 40
1.0
 40
2.0
 40
2.0
 40
2.0
 40
3.0
 40
3.0
 40
3.0
 40
4.0
 40
4.0
 40
4.0
 40
4.0
 10
6.634319275486026
 20
-2.900000000000003
 30
0.0
 10
6.634319275486026
 20
-2.941421356235019
 30
0.0
 10
6.600740631721035
 20
-2.974999999999997
 30
0.0
 10
6.559319275486031
 20
-2.974999999999997
 30
0.0
 10
6.517897919251027
 20
-2.974999999999997
 30
0.0
 10
6.484319275486036
 20
-2.941421356235019
 30
0.0
 10
6.484319275486036
 20
-2.900000000000003
 30
0.0
 10
6.484319275486036
 20
-2.858578643764986
 30
0.0
 10
6.517897919251027
 20
-2.825000000000007
 30
0.0
 10
6.559319275486031
 20
-2.825000000000007
 30
0.0
 10
6.600740631721035
 20
-2.825000000000007
 30
0.0
 10
6.634319275486026
 20
-2.858578643764986
 30
0.0
 10
6.634319275486026
 20
-2.900000000000003
 30
0.0
  0
SPLINE
  5
8F
330
89
100
AcDbEntity
  8
Layer 1
 62
   179
420
  2301728
370
     9
100
AcDbSpline
210
0.0
220
0.0
230
1.0
 70
    11
 71
     3
 72
    17
 73
    13
 74
     0
 42
0.0000000001
 43
0.0000000001
 12
1.0
 22
0.0
 32
0.0
 13
1.0
 23
0.0
 33
0.0
 40
0.0
 40
0.0
 40
0.0
 40
0.0
 40
1.0
 40
1.0
 40
1.0
 40
2.0
 40
2.0
 40
2.0
 40
3.0
 40
3.0
 40
3.0
 40
4.0
 40
4.0
 40
4.0
 40
4.0
 10
6.63431927548605
 20
-11.39999999999999
 30
0.0
 10
6.63431927548605
 20
-11.44142135623502
 30
0.0
 10
6.60074063172106
 20
-11.47500000000001
 30
0.0
 10
6.559319275486056
 20
-11.47500000000001
 30
0.0
 10
6.517897919251027
 20
-11.47500000000001
 30
0.0
 10
6.484319275486036
 20
-11.44142135623502
 30
0.0
 10
6.484319275486036
 20
-11.39999999999999
 30
0.0
 10
6.484319275486036
 20
-11.35857864376496
 30
0.0
 10
6.517897919251027
 20
-11.32500000000002
 30
0.0
 10
6.559319275486056
 20
-11.32500000000002
 30
0.0
 10
6.60074063172106
 20
-11.32500000000002
 30
0.0
 10
6.63431927548605
 20
-11.35857864376496
 30
0.0
 10
6.63431927548605
 20
-11.39999999999999
 30
0.0
  0
SPLINE
  5
90
330
89
100
AcDbEntity
  8
Layer 1
 62
   179
420
  2301728
370
     9
100
AcDbSpline
210
0.0
220
0.0
230
1.0
 70
    11
 71
     3
 72
    17
 73
    13
 74
     0
 42
0.0000000001
 43
0.0000000001
 12
1.0
 22
0.0
 32
0.0
 13
1.0
 23
0.0
 33
0.0
 40
0.0
 40
0.0
 40
0.0
 40
0.0
 40
1.0
 40
1.0
 40
1.0
 40
2.0
 40
2.0
 40
2.0
 40
3.0
 40
3.0
 40
3.0
 40
4.0
 40
4.0
 40
4.0
 40
4.0
 10
6.634319275486026
 20
-7.150000000000002
 30
0.0
 10
6.634319275486026
 20
-7.191421356235018
 30
0.0
 10
6.600740631721035
 20
-7.225000000000009
 30
0.0
 10
6.559319275486031
 20
-7.225000000000009
 30
0.0
 10
6.517897919251027
 20
-7.225000000000009
 30
0.0
 10
6.484319275486036
 20
-7.191421356235018
 30
0.0
 10
6.484319275486036
 20
-7.150000000000002
 30
0.0
 10
6.484319275486036
 20
-7.108578643764986
 30
0.0
 10
6.517897919251027
 20
-7.075000000000007
 30
0.0
 10
6.559319275486031
 20
-7.075000000000007
 30
0.0
 10
6.600740631721035
 20
-7.075000000000007
 30
0.0
 10
6.634319275486026
 20
-7.108578643764986
 30
0.0
 10
6.634319275486026
 20
-7.150000000000002
 30
0.0
  0
ENDBLK
  5
8C
330
89
100
AcDbEntity
  8
0
100
AcDbBlockEnd
  0
BLOCK
  5
93
330
91
100
AcDbEntity
  8
0
100
AcDbBlockBegin
  2
block 12
 70
     0
 10
0.0
 20
0.0
 30
0.0
  3
block 12
  1

  0
SPLINE
  5
95
330
91
100
AcDbEntity
  8
Layer 1
 62
   179
420
  2301728
370
     9
100
AcDbSpline
210
0.0
220
0.0
230
1.0
 70
    11
 71
     3
 72
    29
 73
    25
 74
     0
 42
0.0000000001
 43
0.0000000001
 12
1.0
 22
0.0
 32
0.0
 13
1.0
 23
0.0
 33
0.0
 40
0.0
 40
0.0
 40
0.0
 40
0.0
 40
1.0
 40
1.0
 40
1.0
 40
2.0
 40
2.0
 40
2.0
 40
3.0
 40
3.0
 40
3.0
 40
4.0
 40
4.0
 40
4.0
 40
5.0
 40
5.0
 40
5.0
 40
6.0
 40
6.0
 40
6.0
 40
7.0
 40
7.0
 40
7.0
 40
8.0
 40
8.0
 40
8.0
 40
8.0
 10
6.005935996206719
 20
-11.64999999999999
 30
0.0
 10
6.005935996206719
 20
-11.64999999999999
 30
0.0
 10
6.002532373636919
 20
-11.64999999999999
 30
0.0
 10
6.002532373636919
 20
-11.64999999999999
 30
0.0
 10
5.865401070598964
 20
-11.64999999999999
 30
0.0
 10
5.754234184921794
 20
-11.53883311432284
 30
0.0
 10
5.754234184921794
 20
-11.40170181128491
 30
0.0
 10
5.754234184921794
 20
-11.40170181128491
 30
0.0
 10
5.754234184921794
 20
-2.898298188715103
 30
0.0
 10
5.754234184921794
 20
-2.898298188715103
 30
0.0
 10
5.754234184921794
 20
-2.761166885677135
 30
0.0
 10
5.865401070598964
 20
-2.650000000000003
 30
0.0
 10
6.002532373636919
 20
-2.650000000000003
 30
0.0
 10
6.002532373636919
 20
-2.650000000000003
 30
0.0
 10
6.005935996206719
 20
-2.650000000000003
 30
0.0
 10
6.005935996206719
 20
-2.650000000000003
 30
0.0
 10
6.143067299244649
 20
-2.650000000000003
 30
0.0
 10
6.254234184921794
 20
-2.761166885677135
 30
0.0
 10
6.254234184921794
 20
-2.898298188715103
 30
0.0
 10
6.254234184921794
 20
-2.898298188715103
 30
0.0
 10
6.254234184921794
 20
-11.40170181128491
 30
0.0
 10
6.254234184921794
 20
-11.40170181128491
 30
0.0
 10
6.254234184921794
 20
-11.53883311432284
 30
0.0
 10
6.143067299244649
 20
-11.64999999999999
 30
0.0
 10
6.005935996206719
 20
-11.64999999999999
 30
0.0
  0
SPLINE
  5
96
330
91
100
AcDbEntity
  8
Layer 1
 62
   179
420
  2301728
370
     9
100
AcDbSpline
210
0.0
220
0.0
230
1.0
 70
    11
 71
     3
 72
    17
 73
    13
 74
     0
 42
0.0000000001
 43
0.0000000001
 12
1.0
 22
0.0
 32
0.0
 13
1.0
 23
0.0
 33
0.0
 40
0.0
 40
0.0
 40
0.0
 40
0.0
 40
1.0
 40
1.0
 40
1.0
 40
2.0
 40
2.0
 40
2.0
 40
3.0
 40
3.0
 40
3.0
 40
4.0
 40
4.0
 40
4.0
 40
4.0
 10
6.079234184921789
 20
-2.900000000000003
 30
0.0
 10
6.079234184921789
 20
-2.941421356235019
 30
0.0
 10
6.045655541156798
 20
-2.974999999999997
 30
0.0
 10
6.004234184921819
 20
-2.974999999999997
 30
0.0
 10
5.96281282868679
 20
-2.974999999999997
 30
0.0
 10
5.929234184921799
 20
-2.941421356235019
 30
0.0
 10
5.929234184921799
 20
-2.900000000000003
 30
0.0
 10
5.929234184921799
 20
-2.858578643764986
 30
0.0
 10
5.96281282868679
 20
-2.825000000000007
 30
0.0
 10
6.004234184921819
 20
-2.825000000000007
 30
0.0
 10
6.045655541156798
 20
-2.825000000000007
 30
0.0
 10
6.079234184921789
 20
-2.858578643764986
 30
0.0
 10
6.079234184921789
 20
-2.900000000000003
 30
0.0
  0
SPLINE
  5
97
330
91
100
AcDbEntity
  8
Layer 1
 62
   179
420
  2301728
370
     9
100
AcDbSpline
210
0.0
220
0.0
230
1.0
 70
    11
 71
     3
 72
    17
 73
    13
 74
     0
 42
0.0000000001
 43
0.0000000001
 12
1.0
 22
0.0
 32
0.0
 13
1.0
 23
0.0
 33
0.0
 40
0.0
 40
0.0
 40
0.0
 40
0.0
 40
1.0
 40
1.0
 40
1.0
 40
2.0
 40
2.0
 40
2.0
 40
3.0
 40
3.0
 40
3.0
 40
4.0
 40
4.0
 40
4.0
 40
4.0
 10
6.079234184921814
 20
-11.39999999999999
 30
0.0
 10
6.079234184921814
 20
-11.44142135623502
 30
0.0
 10
6.045655541156823
 20
-11.47500000000001
 30
0.0
 10
6.004234184921819
 20
-11.47500000000001
 30
0.0
 10
5.962812828686816
 20
-11.47500000000001
 30
0.0
 10
5.929234184921825
 20
-11.44142135623502
 30
0.0
 10
5.929234184921825
 20
-11.39999999999999
 30
0.0
 10
5.929234184921825
 20
-11.35857864376496
 30
0.0
 10
5.962812828686816
 20
-11.32500000000002
 30
0.0
 10
6.004234184921819
 20
-11.32500000000002
 30
0.0
 10
6.045655541156823
 20
-11.32500000000002
 30
0.0
 10
6.079234184921814
 20
-11.35857864376496
 30
0.0
 10
6.079234184921814
 20
-11.39999999999999
 30
0.0
  0
SPLINE
  5
98
330
91
100
AcDbEntity
  8
Layer 1
 62
   179
420
  2301728
370
     9
100
AcDbSpline
210
0.0
220
0.0
230
1.0
 70
    11
 71
     3
 72
    17
 73
    13
 74
     0
 42
0.0000000001
 43
0.0000000001
 12
1.0
 22
0.0
 32
0.0
 13
1.0
 23
0.0
 33
0.0
 40
0.0
 40
0.0
 40
0.0
 40
0.0
 40
1.0
 40
1.0
 40
1.0
 40
2.0
 40
2.0
 40
2.0
 40
3.0
 40
3.0
 40
3.0
 40
4.0
 40
4.0
 40
4.0
 40
4.0
 10
6.079234184921789
 20
-7.150000000000002
 30
0.0
 10
6.079234184921789
 20
-7.191421356235018
 30
0.0
 10
6.045655541156798
 20
-7.225000000000009
 30
0.0
 10
6.004234184921819
 20
-7.225000000000009
 30
0.0
 10
5.96281282868679
 20
-7.225000000000009
 30
0.0
 10
5.929234184921799
 20
-7.191421356235018
 30
0.0
 10
5.929234184921799
 20
-7.150000000000002
 30
0.0
 10
5.929234184921799
 20
-7.108578643764986
 30
0.0
 10
5.96281282868679
 20
-7.075000000000007
 30
0.0
 10
6.004234184921819
 20
-7.075000000000007
 30
0.0
 10
6.045655541156798
 20
-7.075000000000007
 30
0.0
 10
6.079234184921789
 20
-7.108578643764986
 30
0.0
 10
6.079234184921789
 20
-7.150000000000002
 30
0.0
  0
ENDBLK
  5
94
330
91
100
AcDbEntity
  8
0
100
AcDbBlockEnd
  0
BLOCK
  5
9B
330
99
100
AcDbEntity
  8
0
100
AcDbBlockBegin
  2
block 13
 70
     0
 10
0.0
 20
0.0
 30
0.0
  3
block 13
  1

  0
SPLINE
  5
9D
330
99
100
AcDbEntity
  8
Layer 1
 62
   179
420
  2301728
370
     9
100
AcDbSpline
210
0.0
220
0.0
230
1.0
 70
    11
 71
     3
 72
    29
 73
    25
 74
     0
 42
0.0000000001
 43
0.0000000001
 12
1.0
 22
0.0
 32
0.0
 13
1.0
 23
0.0
 33
0.0
 40
0.0
 40
0.0
 40
0.0
 40
0.0
 40
1.0
 40
1.0
 40
1.0
 40
2.0
 40
2.0
 40
2.0
 40
3.0
 40
3.0
 40
3.0
 40
4.0
 40
4.0
 40
4.0
 40
5.0
 40
5.0
 40
5.0
 40
6.0
 40
6.0
 40
6.0
 40
7.0
 40
7.0
 40
7.0
 40
8.0
 40
8.0
 40
8.0
 40
8.0
 10
4.895765815078208
 20
-11.64999999999999
 30
0.0
 10
4.895765815078208
 20
-11.64999999999999
 30
0.0
 10
4.892362192508409
 20
-11.64999999999999
 30
0.0
 10
4.892362192508409
 20
-11.64999999999999
 30
0.0
 10
4.755230889470454
 20
-11.64999999999999
 30
0.0
 10
4.644064003793308
 20
-11.53883311432284
 30
0.0
 10
4.644064003793308
 20
-11.40170181128491
 30
0.0
 10
4.644064003793308
 20
-11.40170181128491
 30
0.0
 10
4.644064003793308
 20
-2.898298188715103
 30
0.0
 10
4.644064003793308
 20
-2.898298188715103
 30
0.0
 10
4.644064003793308
 20
-2.761166885677135
 30
0.0
 10
4.755230889470454
 20
-2.650000000000003
 30
0.0
 10
4.892362192508409
 20
-2.650000000000003
 30
0.0
 10
4.892362192508409
 20
-2.650000000000003
 30
0.0
 10
4.895765815078208
 20
-2.650000000000003
 30
0.0
 10
4.895765815078208
 20
-2.650000000000003
 30
0.0
 10
5.03289711811615
 20
-2.650000000000003
 30
0.0
 10
5.144064003793296
 20
-2.761166885677135
 30
0.0
 10
5.144064003793296
 20
-2.898298188715103
 30
0.0
 10
5.144064003793296
 20
-2.898298188715103
 30
0.0
 10
5.144064003793296
 20
-11.40170181128491
 30
0.0
 10
5.144064003793296
 20
-11.40170181128491
 30
0.0
 10
5.144064003793296
 20
-11.53883311432284
 30
0.0
 10
5.03289711811615
 20
-11.64999999999999
 30
0.0
 10
4.895765815078208
 20
-11.64999999999999
 30
0.0
  0
SPLINE
  5
9E
330
99
100
AcDbEntity
  8
Layer 1
 62
   179
420
  2301728
370
     9
100
AcDbSpline
210
0.0
220
0.0
230
1.0
 70
    11
 71
     3
 72
    17
 73
    13
 74
     0
 42
0.0000000001
 43
0.0000000001
 12
1.0
 22
0.0
 32
0.0
 13
1.0
 23
0.0
 33
0.0
 40
0.0
 40
0.0
 40
0.0
 40
0.0
 40
1.0
 40
1.0
 40
1.0
 40
2.0
 40
2.0
 40
2.0
 40
3.0
 40
3.0
 40
3.0
 40
4.0
 40
4.0
 40
4.0
 40
4.0
 10
4.96906400379329
 20
-2.900000000000003
 30
0.0
 10
4.96906400379329
 20
-2.941421356235019
 30
0.0
 10
4.9354853600283
 20
-2.974999999999997
 30
0.0
 10
4.894064003793308
 20
-2.974999999999997
 30
0.0
 10
4.852642647558292
 20
-2.974999999999997
 30
0.0
 10
4.819064003793301
 20
-2.941421356235019
 30
0.0
 10
4.819064003793301
 20
-2.900000000000003
 30
0.0
 10
4.819064003793301
 20
-2.858578643764986
 30
0.0
 10
4.852642647558292
 20
-2.825000000000007
 30
0.0
 10
4.894064003793308
 20
-2.825000000000007
 30
0.0
 10
4.9354853600283
 20
-2.825000000000007
 30
0.0
 10
4.96906400379329
 20
-2.858578643764986
 30
0.0
 10
4.96906400379329
 20
-2.900000000000003
 30
0.0
  0
SPLINE
  5
9F
330
99
100
AcDbEntity
  8
Layer 1
 62
   179
420
  2301728
370
     9
100
AcDbSpline
210
0.0
220
0.0
230
1.0
 70
    11
 71
     3
 72
    17
 73
    13
 74
     0
 42
0.0000000001
 43
0.0000000001
 12
1.0
 22
0.0
 32
0.0
 13
1.0
 23
0.0
 33
0.0
 40
0.0
 40
0.0
 40
0.0
 40
0.0
 40
1.0
 40
1.0
 40
1.0
 40
2.0
 40
2.0
 40
2.0
 40
3.0
 40
3.0
 40
3.0
 40
4.0
 40
4.0
 40
4.0
 40
4.0
 10
4.969064003793315
 20
-11.39999999999999
 30
0.0
 10
4.969064003793315
 20
-11.44142135623502
 30
0.0
 10
4.935485360028324
 20
-11.47500000000001
 30
0.0
 10
4.894064003793321
 20
-11.47500000000001
 30
0.0
 10
4.852642647558304
 20
-11.47500000000001
 30
0.0
 10
4.819064003793313
 20
-11.44142135623502
 30
0.0
 10
4.819064003793313
 20
-11.39999999999999
 30
0.0
 10
4.819064003793313
 20
-11.35857864376496
 30
0.0
 10
4.852642647558304
 20
-11.32500000000002
 30
0.0
 10
4.894064003793321
 20
-11.32500000000002
 30
0.0
 10
4.935485360028324
 20
-11.32500000000002
 30
0.0
 10
4.969064003793315
 20
-11.35857864376496
 30
0.0
 10
4.969064003793315
 20
-11.39999999999999
 30
0.0
  0
SPLINE
  5
A0
330
99
100
AcDbEntity
  8
Layer 1
 62
   179
420
  2301728
370
     9
100
AcDbSpline
210
0.0
220
0.0
230
1.0
 70
    11
 71
     3
 72
    17
 73
    13
 74
     0
 42
0.0000000001
 43
0.0000000001
 12
1.0
 22
0.0
 32
0.0
 13
1.0
 23
0.0
 33
0.0
 40
0.0
 40
0.0
 40
0.0
 40
0.0
 40
1.0
 40
1.0
 40
1.0
 40
2.0
 40
2.0
 40
2.0
 40
3.0
 40
3.0
 40
3.0
 40
4.0
 40
4.0
 40
4.0
 40
4.0
 10
4.96906400379329
 20
-7.150000000000002
 30
0.0
 10
4.96906400379329
 20
-7.191421356235018
 30
0.0
 10
4.9354853600283
 20
-7.225000000000009
 30
0.0
 10
4.894064003793308
 20
-7.225000000000009
 30
0.0
 10
4.852642647558292
 20
-7.225000000000009
 30
0.0
 10
4.819064003793301
 20
-7.191421356235018
 30
0.0
 10
4.819064003793301
 20
-7.150000000000002
 30
0.0
 10
4.819064003793301
 20
-7.108578643764986
 30
0.0
 10
4.852642647558292
 20
-7.075000000000007
 30
0.0
 10
4.894064003793308
 20
-7.075000000000007
 30
0.0
 10
4.9354853600283
 20
-7.075000000000007
 30
0.0
 10
4.96906400379329
 20
-7.108578643764986
 30
0.0
 10
4.96906400379329
 20
-7.150000000000002
 30
0.0
  0
ENDBLK
  5
9C
330
99
100
AcDbEntity
  8
0
100
AcDbBlockEnd
  0
BLOCK
  5
A3
330
A1
100
AcDbEntity
  8
0
100
AcDbBlockBegin
  2
block 14
 70
     0
 10
0.0
 20
0.0
 30
0.0
  3
block 14
  1

  0
SPLINE
  5
A5
330
A1
100
AcDbEntity
  8
Layer 1
 62
   179
420
  2301728
370
     9
100
AcDbSpline
210
0.0
220
0.0
230
1.0
 70
    11
 71
     3
 72
    29
 73
    25
 74
     0
 42
0.0000000001
 43
0.0000000001
 12
1.0
 22
0.0
 32
0.0
 13
1.0
 23
0.0
 33
0.0
 40
0.0
 40
0.0
 40
0.0
 40
0.0
 40
1.0
 40
1.0
 40
1.0
 40
2.0
 40
2.0
 40
2.0
 40
3.0
 40
3.0
 40
3.0
 40
4.0
 40
4.0
 40
4.0
 40
5.0
 40
5.0
 40
5.0
 40
6.0
 40
6.0
 40
6.0
 40
7.0
 40
7.0
 40
7.0
 40
8.0
 40
8.0
 40
8.0
 40
8.0
 10
4.340680724513959
 20
-11.64999999999999
 30
0.0
 10
4.340680724513959
 20
-11.64999999999999
 30
0.0
 10
4.337277101944159
 20
-11.64999999999999
 30
0.0
 10
4.337277101944159
 20
-11.64999999999999
 30
0.0
 10
4.200145798906204
 20
-11.64999999999999
 30
0.0
 10
4.088978913229059
 20
-11.53883311432284
 30
0.0
 10
4.088978913229059
 20
-11.40170181128491
 30
0.0
 10
4.088978913229059
 20
-11.40170181128491
 30
0.0
 10
4.088978913229059
 20
-2.898298188715103
 30
0.0
 10
4.088978913229059
 20
-2.898298188715103
 30
0.0
 10
4.088978913229059
 20
-2.761166885677135
 30
0.0
 10
4.200145798906204
 20
-2.650000000000003
 30
0.0
 10
4.337277101944159
 20
-2.650000000000003
 30
0.0
 10
4.337277101944159
 20
-2.650000000000003
 30
0.0
 10
4.340680724513959
 20
-2.650000000000003
 30
0.0
 10
4.340680724513959
 20
-2.650000000000003
 30
0.0
 10
4.4778120275519
 20
-2.650000000000003
 30
0.0
 10
4.588978913229046
 20
-2.761166885677135
 30
0.0
 10
4.588978913229046
 20
-2.898298188715103
 30
0.0
 10
4.588978913229046
 20
-2.898298188715103
 30
0.0
 10
4.588978913229046
 20
-11.40170181128491
 30
0.0
 10
4.588978913229046
 20
-11.40170181128491
 30
0.0
 10
4.588978913229046
 20
-11.53883311432284
 30
0.0
 10
4.4778120275519
 20
-11.64999999999999
 30
0.0
 10
4.340680724513959
 20
-11.64999999999999
 30
0.0
  0
SPLINE
  5
A6
330
A1
100
AcDbEntity
  8
Layer 1
 62
   179
420
  2301728
370
     9
100
AcDbSpline
210
0.0
220
0.0
230
1.0
 70
    11
 71
     3
 72
    17
 73
    13
 74
     0
 42
0.0000000001
 43
0.0000000001
 12
1.0
 22
0.0
 32
0.0
 13
1.0
 23
0.0
 33
0.0
 40
0.0
 40
0.0
 40
0.0
 40
0.0
 40
1.0
 40
1.0
 40
1.0
 40
2.0
 40
2.0
 40
2.0
 40
3.0
 40
3.0
 40
3.0
 40
4.0
 40
4.0
 40
4.0
 40
4.0
 10
4.413978913229041
 20
-2.900000000000003
 30
0.0
 10
4.413978913229041
 20
-2.941421356235019
 30
0.0
 10
4.38040026946405
 20
-2.974999999999997
 30
0.0
 10
4.338978913229059
 20
-2.974999999999997
 30
0.0
 10
4.297557556994042
 20
-2.974999999999997
 30
0.0
 10
4.263978913229051
 20
-2.941421356235019
 30
0.0
 10
4.263978913229051
 20
-2.900000000000003
 30
0.0
 10
4.263978913229051
 20
-2.858578643764986
 30
0.0
 10
4.297557556994042
 20
-2.825000000000007
 30
0.0
 10
4.338978913229059
 20
-2.825000000000007
 30
0.0
 10
4.38040026946405
 20
-2.825000000000007
 30
0.0
 10
4.413978913229041
 20
-2.858578643764986
 30
0.0
 10
4.413978913229041
 20
-2.900000000000003
 30
0.0
  0
SPLINE
  5
A7
330
A1
100
AcDbEntity
  8
Layer 1
 62
   179
420
  2301728
370
     9
100
AcDbSpline
210
0.0
220
0.0
230
1.0
 70
    11
 71
     3
 72
    17
 73
    13
 74
     0
 42
0.0000000001
 43
0.0000000001
 12
1.0
 22
0.0
 32
0.0
 13
1.0
 23
0.0
 33
0.0
 40
0.0
 40
0.0
 40
0.0
 40
0.0
 40
1.0
 40
1.0
 40
1.0
 40
2.0
 40
2.0
 40
2.0
 40
3.0
 40
3.0
 40
3.0
 40
4.0
 40
4.0
 40
4.0
 40
4.0
 10
4.413978913229067
 20
-11.39999999999999
 30
0.0
 10
4.413978913229067
 20
-11.44142135623502
 30
0.0
 10
4.380400269464076
 20
-11.47500000000001
 30
0.0
 10
4.338978913229072
 20
-11.47500000000001
 30
0.0
 10
4.297557556994055
 20
-11.47500000000001
 30
0.0
 10
4.263978913229064
 20
-11.44142135623502
 30
0.0
 10
4.263978913229064
 20
-11.39999999999999
 30
0.0
 10
4.263978913229064
 20
-11.35857864376496
 30
0.0
 10
4.297557556994055
 20
-11.32500000000002
 30
0.0
 10
4.338978913229072
 20
-11.32500000000002
 30
0.0
 10
4.380400269464076
 20
-11.32500000000002
 30
0.0
 10
4.413978913229067
 20
-11.35857864376496
 30
0.0
 10
4.413978913229067
 20
-11.39999999999999
 30
0.0
  0
SPLINE
  5
A8
330
A1
100
AcDbEntity
  8
Layer 1
 62
   179
420
  2301728
370
     9
100
AcDbSpline
210
0.0
220
0.0
230
1.0
 70
    11
 71
     3
 72
    17
 73
    13
 74
     0
 42
0.0000000001
 43
0.0000000001
 12
1.0
 22
0.0
 32
0.0
 13
1.0
 23
0.0
 33
0.0
 40
0.0
 40
0.0
 40
0.0
 40
0.0
 40
1.0
 40
1.0
 40
1.0
 40
2.0
 40
2.0
 40
2.0
 40
3.0
 40
3.0
 40
3.0
 40
4.0
 40
4.0
 40
4.0
 40
4.0
 10
4.413978913229041
 20
-7.150000000000002
 30
0.0
 10
4.413978913229041
 20
-7.191421356235018
 30
0.0
 10
4.38040026946405
 20
-7.225000000000009
 30
0.0
 10
4.338978913229059
 20
-7.225000000000009
 30
0.0
 10
4.297557556994042
 20
-7.225000000000009
 30
0.0
 10
4.263978913229051
 20
-7.191421356235018
 30
0.0
 10
4.263978913229051
 20
-7.150000000000002
 30
0.0
 10
4.263978913229051
 20
-7.108578643764986
 30
0.0
 10
4.297557556994042
 20
-7.075000000000007
 30
0.0
 10
4.338978913229059
 20
-7.075000000000007
 30
0.0
 10
4.38040026946405
 20
-7.075000000000007
 30
0.0
 10
4.413978913229041
 20
-7.108578643764986
 30
0.0
 10
4.413978913229041
 20
-7.150000000000002
 30
0.0
  0
ENDBLK
  5
A4
330
A1
100
AcDbEntity
  8
0
100
AcDbBlockEnd
  0
BLOCK
  5
AB
330
A9
100
AcDbEntity
  8
0
100
AcDbBlockBegin
  2
block 15
 70
     0
 10
0.0
 20
0.0
 30
0.0
  3
block 15
  1

  0
SPLINE
  5
AD
330
A9
100
AcDbEntity
  8
Layer 1
 62
   179
420
  2301728
370
     9
100
AcDbSpline
210
0.0
220
0.0
230
1.0
 70
    11
 71
     3
 72
    29
 73
    25
 74
     0
 42
0.0000000001
 43
0.0000000001
 12
1.0
 22
0.0
 32
0.0
 13
1.0
 23
0.0
 33
0.0
 40
0.0
 40
0.0
 40
0.0
 40
0.0
 40
1.0
 40
1.0
 40
1.0
 40
2.0
 40
2.0
 40
2.0
 40
3.0
 40
3.0
 40
3.0
 40
4.0
 40
4.0
 40
4.0
 40
5.0
 40
5.0
 40
5.0
 40
6.0
 40
6.0
 40
6.0
 40
7.0
 40
7.0
 40
7.0
 40
8.0
 40
8.0
 40
8.0
 40
8.0
 10
3.785595633949722
 20
-11.64999999999999
 30
0.0
 10
3.785595633949722
 20
-11.64999999999999
 30
0.0
 10
3.782192011379923
 20
-11.64999999999999
 30
0.0
 10
3.782192011379923
 20
-11.64999999999999
 30
0.0
 10
3.645060708341968
 20
-11.64999999999999
 30
0.0
 10
3.533893822664822
 20
-11.53883311432284
 30
0.0
 10
3.533893822664822
 20
-11.40170181128491
 30
0.0
 10
3.533893822664822
 20
-11.40170181128491
 30
0.0
 10
3.533893822664822
 20
-2.898298188715103
 30
0.0
 10
3.533893822664822
 20
-2.898298188715103
 30
0.0
 10
3.533893822664822
 20
-2.761166885677135
 30
0.0
 10
3.645060708341968
 20
-2.650000000000003
 30
0.0
 10
3.782192011379923
 20
-2.650000000000003
 30
0.0
 10
3.782192011379923
 20
-2.650000000000003
 30
0.0
 10
3.785595633949722
 20
-2.650000000000003
 30
0.0
 10
3.785595633949722
 20
-2.650000000000003
 30
0.0
 10
3.922726936987651
 20
-2.650000000000003
 30
0.0
 10
4.033893822664797
 20
-2.761166885677135
 30
0.0
 10
4.033893822664797
 20
-2.898298188715103
 30
0.0
 10
4.033893822664797
 20
-2.898298188715103
 30
0.0
 10
4.033893822664797
 20
-11.40170181128491
 30
0.0
 10
4.033893822664797
 20
-11.40170181128491
 30
0.0
 10
4.033893822664797
 20
-11.53883311432284
 30
0.0
 10
3.922726936987651
 20
-11.64999999999999
 30
0.0
 10
3.785595633949722
 20
-11.64999999999999
 30
0.0
  0
SPLINE
  5
AE
330
A9
100
AcDbEntity
  8
Layer 1
 62
   179
420
  2301728
370
     9
100
AcDbSpline
210
0.0
220
0.0
230
1.0
 70
    11
 71
     3
 72
    17
 73
    13
 74
     0
 42
0.0000000001
 43
0.0000000001
 12
1.0
 22
0.0
 32
0.0
 13
1.0
 23
0.0
 33
0.0
 40
0.0
 40
0.0
 40
0.0
 40
0.0
 40
1.0
 40
1.0
 40
1.0
 40
2.0
 40
2.0
 40
2.0
 40
3.0
 40
3.0
 40
3.0
 40
4.0
 40
4.0
 40
4.0
 40
4.0
 10
3.858893822664792
 20
-2.900000000000003
 30
0.0
 10
3.858893822664792
 20
-2.941421356235019
 30
0.0
 10
3.825315178899801
 20
-2.974999999999997
 30
0.0
 10
3.783893822664822
 20
-2.974999999999997
 30
0.0
 10
3.742472466429793
 20
-2.974999999999997
 30
0.0
 10
3.708893822664802
 20
-2.941421356235019
 30
0.0
 10
3.708893822664802
 20
-2.900000000000003
 30
0.0
 10
3.708893822664802
 20
-2.858578643764986
 30
0.0
 10
3.742472466429793
 20
-2.825000000000007
 30
0.0
 10
3.783893822664822
 20
-2.825000000000007
 30
0.0
 10
3.825315178899801
 20
-2.825000000000007
 30
0.0
 10
3.858893822664792
 20
-2.858578643764986
 30
0.0
 10
3.858893822664792
 20
-2.900000000000003
 30
0.0
  0
SPLINE
  5
AF
330
A9
100
AcDbEntity
  8
Layer 1
 62
   179
420
  2301728
370
     9
100
AcDbSpline
210
0.0
220
0.0
230
1.0
 70
    11
 71
     3
 72
    17
 73
    13
 74
     0
 42
0.0000000001
 43
0.0000000001
 12
1.0
 22
0.0
 32
0.0
 13
1.0
 23
0.0
 33
0.0
 40
0.0
 40
0.0
 40
0.0
 40
0.0
 40
1.0
 40
1.0
 40
1.0
 40
2.0
 40
2.0
 40
2.0
 40
3.0
 40
3.0
 40
3.0
 40
4.0
 40
4.0
 40
4.0
 40
4.0
 10
3.858893822664817
 20
-11.39999999999999
 30
0.0
 10
3.858893822664817
 20
-11.44142135623502
 30
0.0
 10
3.825315178899826
 20
-11.47500000000001
 30
0.0
 10
3.783893822664822
 20
-11.47500000000001
 30
0.0
 10
3.742472466429818
 20
-11.47500000000001
 30
0.0
 10
3.708893822664827
 20
-11.44142135623502
 30
0.0
 10
3.708893822664827
 20
-11.39999999999999
 30
0.0
 10
3.708893822664827
 20
-11.35857864376496
 30
0.0
 10
3.742472466429818
 20
-11.32500000000002
 30
0.0
 10
3.783893822664822
 20
-11.32500000000002
 30
0.0
 10
3.825315178899826
 20
-11.32500000000002
 30
0.0
 10
3.858893822664817
 20
-11.35857864376496
 30
0.0
 10
3.858893822664817
 20
-11.39999999999999
 30
0.0
  0
SPLINE
  5
B0
330
A9
100
AcDbEntity
  8
Layer 1
 62
   179
420
  2301728
370
     9
100
AcDbSpline
210
0.0
220
0.0
230
1.0
 70
    11
 71
     3
 72
    17
 73
    13
 74
     0
 42
0.0000000001
 43
0.0000000001
 12
1.0
 22
0.0
 32
0.0
 13
1.0
 23
0.0
 33
0.0
 40
0.0
 40
0.0
 40
0.0
 40
0.0
 40
1.0
 40
1.0
 40
1.0
 40
2.0
 40
2.0
 40
2.0
 40
3.0
 40
3.0
 40
3.0
 40
4.0
 40
4.0
 40
4.0
 40
4.0
 10
3.858893822664792
 20
-7.150000000000002
 30
0.0
 10
3.858893822664792
 20
-7.191421356235018
 30
0.0
 10
3.825315178899801
 20
-7.225000000000009
 30
0.0
 10
3.783893822664822
 20
-7.225000000000009
 30
0.0
 10
3.742472466429793
 20
-7.225000000000009
 30
0.0
 10
3.708893822664802
 20
-7.191421356235018
 30
0.0
 10
3.708893822664802
 20
-7.150000000000002
 30
0.0
 10
3.708893822664802
 20
-7.108578643764986
 30
0.0
 10
3.742472466429793
 20
-7.075000000000007
 30
0.0
 10
3.783893822664822
 20
-7.075000000000007
 30
0.0
 10
3.825315178899801
 20
-7.075000000000007
 30
0.0
 10
3.858893822664792
 20
-7.108578643764986
 30
0.0
 10
3.858893822664792
 20
-7.150000000000002
 30
0.0
  0
ENDBLK
  5
AC
330
A9
100
AcDbEntity
  8
0
100
AcDbBlockEnd
  0
BLOCK
  5
B3
330
B1
100
AcDbEntity
  8
0
100
AcDbBlockBegin
  2
block 16
 70
     0
 10
0.0
 20
0.0
 30
0.0
  3
block 16
  1

  0
SPLINE
  5
B5
330
B1
100
AcDbEntity
  8
Layer 1
 62
   179
420
  2301728
370
     9
100
AcDbSpline
210
0.0
220
0.0
230
1.0
 70
    11
 71
     3
 72
    29
 73
    25
 74
     0
 42
0.0000000001
 43
0.0000000001
 12
1.0
 22
0.0
 32
0.0
 13
1.0
 23
0.0
 33
0.0
 40
0.0
 40
0.0
 40
0.0
 40
0.0
 40
1.0
 40
1.0
 40
1.0
 40
2.0
 40
2.0
 40
2.0
 40
3.0
 40
3.0
 40
3.0
 40
4.0
 40
4.0
 40
4.0
 40
5.0
 40
5.0
 40
5.0
 40
6.0
 40
6.0
 40
6.0
 40
7.0
 40
7.0
 40
7.0
 40
8.0
 40
8.0
 40
8.0
 40
8.0
 10
3.230510543385473
 20
-11.64999999999999
 30
0.0
 10
3.230510543385473
 20
-11.64999999999999
 30
0.0
 10
3.227106920815673
 20
-11.64999999999999
 30
0.0
 10
3.227106920815673
 20
-11.64999999999999
 30
0.0
 10
3.089975617777718
 20
-11.64999999999999
 30
0.0
 10
2.978808732100573
 20
-11.53883311432284
 30
0.0
 10
2.978808732100573
 20
-11.40170181128491
 30
0.0
 10
2.978808732100573
 20
-11.40170181128491
 30
0.0
 10
2.978808732100573
 20
-2.898298188715103
 30
0.0
 10
2.978808732100573
 20
-2.898298188715103
 30
0.0
 10
2.978808732100573
 20
-2.761166885677135
 30
0.0
 10
3.089975617777718
 20
-2.650000000000003
 30
0.0
 10
3.227106920815673
 20
-2.650000000000003
 30
0.0
 10
3.227106920815673
 20
-2.650000000000003
 30
0.0
 10
3.230510543385473
 20
-2.650000000000003
 30
0.0
 10
3.230510543385473
 20
-2.650000000000003
 30
0.0
 10
3.367641846423415
 20
-2.650000000000003
 30
0.0
 10
3.478808732100561
 20
-2.761166885677135
 30
0.0
 10
3.478808732100561
 20
-2.898298188715103
 30
0.0
 10
3.478808732100561
 20
-2.898298188715103
 30
0.0
 10
3.478808732100561
 20
-11.40170181128491
 30
0.0
 10
3.478808732100561
 20
-11.40170181128491
 30
0.0
 10
3.478808732100561
 20
-11.53883311432284
 30
0.0
 10
3.367641846423415
 20
-11.64999999999999
 30
0.0
 10
3.230510543385473
 20
-11.64999999999999
 30
0.0
  0
SPLINE
  5
B6
330
B1
100
AcDbEntity
  8
Layer 1
 62
   179
420
  2301728
370
     9
100
AcDbSpline
210
0.0
220
0.0
230
1.0
 70
    11
 71
     3
 72
    17
 73
    13
 74
     0
 42
0.0000000001
 43
0.0000000001
 12
1.0
 22
0.0
 32
0.0
 13
1.0
 23
0.0
 33
0.0
 40
0.0
 40
0.0
 40
0.0
 40
0.0
 40
1.0
 40
1.0
 40
1.0
 40
2.0
 40
2.0
 40
2.0
 40
3.0
 40
3.0
 40
3.0
 40
4.0
 40
4.0
 40
4.0
 40
4.0
 10
3.303808732100555
 20
-2.900000000000003
 30
0.0
 10
3.303808732100555
 20
-2.941421356235019
 30
0.0
 10
3.270230088335564
 20
-2.974999999999997
 30
0.0
 10
3.228808732100573
 20
-2.974999999999997
 30
0.0
 10
3.187387375865556
 20
-2.974999999999997
 30
0.0
 10
3.153808732100565
 20
-2.941421356235019
 30
0.0
 10
3.153808732100565
 20
-2.900000000000003
 30
0.0
 10
3.153808732100565
 20
-2.858578643764986
 30
0.0
 10
3.187387375865556
 20
-2.825000000000007
 30
0.0
 10
3.228808732100573
 20
-2.825000000000007
 30
0.0
 10
3.270230088335564
 20
-2.825000000000007
 30
0.0
 10
3.303808732100555
 20
-2.858578643764986
 30
0.0
 10
3.303808732100555
 20
-2.900000000000003
 30
0.0
  0
SPLINE
  5
B7
330
B1
100
AcDbEntity
  8
Layer 1
 62
   179
420
  2301728
370
     9
100
AcDbSpline
210
0.0
220
0.0
230
1.0
 70
    11
 71
     3
 72
    17
 73
    13
 74
     0
 42
0.0000000001
 43
0.0000000001
 12
1.0
 22
0.0
 32
0.0
 13
1.0
 23
0.0
 33
0.0
 40
0.0
 40
0.0
 40
0.0
 40
0.0
 40
1.0
 40
1.0
 40
1.0
 40
2.0
 40
2.0
 40
2.0
 40
3.0
 40
3.0
 40
3.0
 40
4.0
 40
4.0
 40
4.0
 40
4.0
 10
3.303808732100581
 20
-11.39999999999999
 30
0.0
 10
3.303808732100581
 20
-11.44142135623502
 30
0.0
 10
3.27023008833559
 20
-11.47500000000001
 30
0.0
 10
3.228808732100585
 20
-11.47500000000001
 30
0.0
 10
3.187387375865569
 20
-11.47500000000001
 30
0.0
 10
3.153808732100578
 20
-11.44142135623502
 30
0.0
 10
3.153808732100578
 20
-11.39999999999999
 30
0.0
 10
3.153808732100578
 20
-11.35857864376496
 30
0.0
 10
3.187387375865569
 20
-11.32500000000002
 30
0.0
 10
3.228808732100585
 20
-11.32500000000002
 30
0.0
 10
3.27023008833559
 20
-11.32500000000002
 30
0.0
 10
3.303808732100581
 20
-11.35857864376496
 30
0.0
 10
3.303808732100581
 20
-11.39999999999999
 30
0.0
  0
SPLINE
  5
B8
330
B1
100
AcDbEntity
  8
Layer 1
 62
   179
420
  2301728
370
     9
100
AcDbSpline
210
0.0
220
0.0
230
1.0
 70
    11
 71
     3
 72
    17
 73
    13
 74
     0
 42
0.0000000001
 43
0.0000000001
 12
1.0
 22
0.0
 32
0.0
 13
1.0
 23
0.0
 33
0.0
 40
0.0
 40
0.0
 40
0.0
 40
0.0
 40
1.0
 40
1.0
 40
1.0
 40
2.0
 40
2.0
 40
2.0
 40
3.0
 40
3.0
 40
3.0
 40
4.0
 40
4.0
 40
4.0
 40
4.0
 10
3.303808732100555
 20
-7.150000000000002
 30
0.0
 10
3.303808732100555
 20
-7.191421356235018
 30
0.0
 10
3.270230088335564
 20
-7.225000000000009
 30
0.0
 10
3.228808732100573
 20
-7.225000000000009
 30
0.0
 10
3.187387375865556
 20
-7.225000000000009
 30
0.0
 10
3.153808732100565
 20
-7.191421356235018
 30
0.0
 10
3.153808732100565
 20
-7.150000000000002
 30
0.0
 10
3.153808732100565
 20
-7.108578643764986
 30
0.0
 10
3.187387375865556
 20
-7.075000000000007
 30
0.0
 10
3.228808732100573
 20
-7.075000000000007
 30
0.0
 10
3.270230088335564
 20
-7.075000000000007
 30
0.0
 10
3.303808732100555
 20
-7.108578643764986
 30
0.0
 10
3.303808732100555
 20
-7.150000000000002
 30
0.0
  0
ENDBLK
  5
B4
330
B1
100
AcDbEntity
  8
0
100
AcDbBlockEnd
  0
BLOCK
  5
BB
330
B9
100
AcDbEntity
  8
0
100
AcDbBlockBegin
  2
block 17
 70
     0
 10
0.0
 20
0.0
 30
0.0
  3
block 17
  1

  0
SPLINE
  5
BD
330
B9
100
AcDbEntity
  8
Layer 1
 62
   179
420
  2301728
370
     9
100
AcDbSpline
210
0.0
220
0.0
230
1.0
 70
    11
 71
     3
 72
    29
 73
    25
 74
     0
 42
0.0000000001
 43
0.0000000001
 12
1.0
 22
0.0
 32
0.0
 13
1.0
 23
0.0
 33
0.0
 40
0.0
 40
0.0
 40
0.0
 40
0.0
 40
1.0
 40
1.0
 40
1.0
 40
2.0
 40
2.0
 40
2.0
 40
3.0
 40
3.0
 40
3.0
 40
4.0
 40
4.0
 40
4.0
 40
5.0
 40
5.0
 40
5.0
 40
6.0
 40
6.0
 40
6.0
 40
7.0
 40
7.0
 40
7.0
 40
8.0
 40
8.0
 40
8.0
 40
8.0
 10
11.00170181128492
 20
-11.64999999999999
 30
0.0
 10
11.00170181128492
 20
-11.64999999999999
 30
0.0
 10
10.99829818871513
 20
-11.64999999999999
 30
0.0
 10
10.99829818871513
 20
-11.64999999999999
 30
0.0
 10
10.86116688567714
 20
-11.64999999999999
 30
0.0
 10
10.75
 20
-11.53883311432284
 30
0.0
 10
10.75
 20
-11.40170181128491
 30
0.0
 10
10.75
 20
-11.40170181128491
 30
0.0
 10
10.75
 20
-2.898298188715103
 30
0.0
 10
10.75
 20
-2.898298188715103
 30
0.0
 10
10.75
 20
-2.761166885677135
 30
0.0
 10
10.86116688567714
 20
-2.650000000000003
 30
0.0
 10
10.99829818871513
 20
-2.650000000000003
 30
0.0
 10
10.99829818871513
 20
-2.650000000000003
 30
0.0
 10
11.00170181128492
 20
-2.650000000000003
 30
0.0
 10
11.00170181128492
 20
-2.650000000000003
 30
0.0
 10
11.13883311432285
 20
-2.650000000000003
 30
0.0
 10
11.25
 20
-2.761166885677135
 30
0.0
 10
11.25
 20
-2.898298188715103
 30
0.0
 10
11.25
 20
-2.898298188715103
 30
0.0
 10
11.25
 20
-11.40170181128491
 30
0.0
 10
11.25
 20
-11.40170181128491
 30
0.0
 10
11.25
 20
-11.53883311432284
 30
0.0
 10
11.13883311432285
 20
-11.64999999999999
 30
0.0
 10
11.00170181128492
 20
-11.64999999999999
 30
0.0
  0
SPLINE
  5
BE
330
B9
100
AcDbEntity
  8
Layer 1
 62
   179
420
  2301728
370
     9
100
AcDbSpline
210
0.0
220
0.0
230
1.0
 70
    11
 71
     3
 72
    17
 73
    13
 74
     0
 42
0.0000000001
 43
0.0000000001
 12
1.0
 22
0.0
 32
0.0
 13
1.0
 23
0.0
 33
0.0
 40
0.0
 40
0.0
 40
0.0
 40
0.0
 40
1.0
 40
1.0
 40
1.0
 40
2.0
 40
2.0
 40
2.0
 40
3.0
 40
3.0
 40
3.0
 40
4.0
 40
4.0
 40
4.0
 40
4.0
 10
11.07499999999999
 20
-2.900000000000003
 30
0.0
 10
11.07499999999999
 20
-2.941421356235019
 30
0.0
 10
11.041421356235
 20
-2.974999999999997
 30
0.0
 10
11.0
 20
-2.974999999999997
 30
0.0
 10
10.958578643765
 20
-2.974999999999997
 30
0.0
 10
10.925
 20
-2.941421356235019
 30
0.0
 10
10.925
 20
-2.900000000000003
 30
0.0
 10
10.925
 20
-2.858578643764986
 30
0.0
 10
10.958578643765
 20
-2.825000000000007
 30
0.0
 10
11.0
 20
-2.825000000000007
 30
0.0
 10
11.041421356235
 20
-2.825000000000007
 30
0.0
 10
11.07499999999999
 20
-2.858578643764986
 30
0.0
 10
11.07499999999999
 20
-2.900000000000003
 30
0.0
  0
SPLINE
  5
BF
330
B9
100
AcDbEntity
  8
Layer 1
 62
   179
420
  2301728
370
     9
100
AcDbSpline
210
0.0
220
0.0
230
1.0
 70
    11
 71
     3
 72
    17
 73
    13
 74
     0
 42
0.0000000001
 43
0.0000000001
 12
1.0
 22
0.0
 32
0.0
 13
1.0
 23
0.0
 33
0.0
 40
0.0
 40
0.0
 40
0.0
 40
0.0
 40
1.0
 40
1.0
 40
1.0
 40
2.0
 40
2.0
 40
2.0
 40
3.0
 40
3.0
 40
3.0
 40
4.0
 40
4.0
 40
4.0
 40
4.0
 10
11.07500000000002
 20
-11.39999999999999
 30
0.0
 10
11.07500000000002
 20
-11.44142135623502
 30
0.0
 10
11.04142135623503
 20
-11.47500000000001
 30
0.0
 10
11.00000000000002
 20
-11.47500000000001
 30
0.0
 10
10.95857864376502
 20
-11.47500000000001
 30
0.0
 10
10.92500000000003
 20
-11.44142135623502
 30
0.0
 10
10.92500000000003
 20
-11.39999999999999
 30
0.0
 10
10.92500000000003
 20
-11.35857864376496
 30
0.0
 10
10.95857864376502
 20
-11.32500000000002
 30
0.0
 10
11.00000000000002
 20
-11.32500000000002
 30
0.0
 10
11.04142135623503
 20
-11.32500000000002
 30
0.0
 10
11.07500000000002
 20
-11.35857864376496
 30
0.0
 10
11.07500000000002
 20
-11.39999999999999
 30
0.0
  0
SPLINE
  5
C0
330
B9
100
AcDbEntity
  8
Layer 1
 62
   179
420
  2301728
370
     9
100
AcDbSpline
210
0.0
220
0.0
230
1.0
 70
    11
 71
     3
 72
    17
 73
    13
 74
     0
 42
0.0000000001
 43
0.0000000001
 12
1.0
 22
0.0
 32
0.0
 13
1.0
 23
0.0
 33
0.0
 40
0.0
 40
0.0
 40
0.0
 40
0.0
 40
1.0
 40
1.0
 40
1.0
 40
2.0
 40
2.0
 40
2.0
 40
3.0
 40
3.0
 40
3.0
 40
4.0
 40
4.0
 40
4.0
 40
4.0
 10
11.07499999999999
 20
-7.150000000000002
 30
0.0
 10
11.07499999999999
 20
-7.191421356235018
 30
0.0
 10
11.041421356235
 20
-7.225000000000009
 30
0.0
 10
11.0
 20
-7.225000000000009
 30
0.0
 10
10.958578643765
 20
-7.225000000000009
 30
0.0
 10
10.925
 20
-7.191421356235018
 30
0.0
 10
10.925
 20
-7.150000000000002
 30
0.0
 10
10.925
 20
-7.108578643764986
 30
0.0
 10
10.958578643765
 20
-7.075000000000007
 30
0.0
 10
11.0
 20
-7.075000000000007
 30
0.0
 10
11.041421356235
 20
-7.075000000000007
 30
0.0
 10
11.07499999999999
 20
-7.108578643764986
 30
0.0
 10
11.07499999999999
 20
-7.150000000000002
 30
0.0
  0
ENDBLK
  5
BC
330
B9
100
AcDbEntity
  8
0
100
AcDbBlockEnd
  0
BLOCK
  5
C3
330
C1
100
AcDbEntity
  8
0
100
AcDbBlockBegin
  2
block 18
 70
     0
 10
0.0
 20
0.0
 30
0.0
  3
block 18
  1

  0
SPLINE
  5
C5
330
C1
100
AcDbEntity
  8
Layer 1
 62
   179
420
  2301728
370
     9
100
AcDbSpline
210
0.0
220
0.0
230
1.0
 70
    11
 71
     3
 72
    29
 73
    25
 74
     0
 42
0.0000000001
 43
0.0000000001
 12
1.0
 22
0.0
 32
0.0
 13
1.0
 23
0.0
 33
0.0
 40
0.0
 40
0.0
 40
0.0
 40
0.0
 40
1.0
 40
1.0
 40
1.0
 40
2.0
 40
2.0
 40
2.0
 40
3.0
 40
3.0
 40
3.0
 40
4.0
 40
4.0
 40
4.0
 40
5.0
 40
5.0
 40
5.0
 40
6.0
 40
6.0
 40
6.0
 40
7.0
 40
7.0
 40
7.0
 40
8.0
 40
8.0
 40
8.0
 40
8.0
 10
10.44661672072066
 20
-11.64999999999999
 30
0.0
 10
10.44661672072066
 20
-11.64999999999999
 30
0.0
 10
10.44321309815086
 20
-11.64999999999999
 30
0.0
 10
10.44321309815086
 20
-11.64999999999999
 30
0.0
 10
10.30608179511291
 20
-11.64999999999999
 30
0.0
 10
10.19491490943576
 20
-11.53883311432284
 30
0.0
 10
10.19491490943576
 20
-11.40170181128491
 30
0.0
 10
10.19491490943576
 20
-11.40170181128491
 30
0.0
 10
10.19491490943576
 20
-2.898298188715103
 30
0.0
 10
10.19491490943576
 20
-2.898298188715103
 30
0.0
 10
10.19491490943576
 20
-2.761166885677135
 30
0.0
 10
10.30608179511291
 20
-2.650000000000003
 30
0.0
 10
10.44321309815086
 20
-2.650000000000003
 30
0.0
 10
10.44321309815086
 20
-2.650000000000003
 30
0.0
 10
10.44661672072066
 20
-2.650000000000003
 30
0.0
 10
10.44661672072066
 20
-2.650000000000003
 30
0.0
 10
10.58374802375862
 20
-2.650000000000003
 30
0.0
 10
10.69491490943576
 20
-2.761166885677135
 30
0.0
 10
10.69491490943576
 20
-2.898298188715103
 30
0.0
 10
10.69491490943576
 20
-2.898298188715103
 30
0.0
 10
10.69491490943576
 20
-11.40170181128491
 30
0.0
 10
10.69491490943576
 20
-11.40170181128491
 30
0.0
 10
10.69491490943576
 20
-11.53883311432284
 30
0.0
 10
10.58374802375862
 20
-11.64999999999999
 30
0.0
 10
10.44661672072066
 20
-11.64999999999999
 30
0.0
  0
SPLINE
  5
C6
330
C1
100
AcDbEntity
  8
Layer 1
 62
   179
420
  2301728
370
     9
100
AcDbSpline
210
0.0
220
0.0
230
1.0
 70
    11
 71
     3
 72
    17
 73
    13
 74
     0
 42
0.0000000001
 43
0.0000000001
 12
1.0
 22
0.0
 32
0.0
 13
1.0
 23
0.0
 33
0.0
 40
0.0
 40
0.0
 40
0.0
 40
0.0
 40
1.0
 40
1.0
 40
1.0
 40
2.0
 40
2.0
 40
2.0
 40
3.0
 40
3.0
 40
3.0
 40
4.0
 40
4.0
 40
4.0
 40
4.0
 10
10.51991490943576
 20
-2.900000000000003
 30
0.0
 10
10.51991490943576
 20
-2.941421356235019
 30
0.0
 10
10.48633626567077
 20
-2.974999999999997
 30
0.0
 10
10.44491490943576
 20
-2.974999999999997
 30
0.0
 10
10.40349355320076
 20
-2.974999999999997
 30
0.0
 10
10.36991490943577
 20
-2.941421356235019
 30
0.0
 10
10.36991490943577
 20
-2.900000000000003
 30
0.0
 10
10.36991490943577
 20
-2.858578643764986
 30
0.0
 10
10.40349355320076
 20
-2.825000000000007
 30
0.0
 10
10.44491490943576
 20
-2.825000000000007
 30
0.0
 10
10.48633626567077
 20
-2.825000000000007
 30
0.0
 10
10.51991490943576
 20
-2.858578643764986
 30
0.0
 10
10.51991490943576
 20
-2.900000000000003
 30
0.0
  0
SPLINE
  5
C7
330
C1
100
AcDbEntity
  8
Layer 1
 62
   179
420
  2301728
370
     9
100
AcDbSpline
210
0.0
220
0.0
230
1.0
 70
    11
 71
     3
 72
    17
 73
    13
 74
     0
 42
0.0000000001
 43
0.0000000001
 12
1.0
 22
0.0
 32
0.0
 13
1.0
 23
0.0
 33
0.0
 40
0.0
 40
0.0
 40
0.0
 40
0.0
 40
1.0
 40
1.0
 40
1.0
 40
2.0
 40
2.0
 40
2.0
 40
3.0
 40
3.0
 40
3.0
 40
4.0
 40
4.0
 40
4.0
 40
4.0
 10
10.51991490943578
 20
-11.39999999999999
 30
0.0
 10
10.51991490943578
 20
-11.44142135623502
 30
0.0
 10
10.48633626567079
 20
-11.47500000000001
 30
0.0
 10
10.44491490943579
 20
-11.47500000000001
 30
0.0
 10
10.40349355320076
 20
-11.47500000000001
 30
0.0
 10
10.36991490943577
 20
-11.44142135623502
 30
0.0
 10
10.36991490943577
 20
-11.39999999999999
 30
0.0
 10
10.36991490943577
 20
-11.35857864376496
 30
0.0
 10
10.40349355320076
 20
-11.32500000000002
 30
0.0
 10
10.44491490943579
 20
-11.32500000000002
 30
0.0
 10
10.48633626567079
 20
-11.32500000000002
 30
0.0
 10
10.51991490943578
 20
-11.35857864376496
 30
0.0
 10
10.51991490943578
 20
-11.39999999999999
 30
0.0
  0
SPLINE
  5
C8
330
C1
100
AcDbEntity
  8
Layer 1
 62
   179
420
  2301728
370
     9
100
AcDbSpline
210
0.0
220
0.0
230
1.0
 70
    11
 71
     3
 72
    17
 73
    13
 74
     0
 42
0.0000000001
 43
0.0000000001
 12
1.0
 22
0.0
 32
0.0
 13
1.0
 23
0.0
 33
0.0
 40
0.0
 40
0.0
 40
0.0
 40
0.0
 40
1.0
 40
1.0
 40
1.0
 40
2.0
 40
2.0
 40
2.0
 40
3.0
 40
3.0
 40
3.0
 40
4.0
 40
4.0
 40
4.0
 40
4.0
 10
10.51991490943576
 20
-7.150000000000002
 30
0.0
 10
10.51991490943576
 20
-7.191421356235018
 30
0.0
 10
10.48633626567077
 20
-7.225000000000009
 30
0.0
 10
10.44491490943576
 20
-7.225000000000009
 30
0.0
 10
10.40349355320076
 20
-7.225000000000009
 30
0.0
 10
10.36991490943577
 20
-7.191421356235018
 30
0.0
 10
10.36991490943577
 20
-7.150000000000002
 30
0.0
 10
10.36991490943577
 20
-7.108578643764986
 30
0.0
 10
10.40349355320076
 20
-7.075000000000007
 30
0.0
 10
10.44491490943576
 20
-7.075000000000007
 30
0.0
 10
10.48633626567077
 20
-7.075000000000007
 30
0.0
 10
10.51991490943576
 20
-7.108578643764986
 30
0.0
 10
10.51991490943576
 20
-7.150000000000002
 30
0.0
  0
ENDBLK
  5
C4
330
C1
100
AcDbEntity
  8
0
100
AcDbBlockEnd
  0
BLOCK
  5
CB
330
C9
100
AcDbEntity
  8
0
100
AcDbBlockBegin
  2
block 19
 70
     0
 10
0.0
 20
0.0
 30
0.0
  3
block 19
  1

  0
SPLINE
  5
CD
330
C9
100
AcDbEntity
  8
Layer 1
 62
   179
420
  2301728
370
     9
100
AcDbSpline
210
0.0
220
0.0
230
1.0
 70
    11
 71
     3
 72
    29
 73
    25
 74
     0
 42
0.0000000001
 43
0.0000000001
 12
1.0
 22
0.0
 32
0.0
 13
1.0
 23
0.0
 33
0.0
 40
0.0
 40
0.0
 40
0.0
 40
0.0
 40
1.0
 40
1.0
 40
1.0
 40
2.0
 40
2.0
 40
2.0
 40
3.0
 40
3.0
 40
3.0
 40
4.0
 40
4.0
 40
4.0
 40
5.0
 40
5.0
 40
5.0
 40
6.0
 40
6.0
 40
6.0
 40
7.0
 40
7.0
 40
7.0
 40
8.0
 40
8.0
 40
8.0
 40
8.0
 10
9.8915316301564
 20
-11.64999999999999
 30
0.0
 10
9.8915316301564
 20
-11.64999999999999
 30
0.0
 10
9.888128007586602
 20
-11.64999999999999
 30
0.0
 10
9.888128007586602
 20
-11.64999999999999
 30
0.0
 10
9.750996704548646
 20
-11.64999999999999
 30
0.0
 10
9.639829818871501
 20
-11.53883311432284
 30
0.0
 10
9.639829818871501
 20
-11.40170181128491
 30
0.0
 10
9.639829818871501
 20
-11.40170181128491
 30
0.0
 10
9.639829818871501
 20
-2.898298188715103
 30
0.0
 10
9.639829818871501
 20
-2.898298188715103
 30
0.0
 10
9.639829818871501
 20
-2.761166885677135
 30
0.0
 10
9.750996704548646
 20
-2.650000000000003
 30
0.0
 10
9.888128007586602
 20
-2.650000000000003
 30
0.0
 10
9.888128007586602
 20
-2.650000000000003
 30
0.0
 10
9.8915316301564
 20
-2.650000000000003
 30
0.0
 10
9.8915316301564
 20
-2.650000000000003
 30
0.0
 10
10.02866293319433
 20
-2.650000000000003
 30
0.0
 10
10.13982981887148
 20
-2.761166885677135
 30
0.0
 10
10.13982981887148
 20
-2.898298188715103
 30
0.0
 10
10.13982981887148
 20
-2.898298188715103
 30
0.0
 10
10.13982981887148
 20
-11.40170181128491
 30
0.0
 10
10.13982981887148
 20
-11.40170181128491
 30
0.0
 10
10.13982981887148
 20
-11.53883311432284
 30
0.0
 10
10.02866293319433
 20
-11.64999999999999
 30
0.0
 10
9.8915316301564
 20
-11.64999999999999
 30
0.0
  0
SPLINE
  5
CE
330
C9
100
AcDbEntity
  8
Layer 1
 62
   179
420
  2301728
370
     9
100
AcDbSpline
210
0.0
220
0.0
230
1.0
 70
    11
 71
     3
 72
    17
 73
    13
 74
     0
 42
0.0000000001
 43
0.0000000001
 12
1.0
 22
0.0
 32
0.0
 13
1.0
 23
0.0
 33
0.0
 40
0.0
 40
0.0
 40
0.0
 40
0.0
 40
1.0
 40
1.0
 40
1.0
 40
2.0
 40
2.0
 40
2.0
 40
3.0
 40
3.0
 40
3.0
 40
4.0
 40
4.0
 40
4.0
 40
4.0
 10
9.96482981887147
 20
-2.900000000000003
 30
0.0
 10
9.96482981887147
 20
-2.941421356235019
 30
0.0
 10
9.93125117510648
 20
-2.974999999999997
 30
0.0
 10
9.889829818871501
 20
-2.974999999999997
 30
0.0
 10
9.848408462636472
 20
-2.974999999999997
 30
0.0
 10
9.81482981887148
 20
-2.941421356235019
 30
0.0
 10
9.81482981887148
 20
-2.900000000000003
 30
0.0
 10
9.81482981887148
 20
-2.858578643764986
 30
0.0
 10
9.848408462636472
 20
-2.825000000000007
 30
0.0
 10
9.889829818871501
 20
-2.825000000000007
 30
0.0
 10
9.93125117510648
 20
-2.825000000000007
 30
0.0
 10
9.96482981887147
 20
-2.858578643764986
 30
0.0
 10
9.96482981887147
 20
-2.900000000000003
 30
0.0
  0
SPLINE
  5
CF
330
C9
100
AcDbEntity
  8
Layer 1
 62
   179
420
  2301728
370
     9
100
AcDbSpline
210
0.0
220
0.0
230
1.0
 70
    11
 71
     3
 72
    17
 73
    13
 74
     0
 42
0.0000000001
 43
0.0000000001
 12
1.0
 22
0.0
 32
0.0
 13
1.0
 23
0.0
 33
0.0
 40
0.0
 40
0.0
 40
0.0
 40
0.0
 40
1.0
 40
1.0
 40
1.0
 40
2.0
 40
2.0
 40
2.0
 40
3.0
 40
3.0
 40
3.0
 40
4.0
 40
4.0
 40
4.0
 40
4.0
 10
9.964829818871495
 20
-11.39999999999999
 30
0.0
 10
9.964829818871495
 20
-11.44142135623502
 30
0.0
 10
9.931251175106505
 20
-11.47500000000001
 30
0.0
 10
9.889829818871501
 20
-11.47500000000001
 30
0.0
 10
9.848408462636497
 20
-11.47500000000001
 30
0.0
 10
9.814829818871505
 20
-11.44142135623502
 30
0.0
 10
9.814829818871505
 20
-11.39999999999999
 30
0.0
 10
9.814829818871505
 20
-11.35857864376496
 30
0.0
 10
9.848408462636497
 20
-11.32500000000002
 30
0.0
 10
9.889829818871501
 20
-11.32500000000002
 30
0.0
 10
9.931251175106505
 20
-11.32500000000002
 30
0.0
 10
9.964829818871495
 20
-11.35857864376496
 30
0.0
 10
9.964829818871495
 20
-11.39999999999999
 30
0.0
  0
SPLINE
  5
D0
330
C9
100
AcDbEntity
  8
Layer 1
 62
   179
420
  2301728
370
     9
100
AcDbSpline
210
0.0
220
0.0
230
1.0
 70
    11
 71
     3
 72
    17
 73
    13
 74
     0
 42
0.0000000001
 43
0.0000000001
 12
1.0
 22
0.0
 32
0.0
 13
1.0
 23
0.0
 33
0.0
 40
0.0
 40
0.0
 40
0.0
 40
0.0
 40
1.0
 40
1.0
 40
1.0
 40
2.0
 40
2.0
 40
2.0
 40
3.0
 40
3.0
 40
3.0
 40
4.0
 40
4.0
 40
4.0
 40
4.0
 10
9.96482981887147
 20
-7.150000000000002
 30
0.0
 10
9.96482981887147
 20
-7.191421356235018
 30
0.0
 10
9.93125117510648
 20
-7.225000000000009
 30
0.0
 10
9.889829818871501
 20
-7.225000000000009
 30
0.0
 10
9.848408462636472
 20
-7.225000000000009
 30
0.0
 10
9.81482981887148
 20
-7.191421356235018
 30
0.0
 10
9.81482981887148
 20
-7.150000000000002
 30
0.0
 10
9.81482981887148
 20
-7.108578643764986
 30
0.0
 10
9.848408462636472
 20
-7.075000000000007
 30
0.0
 10
9.889829818871501
 20
-7.075000000000007
 30
0.0
 10
9.93125117510648
 20
-7.075000000000007
 30
0.0
 10
9.96482981887147
 20
-7.108578643764986
 30
0.0
 10
9.96482981887147
 20
-7.150000000000002
 30
0.0
  0
ENDBLK
  5
CC
330
C9
100
AcDbEntity
  8
0
100
AcDbBlockEnd
  0
BLOCK
  5
D3
330
D1
100
AcDbEntity
  8
0
100
AcDbBlockBegin
  2
block 20
 70
     0
 10
0.0
 20
0.0
 30
0.0
  3
block 20
  1

  0
SPLINE
  5
D5
330
D1
100
AcDbEntity
  8
Layer 1
 62
   179
420
  2301728
370
     9
100
AcDbSpline
210
0.0
220
0.0
230
1.0
 70
    11
 71
     3
 72
    29
 73
    25
 74
     0
 42
0.0000000001
 43
0.0000000001
 12
1.0
 22
0.0
 32
0.0
 13
1.0
 23
0.0
 33
0.0
 40
0.0
 40
0.0
 40
0.0
 40
0.0
 40
1.0
 40
1.0
 40
1.0
 40
2.0
 40
2.0
 40
2.0
 40
3.0
 40
3.0
 40
3.0
 40
4.0
 40
4.0
 40
4.0
 40
5.0
 40
5.0
 40
5.0
 40
6.0
 40
6.0
 40
6.0
 40
7.0
 40
7.0
 40
7.0
 40
8.0
 40
8.0
 40
8.0
 40
8.0
 10
9.336446539592163
 20
-11.64999999999999
 30
0.0
 10
9.336446539592163
 20
-11.64999999999999
 30
0.0
 10
9.333042917022365
 20
-11.64999999999999
 30
0.0
 10
9.333042917022365
 20
-11.64999999999999
 30
0.0
 10
9.195911613984409
 20
-11.64999999999999
 30
0.0
 10
9.084744728307264
 20
-11.53883311432284
 30
0.0
 10
9.084744728307264
 20
-11.40170181128491
 30
0.0
 10
9.084744728307264
 20
-11.40170181128491
 30
0.0
 10
9.084744728307264
 20
-2.898298188715103
 30
0.0
 10
9.084744728307264
 20
-2.898298188715103
 30
0.0
 10
9.084744728307264
 20
-2.761166885677135
 30
0.0
 10
9.195911613984409
 20
-2.650000000000003
 30
0.0
 10
9.333042917022365
 20
-2.650000000000003
 30
0.0
 10
9.333042917022365
 20
-2.650000000000003
 30
0.0
 10
9.336446539592163
 20
-2.650000000000003
 30
0.0
 10
9.336446539592163
 20
-2.650000000000003
 30
0.0
 10
9.47357784263012
 20
-2.650000000000003
 30
0.0
 10
9.584744728307264
 20
-2.761166885677135
 30
0.0
 10
9.584744728307264
 20
-2.898298188715103
 30
0.0
 10
9.584744728307264
 20
-2.898298188715103
 30
0.0
 10
9.584744728307264
 20
-11.40170181128491
 30
0.0
 10
9.584744728307264
 20
-11.40170181128491
 30
0.0
 10
9.584744728307264
 20
-11.53883311432284
 30
0.0
 10
9.47357784263012
 20
-11.64999999999999
 30
0.0
 10
9.336446539592163
 20
-11.64999999999999
 30
0.0
  0
SPLINE
  5
D6
330
D1
100
AcDbEntity
  8
Layer 1
 62
   179
420
  2301728
370
     9
100
AcDbSpline
210
0.0
220
0.0
230
1.0
 70
    11
 71
     3
 72
    17
 73
    13
 74
     0
 42
0.0000000001
 43
0.0000000001
 12
1.0
 22
0.0
 32
0.0
 13
1.0
 23
0.0
 33
0.0
 40
0.0
 40
0.0
 40
0.0
 40
0.0
 40
1.0
 40
1.0
 40
1.0
 40
2.0
 40
2.0
 40
2.0
 40
3.0
 40
3.0
 40
3.0
 40
4.0
 40
4.0
 40
4.0
 40
4.0
 10
9.40974472830726
 20
-2.900000000000003
 30
0.0
 10
9.40974472830726
 20
-2.941421356235019
 30
0.0
 10
9.376166084542268
 20
-2.974999999999997
 30
0.0
 10
9.334744728307264
 20
-2.974999999999997
 30
0.0
 10
9.29332337207226
 20
-2.974999999999997
 30
0.0
 10
9.25974472830727
 20
-2.941421356235019
 30
0.0
 10
9.25974472830727
 20
-2.900000000000003
 30
0.0
 10
9.25974472830727
 20
-2.858578643764986
 30
0.0
 10
9.29332337207226
 20
-2.825000000000007
 30
0.0
 10
9.334744728307264
 20
-2.825000000000007
 30
0.0
 10
9.376166084542268
 20
-2.825000000000007
 30
0.0
 10
9.40974472830726
 20
-2.858578643764986
 30
0.0
 10
9.40974472830726
 20
-2.900000000000003
 30
0.0
  0
SPLINE
  5
D7
330
D1
100
AcDbEntity
  8
Layer 1
 62
   179
420
  2301728
370
     9
100
AcDbSpline
210
0.0
220
0.0
230
1.0
 70
    11
 71
     3
 72
    17
 73
    13
 74
     0
 42
0.0000000001
 43
0.0000000001
 12
1.0
 22
0.0
 32
0.0
 13
1.0
 23
0.0
 33
0.0
 40
0.0
 40
0.0
 40
0.0
 40
0.0
 40
1.0
 40
1.0
 40
1.0
 40
2.0
 40
2.0
 40
2.0
 40
3.0
 40
3.0
 40
3.0
 40
4.0
 40
4.0
 40
4.0
 40
4.0
 10
9.409744728307285
 20
-11.39999999999999
 30
0.0
 10
9.409744728307285
 20
-11.44142135623502
 30
0.0
 10
9.376166084542293
 20
-11.47500000000001
 30
0.0
 10
9.334744728307289
 20
-11.47500000000001
 30
0.0
 10
9.29332337207226
 20
-11.47500000000001
 30
0.0
 10
9.25974472830727
 20
-11.44142135623502
 30
0.0
 10
9.25974472830727
 20
-11.39999999999999
 30
0.0
 10
9.25974472830727
 20
-11.35857864376496
 30
0.0
 10
9.29332337207226
 20
-11.32500000000002
 30
0.0
 10
9.334744728307289
 20
-11.32500000000002
 30
0.0
 10
9.376166084542293
 20
-11.32500000000002
 30
0.0
 10
9.409744728307285
 20
-11.35857864376496
 30
0.0
 10
9.409744728307285
 20
-11.39999999999999
 30
0.0
  0
SPLINE
  5
D8
330
D1
100
AcDbEntity
  8
Layer 1
 62
   179
420
  2301728
370
     9
100
AcDbSpline
210
0.0
220
0.0
230
1.0
 70
    11
 71
     3
 72
    17
 73
    13
 74
     0
 42
0.0000000001
 43
0.0000000001
 12
1.0
 22
0.0
 32
0.0
 13
1.0
 23
0.0
 33
0.0
 40
0.0
 40
0.0
 40
0.0
 40
0.0
 40
1.0
 40
1.0
 40
1.0
 40
2.0
 40
2.0
 40
2.0
 40
3.0
 40
3.0
 40
3.0
 40
4.0
 40
4.0
 40
4.0
 40
4.0
 10
9.40974472830726
 20
-7.150000000000002
 30
0.0
 10
9.40974472830726
 20
-7.191421356235018
 30
0.0
 10
9.376166084542268
 20
-7.225000000000009
 30
0.0
 10
9.334744728307264
 20
-7.225000000000009
 30
0.0
 10
9.29332337207226
 20
-7.225000000000009
 30
0.0
 10
9.25974472830727
 20
-7.191421356235018
 30
0.0
 10
9.25974472830727
 20
-7.150000000000002
 30
0.0
 10
9.25974472830727
 20
-7.108578643764986
 30
0.0
 10
9.29332337207226
 20
-7.075000000000007
 30
0.0
 10
9.334744728307264
 20
-7.075000000000007
 30
0.0
 10
9.376166084542268
 20
-7.075000000000007
 30
0.0
 10
9.40974472830726
 20
-7.108578643764986
 30
0.0
 10
9.40974472830726
 20
-7.150000000000002
 30
0.0
  0
ENDBLK
  5
D4
330
D1
100
AcDbEntity
  8
0
100
AcDbBlockEnd
  0
BLOCK
  5
DB
330
D9
100
AcDbEntity
  8
0
100
AcDbBlockBegin
  2
block 21
 70
     0
 10
0.0
 20
0.0
 30
0.0
  3
block 21
  1

  0
SPLINE
  5
DD
330
D9
100
AcDbEntity
  8
Layer 1
 62
   179
420
  2301728
370
     9
100
AcDbSpline
210
0.0
220
0.0
230
1.0
 70
    11
 71
     3
 72
    29
 73
    25
 74
     0
 42
0.0000000001
 43
0.0000000001
 12
1.0
 22
0.0
 32
0.0
 13
1.0
 23
0.0
 33
0.0
 40
0.0
 40
0.0
 40
0.0
 40
0.0
 40
1.0
 40
1.0
 40
1.0
 40
2.0
 40
2.0
 40
2.0
 40
3.0
 40
3.0
 40
3.0
 40
4.0
 40
4.0
 40
4.0
 40
5.0
 40
5.0
 40
5.0
 40
6.0
 40
6.0
 40
6.0
 40
7.0
 40
7.0
 40
7.0
 40
8.0
 40
8.0
 40
8.0
 40
8.0
 10
8.781361449027928
 20
-11.64999999999999
 30
0.0
 10
8.781361449027928
 20
-11.64999999999999
 30
0.0
 10
8.777957826458127
 20
-11.64999999999999
 30
0.0
 10
8.777957826458127
 20
-11.64999999999999
 30
0.0
 10
8.640826523420174
 20
-11.64999999999999
 30
0.0
 10
8.529659637743027
 20
-11.53883311432284
 30
0.0
 10
8.529659637743027
 20
-11.40170181128491
 30
0.0
 10
8.529659637743027
 20
-11.40170181128491
 30
0.0
 10
8.529659637743027
 20
-2.898298188715103
 30
0.0
 10
8.529659637743027
 20
-2.898298188715103
 30
0.0
 10
8.529659637743027
 20
-2.761166885677135
 30
0.0
 10
8.640826523420174
 20
-2.650000000000003
 30
0.0
 10
8.777957826458127
 20
-2.650000000000003
 30
0.0
 10
8.777957826458127
 20
-2.650000000000003
 30
0.0
 10
8.781361449027928
 20
-2.650000000000003
 30
0.0
 10
8.781361449027928
 20
-2.650000000000003
 30
0.0
 10
8.918492752065857
 20
-2.650000000000003
 30
0.0
 10
9.029659637743002
 20
-2.761166885677135
 30
0.0
 10
9.029659637743002
 20
-2.898298188715103
 30
0.0
 10
9.029659637743002
 20
-2.898298188715103
 30
0.0
 10
9.029659637743002
 20
-11.40170181128491
 30
0.0
 10
9.029659637743002
 20
-11.40170181128491
 30
0.0
 10
9.029659637743002
 20
-11.53883311432284
 30
0.0
 10
8.918492752065857
 20
-11.64999999999999
 30
0.0
 10
8.781361449027928
 20
-11.64999999999999
 30
0.0
  0
SPLINE
  5
DE
330
D9
100
AcDbEntity
  8
Layer 1
 62
   179
420
  2301728
370
     9
100
AcDbSpline
210
0.0
220
0.0
230
1.0
 70
    11
 71
     3
 72
    17
 73
    13
 74
     0
 42
0.0000000001
 43
0.0000000001
 12
1.0
 22
0.0
 32
0.0
 13
1.0
 23
0.0
 33
0.0
 40
0.0
 40
0.0
 40
0.0
 40
0.0
 40
1.0
 40
1.0
 40
1.0
 40
2.0
 40
2.0
 40
2.0
 40
3.0
 40
3.0
 40
3.0
 40
4.0
 40
4.0
 40
4.0
 40
4.0
 10
8.854659637742998
 20
-2.900000000000003
 30
0.0
 10
8.854659637742998
 20
-2.941421356235019
 30
0.0
 10
8.821080993978006
 20
-2.974999999999997
 30
0.0
 10
8.779659637743027
 20
-2.974999999999997
 30
0.0
 10
8.738238281507998
 20
-2.974999999999997
 30
0.0
 10
8.704659637743008
 20
-2.941421356235019
 30
0.0
 10
8.704659637743008
 20
-2.900000000000003
 30
0.0
 10
8.704659637743008
 20
-2.858578643764986
 30
0.0
 10
8.738238281507998
 20
-2.825000000000007
 30
0.0
 10
8.779659637743027
 20
-2.825000000000007
 30
0.0
 10
8.821080993978006
 20
-2.825000000000007
 30
0.0
 10
8.854659637742998
 20
-2.858578643764986
 30
0.0
 10
8.854659637742998
 20
-2.900000000000003
 30
0.0
  0
SPLINE
  5
DF
330
D9
100
AcDbEntity
  8
Layer 1
 62
   179
420
  2301728
370
     9
100
AcDbSpline
210
0.0
220
0.0
230
1.0
 70
    11
 71
     3
 72
    17
 73
    13
 74
     0
 42
0.0000000001
 43
0.0000000001
 12
1.0
 22
0.0
 32
0.0
 13
1.0
 23
0.0
 33
0.0
 40
0.0
 40
0.0
 40
0.0
 40
0.0
 40
1.0
 40
1.0
 40
1.0
 40
2.0
 40
2.0
 40
2.0
 40
3.0
 40
3.0
 40
3.0
 40
4.0
 40
4.0
 40
4.0
 40
4.0
 10
8.854659637743023
 20
-11.39999999999999
 30
0.0
 10
8.854659637743023
 20
-11.44142135623502
 30
0.0
 10
8.821080993978033
 20
-11.47500000000001
 30
0.0
 10
8.779659637743027
 20
-11.47500000000001
 30
0.0
 10
8.738238281508023
 20
-11.47500000000001
 30
0.0
 10
8.704659637743033
 20
-11.44142135623502
 30
0.0
 10
8.704659637743033
 20
-11.39999999999999
 30
0.0
 10
8.704659637743033
 20
-11.35857864376496
 30
0.0
 10
8.738238281508023
 20
-11.32500000000002
 30
0.0
 10
8.779659637743027
 20
-11.32500000000002
 30
0.0
 10
8.821080993978033
 20
-11.32500000000002
 30
0.0
 10
8.854659637743023
 20
-11.35857864376496
 30
0.0
 10
8.854659637743023
 20
-11.39999999999999
 30
0.0
  0
SPLINE
  5
E0
330
D9
100
AcDbEntity
  8
Layer 1
 62
   179
420
  2301728
370
     9
100
AcDbSpline
210
0.0
220
0.0
230
1.0
 70
    11
 71
     3
 72
    17
 73
    13
 74
     0
 42
0.0000000001
 43
0.0000000001
 12
1.0
 22
0.0
 32
0.0
 13
1.0
 23
0.0
 33
0.0
 40
0.0
 40
0.0
 40
0.0
 40
0.0
 40
1.0
 40
1.0
 40
1.0
 40
2.0
 40
2.0
 40
2.0
 40
3.0
 40
3.0
 40
3.0
 40
4.0
 40
4.0
 40
4.0
 40
4.0
 10
8.854659637742998
 20
-7.150000000000002
 30
0.0
 10
8.854659637742998
 20
-7.191421356235018
 30
0.0
 10
8.821080993978006
 20
-7.225000000000009
 30
0.0
 10
8.779659637743027
 20
-7.225000000000009
 30
0.0
 10
8.738238281507998
 20
-7.225000000000009
 30
0.0
 10
8.704659637743008
 20
-7.191421356235018
 30
0.0
 10
8.704659637743008
 20
-7.150000000000002
 30
0.0
 10
8.704659637743008
 20
-7.108578643764986
 30
0.0
 10
8.738238281507998
 20
-7.075000000000007
 30
0.0
 10
8.779659637743027
 20
-7.075000000000007
 30
0.0
 10
8.821080993978006
 20
-7.075000000000007
 30
0.0
 10
8.854659637742998
 20
-7.108578643764986
 30
0.0
 10
8.854659637742998
 20
-7.150000000000002
 30
0.0
  0
ENDBLK
  5
DC
330
D9
100
AcDbEntity
  8
0
100
AcDbBlockEnd
  0
BLOCK
  5
E3
330
E1
100
AcDbEntity
  8
0
100
AcDbBlockBegin
  2
block 22
 70
     0
 10
0.0
 20
0.0
 30
0.0
  3
block 22
  1

  0
SPLINE
  5
E5
330
E1
100
AcDbEntity
  8
Layer 1
 62
   179
420
  2301728
370
     9
100
AcDbSpline
210
0.0
220
0.0
230
1.0
 70
    11
 71
     3
 72
    29
 73
    25
 74
     0
 42
0.0000000001
 43
0.0000000001
 12
1.0
 22
0.0
 32
0.0
 13
1.0
 23
0.0
 33
0.0
 40
0.0
 40
0.0
 40
0.0
 40
0.0
 40
1.0
 40
1.0
 40
1.0
 40
2.0
 40
2.0
 40
2.0
 40
3.0
 40
3.0
 40
3.0
 40
4.0
 40
4.0
 40
4.0
 40
5.0
 40
5.0
 40
5.0
 40
6.0
 40
6.0
 40
6.0
 40
7.0
 40
7.0
 40
7.0
 40
8.0
 40
8.0
 40
8.0
 40
8.0
 10
5.450850905642457
 20
-11.64999999999999
 30
0.0
 10
5.450850905642457
 20
-11.64999999999999
 30
0.0
 10
5.447447283072657
 20
-11.64999999999999
 30
0.0
 10
5.447447283072657
 20
-11.64999999999999
 30
0.0
 10
5.310315980034702
 20
-11.64999999999999
 30
0.0
 10
5.199149094357558
 20
-11.53883311432284
 30
0.0
 10
5.199149094357558
 20
-11.40170181128491
 30
0.0
 10
5.199149094357558
 20
-11.40170181128491
 30
0.0
 10
5.199149094357558
 20
-2.898298188715103
 30
0.0
 10
5.199149094357558
 20
-2.898298188715103
 30
0.0
 10
5.199149094357558
 20
-2.761166885677135
 30
0.0
 10
5.310315980034702
 20
-2.650000000000003
 30
0.0
 10
5.447447283072657
 20
-2.650000000000003
 30
0.0
 10
5.447447283072657
 20
-2.650000000000003
 30
0.0
 10
5.450850905642457
 20
-2.650000000000003
 30
0.0
 10
5.450850905642457
 20
-2.650000000000003
 30
0.0
 10
5.587982208680387
 20
-2.650000000000003
 30
0.0
 10
5.699149094357532
 20
-2.761166885677135
 30
0.0
 10
5.699149094357532
 20
-2.898298188715103
 30
0.0
 10
5.699149094357532
 20
-2.898298188715103
 30
0.0
 10
5.699149094357532
 20
-11.40170181128491
 30
0.0
 10
5.699149094357532
 20
-11.40170181128491
 30
0.0
 10
5.699149094357532
 20
-11.53883311432284
 30
0.0
 10
5.587982208680387
 20
-11.64999999999999
 30
0.0
 10
5.450850905642457
 20
-11.64999999999999
 30
0.0
  0
SPLINE
  5
E6
330
E1
100
AcDbEntity
  8
Layer 1
 62
   179
420
  2301728
370
     9
100
AcDbSpline
210
0.0
220
0.0
230
1.0
 70
    11
 71
     3
 72
    17
 73
    13
 74
     0
 42
0.0000000001
 43
0.0000000001
 12
1.0
 22
0.0
 32
0.0
 13
1.0
 23
0.0
 33
0.0
 40
0.0
 40
0.0
 40
0.0
 40
0.0
 40
1.0
 40
1.0
 40
1.0
 40
2.0
 40
2.0
 40
2.0
 40
3.0
 40
3.0
 40
3.0
 40
4.0
 40
4.0
 40
4.0
 40
4.0
 10
5.524149094357527
 20
-2.900000000000003
 30
0.0
 10
5.524149094357527
 20
-2.941421356235019
 30
0.0
 10
5.490570450592537
 20
-2.974999999999997
 30
0.0
 10
5.449149094357558
 20
-2.974999999999997
 30
0.0
 10
5.407727738122528
 20
-2.974999999999997
 30
0.0
 10
5.374149094357537
 20
-2.941421356235019
 30
0.0
 10
5.374149094357537
 20
-2.900000000000003
 30
0.0
 10
5.374149094357537
 20
-2.858578643764986
 30
0.0
 10
5.407727738122528
 20
-2.825000000000007
 30
0.0
 10
5.449149094357558
 20
-2.825000000000007
 30
0.0
 10
5.490570450592537
 20
-2.825000000000007
 30
0.0
 10
5.524149094357527
 20
-2.858578643764986
 30
0.0
 10
5.524149094357527
 20
-2.900000000000003
 30
0.0
  0
SPLINE
  5
E7
330
E1
100
AcDbEntity
  8
Layer 1
 62
   179
420
  2301728
370
     9
100
AcDbSpline
210
0.0
220
0.0
230
1.0
 70
    11
 71
     3
 72
    17
 73
    13
 74
     0
 42
0.0000000001
 43
0.0000000001
 12
1.0
 22
0.0
 32
0.0
 13
1.0
 23
0.0
 33
0.0
 40
0.0
 40
0.0
 40
0.0
 40
0.0
 40
1.0
 40
1.0
 40
1.0
 40
2.0
 40
2.0
 40
2.0
 40
3.0
 40
3.0
 40
3.0
 40
4.0
 40
4.0
 40
4.0
 40
4.0
 10
5.524149094357552
 20
-11.39999999999999
 30
0.0
 10
5.524149094357552
 20
-11.44142135623502
 30
0.0
 10
5.490570450592561
 20
-11.47500000000001
 30
0.0
 10
5.449149094357558
 20
-11.47500000000001
 30
0.0
 10
5.407727738122554
 20
-11.47500000000001
 30
0.0
 10
5.374149094357563
 20
-11.44142135623502
 30
0.0
 10
5.374149094357563
 20
-11.39999999999999
 30
0.0
 10
5.374149094357563
 20
-11.35857864376496
 30
0.0
 10
5.407727738122554
 20
-11.32500000000002
 30
0.0
 10
5.449149094357558
 20
-11.32500000000002
 30
0.0
 10
5.490570450592561
 20
-11.32500000000002
 30
0.0
 10
5.524149094357552
 20
-11.35857864376496
 30
0.0
 10
5.524149094357552
 20
-11.39999999999999
 30
0.0
  0
SPLINE
  5
E8
330
E1
100
AcDbEntity
  8
Layer 1
 62
   179
420
  2301728
370
     9
100
AcDbSpline
210
0.0
220
0.0
230
1.0
 70
    11
 71
     3
 72
    17
 73
    13
 74
     0
 42
0.0000000001
 43
0.0000000001
 12
1.0
 22
0.0
 32
0.0
 13
1.0
 23
0.0
 33
0.0
 40
0.0
 40
0.0
 40
0.0
 40
0.0
 40
1.0
 40
1.0
 40
1.0
 40
2.0
 40
2.0
 40
2.0
 40
3.0
 40
3.0
 40
3.0
 40
4.0
 40
4.0
 40
4.0
 40
4.0
 10
5.524149094357527
 20
-7.150000000000002
 30
0.0
 10
5.524149094357527
 20
-7.191421356235018
 30
0.0
 10
5.490570450592537
 20
-7.225000000000009
 30
0.0
 10
5.449149094357558
 20
-7.225000000000009
 30
0.0
 10
5.407727738122528
 20
-7.225000000000009
 30
0.0
 10
5.374149094357537
 20
-7.191421356235018
 30
0.0
 10
5.374149094357537
 20
-7.150000000000002
 30
0.0
 10
5.374149094357537
 20
-7.108578643764986
 30
0.0
 10
5.407727738122528
 20
-7.075000000000007
 30
0.0
 10
5.449149094357558
 20
-7.075000000000007
 30
0.0
 10
5.490570450592537
 20
-7.075000000000007
 30
0.0
 10
5.524149094357527
 20
-7.108578643764986
 30
0.0
 10
5.524149094357527
 20
-7.150000000000002
 30
0.0
  0
ENDBLK
  5
E4
330
E1
100
AcDbEntity
  8
0
100
AcDbBlockEnd
  0
BLOCK
  5
EB
330
E9
100
AcDbEntity
  8
0
100
AcDbBlockBegin
  2
block 23
 70
     0
 10
0.0
 20
0.0
 30
0.0
  3
block 23
  1

  0
SPLINE
  5
ED
330
E9
100
AcDbEntity
  8
Layer 1
 62
   179
420
  2301728
370
     9
100
AcDbSpline
210
0.0
220
0.0
230
1.0
 70
    11
 71
     3
 72
    29
 73
    25
 74
     0
 42
0.0000000001
 43
0.0000000001
 12
1.0
 22
0.0
 32
0.0
 13
1.0
 23
0.0
 33
0.0
 40
0.0
 40
0.0
 40
0.0
 40
0.0
 40
1.0
 40
1.0
 40
1.0
 40
2.0
 40
2.0
 40
2.0
 40
3.0
 40
3.0
 40
3.0
 40
4.0
 40
4.0
 40
4.0
 40
5.0
 40
5.0
 40
5.0
 40
6.0
 40
6.0
 40
6.0
 40
7.0
 40
7.0
 40
7.0
 40
8.0
 40
8.0
 40
8.0
 40
8.0
 10
8.67499999999998
 20
-12.09829818871508
 30
0.0
 10
8.67499999999998
 20
-12.09829818871508
 30
0.0
 10
8.67499999999998
 20
-12.10170181128488
 30
0.0
 10
8.67499999999998
 20
-12.10170181128488
 30
0.0
 10
8.67499999999998
 20
-12.23883311432286
 30
0.0
 10
8.563833114322835
 20
-12.35000000000001
 30
0.0
 10
8.426701811284904
 20
-12.35000000000001
 30
0.0
 10
8.426701811284904
 20
-12.35000000000001
 30
0.0
 10
-0.0767018112848948
 20
-12.35000000000001
 30
0.0
 10
-0.0767018112848948
 20
-12.35000000000001
 30
0.0
 10
-0.2138331143228621
 20
-12.35000000000001
 30
0.0
 10
-0.3249999999999949
 20
-12.23883311432286
 30
0.0
 10
-0.3249999999999949
 20
-12.10170181128488
 30
0.0
 10
-0.3249999999999949
 20
-12.10170181128488
 30
0.0
 10
-0.3249999999999949
 20
-12.09829818871508
 30
0.0
 10
-0.3249999999999949
 20
-12.09829818871508
 30
0.0
 10
-0.3249999999999949
 20
-11.96116688567716
 30
0.0
 10
-0.2138331143228621
 20
-11.85000000000001
 30
0.0
 10
-0.0767018112848948
 20
-11.85000000000001
 30
0.0
 10
-0.0767018112848948
 20
-11.85000000000001
 30
0.0
 10
8.426701811284904
 20
-11.85000000000001
 30
0.0
 10
8.426701811284904
 20
-11.85000000000001
 30
0.0
 10
8.563833114322835
 20
-11.85000000000001
 30
0.0
 10
8.67499999999998
 20
-11.96116688567716
 30
0.0
 10
8.67499999999998
 20
-12.09829818871508
 30
0.0
  0
SPLINE
  5
EE
330
E9
100
AcDbEntity
  8
Layer 1
 62
   179
420
  2301728
370
     9
100
AcDbSpline
210
0.0
220
0.0
230
1.0
 70
    11
 71
     3
 72
    17
 73
    13
 74
     0
 42
0.0000000001
 43
0.0000000001
 12
1.0
 22
0.0
 32
0.0
 13
1.0
 23
0.0
 33
0.0
 40
0.0
 40
0.0
 40
0.0
 40
0.0
 40
1.0
 40
1.0
 40
1.0
 40
2.0
 40
2.0
 40
2.0
 40
3.0
 40
3.0
 40
3.0
 40
4.0
 40
4.0
 40
4.0
 40
4.0
 10
-0.0749999999999949
 20
-12.02500000000001
 30
0.0
 10
-0.0335786437649782
 20
-12.02500000000001
 30
0.0
 10
0.0
 20
-12.058578643765
 30
0.0
 10
0.0
 20
-12.10000000000001
 30
0.0
 10
0.0
 20
-12.14142135623501
 30
0.0
 10
-0.0335786437649782
 20
-12.175
 30
0.0
 10
-0.0749999999999949
 20
-12.175
 30
0.0
 10
-0.1164213562350116
 20
-12.175
 30
0.0
 10
-0.1499999999999899
 20
-12.14142135623501
 30
0.0
 10
-0.1499999999999899
 20
-12.10000000000001
 30
0.0
 10
-0.1499999999999899
 20
-12.058578643765
 30
0.0
 10
-0.1164213562350116
 20
-12.02500000000001
 30
0.0
 10
-0.0749999999999949
 20
-12.02500000000001
 30
0.0
  0
SPLINE
  5
EF
330
E9
100
AcDbEntity
  8
Layer 1
 62
   179
420
  2301728
370
     9
100
AcDbSpline
210
0.0
220
0.0
230
1.0
 70
    11
 71
     3
 72
    17
 73
    13
 74
     0
 42
0.0000000001
 43
0.0000000001
 12
1.0
 22
0.0
 32
0.0
 13
1.0
 23
0.0
 33
0.0
 40
0.0
 40
0.0
 40
0.0
 40
0.0
 40
1.0
 40
1.0
 40
1.0
 40
2.0
 40
2.0
 40
2.0
 40
3.0
 40
3.0
 40
3.0
 40
4.0
 40
4.0
 40
4.0
 40
4.0
 10
8.42499999999998
 20
-12.02499999999999
 30
0.0
 10
8.466421356235008
 20
-12.02499999999999
 30
0.0
 10
8.5
 20
-12.05857864376498
 30
0.0
 10
8.5
 20
-12.09999999999998
 30
0.0
 10
8.5
 20
-12.14142135623499
 30
0.0
 10
8.466421356235008
 20
-12.17499999999998
 30
0.0
 10
8.42499999999998
 20
-12.17499999999998
 30
0.0
 10
8.38357864376495
 20
-12.17499999999998
 30
0.0
 10
8.35000000000001
 20
-12.14142135623499
 30
0.0
 10
8.35000000000001
 20
-12.09999999999998
 30
0.0
 10
8.35000000000001
 20
-12.05857864376498
 30
0.0
 10
8.38357864376495
 20
-12.02499999999999
 30
0.0
 10
8.42499999999998
 20
-12.02499999999999
 30
0.0
  0
SPLINE
  5
F0
330
E9
100
AcDbEntity
  8
Layer 1
 62
   179
420
  2301728
370
     9
100
AcDbSpline
210
0.0
220
0.0
230
1.0
 70
    11
 71
     3
 72
    17
 73
    13
 74
     0
 42
0.0000000001
 43
0.0000000001
 12
1.0
 22
0.0
 32
0.0
 13
1.0
 23
0.0
 33
0.0
 40
0.0
 40
0.0
 40
0.0
 40
0.0
 40
1.0
 40
1.0
 40
1.0
 40
2.0
 40
2.0
 40
2.0
 40
3.0
 40
3.0
 40
3.0
 40
4.0
 40
4.0
 40
4.0
 40
4.0
 10
4.175000000000005
 20
-12.02500000000001
 30
0.0
 10
4.216421356235034
 20
-12.02500000000001
 30
0.0
 10
4.250000000000025
 20
-12.058578643765
 30
0.0
 10
4.250000000000025
 20
-12.10000000000001
 30
0.0
 10
4.250000000000025
 20
-12.14142135623501
 30
0.0
 10
4.216421356235034
 20
-12.175
 30
0.0
 10
4.175000000000005
 20
-12.175
 30
0.0
 10
4.133578643765
 20
-12.175
 30
0.0
 10
4.10000000000001
 20
-12.14142135623501
 30
0.0
 10
4.10000000000001
 20
-12.10000000000001
 30
0.0
 10
4.10000000000001
 20
-12.058578643765
 30
0.0
 10
4.133578643765
 20
-12.02500000000001
 30
0.0
 10
4.175000000000005
 20
-12.02500000000001
 30
0.0
  0
ENDBLK
  5
EC
330
E9
100
AcDbEntity
  8
0
100
AcDbBlockEnd
  0
BLOCK
  5
F3
330
F1
100
AcDbEntity
  8
0
100
AcDbBlockBegin
  2
block 24
 70
     0
 10
0.0
 20
0.0
 30
0.0
  3
block 24
  1

  0
SPLINE
  5
F5
330
F1
100
AcDbEntity
  8
Layer 1
 62
   179
420
  2301728
370
     9
100
AcDbSpline
210
0.0
220
0.0
230
1.0
 70
    11
 71
     3
 72
    29
 73
    25
 74
     0
 42
0.0000000001
 43
0.0000000001
 12
1.0
 22
0.0
 32
0.0
 13
1.0
 23
0.0
 33
0.0
 40
0.0
 40
0.0
 40
0.0
 40
0.0
 40
1.0
 40
1.0
 40
1.0
 40
2.0
 40
2.0
 40
2.0
 40
3.0
 40
3.0
 40
3.0
 40
4.0
 40
4.0
 40
4.0
 40
5.0
 40
5.0
 40
5.0
 40
6.0
 40
6.0
 40
6.0
 40
7.0
 40
7.0
 40
7.0
 40
8.0
 40
8.0
 40
8.0
 40
8.0
 10
8.67499999999998
 20
-13.29829818871508
 30
0.0
 10
8.67499999999998
 20
-13.29829818871508
 30
0.0
 10
8.67499999999998
 20
-13.30170181128488
 30
0.0
 10
8.67499999999998
 20
-13.30170181128488
 30
0.0
 10
8.67499999999998
 20
-13.43883311432286
 30
0.0
 10
8.563833114322835
 20
-13.55
 30
0.0
 10
8.426701811284904
 20
-13.55
 30
0.0
 10
8.426701811284904
 20
-13.55
 30
0.0
 10
-0.0767018112848948
 20
-13.55
 30
0.0
 10
-0.0767018112848948
 20
-13.55
 30
0.0
 10
-0.2138331143228621
 20
-13.55
 30
0.0
 10
-0.3249999999999949
 20
-13.43883311432286
 30
0.0
 10
-0.3249999999999949
 20
-13.30170181128488
 30
0.0
 10
-0.3249999999999949
 20
-13.30170181128488
 30
0.0
 10
-0.3249999999999949
 20
-13.29829818871508
 30
0.0
 10
-0.3249999999999949
 20
-13.29829818871508
 30
0.0
 10
-0.3249999999999949
 20
-13.16116688567715
 30
0.0
 10
-0.2138331143228621
 20
-13.05
 30
0.0
 10
-0.0767018112848948
 20
-13.05
 30
0.0
 10
-0.0767018112848948
 20
-13.05
 30
0.0
 10
8.426701811284904
 20
-13.05
 30
0.0
 10
8.426701811284904
 20
-13.05
 30
0.0
 10
8.563833114322835
 20
-13.05
 30
0.0
 10
8.67499999999998
 20
-13.16116688567715
 30
0.0
 10
8.67499999999998
 20
-13.29829818871508
 30
0.0
  0
SPLINE
  5
F6
330
F1
100
AcDbEntity
  8
Layer 1
 62
   179
420
  2301728
370
     9
100
AcDbSpline
210
0.0
220
0.0
230
1.0
 70
    11
 71
     3
 72
    17
 73
    13
 74
     0
 42
0.0000000001
 43
0.0000000001
 12
1.0
 22
0.0
 32
0.0
 13
1.0
 23
0.0
 33
0.0
 40
0.0
 40
0.0
 40
0.0
 40
0.0
 40
1.0
 40
1.0
 40
1.0
 40
2.0
 40
2.0
 40
2.0
 40
3.0
 40
3.0
 40
3.0
 40
4.0
 40
4.0
 40
4.0
 40
4.0
 10
-0.0749999999999949
 20
-13.22499999999998
 30
0.0
 10
-0.0335786437649782
 20
-13.22499999999998
 30
0.0
 10
0.0
 20
-13.25857864376498
 30
0.0
 10
0.0
 20
-13.3
 30
0.0
 10
0.0
 20
-13.34142135623498
 30
0.0
 10
-0.0335786437649782
 20
-13.37499999999997
 30
0.0
 10
-0.0749999999999949
 20
-13.37499999999997
 30
0.0
 10
-0.1164213562350116
 20
-13.37499999999997
 30
0.0
 10
-0.1499999999999899
 20
-13.34142135623498
 30
0.0
 10
-0.1499999999999899
 20
-13.3
 30
0.0
 10
-0.1499999999999899
 20
-13.25857864376498
 30
0.0
 10
-0.1164213562350116
 20
-13.22499999999998
 30
0.0
 10
-0.0749999999999949
 20
-13.22499999999998
 30
0.0
  0
SPLINE
  5
F7
330
F1
100
AcDbEntity
  8
Layer 1
 62
   179
420
  2301728
370
     9
100
AcDbSpline
210
0.0
220
0.0
230
1.0
 70
    11
 71
     3
 72
    17
 73
    13
 74
     0
 42
0.0000000001
 43
0.0000000001
 12
1.0
 22
0.0
 32
0.0
 13
1.0
 23
0.0
 33
0.0
 40
0.0
 40
0.0
 40
0.0
 40
0.0
 40
1.0
 40
1.0
 40
1.0
 40
2.0
 40
2.0
 40
2.0
 40
3.0
 40
3.0
 40
3.0
 40
4.0
 40
4.0
 40
4.0
 40
4.0
 10
8.42499999999998
 20
-13.22499999999998
 30
0.0
 10
8.466421356235008
 20
-13.22499999999998
 30
0.0
 10
8.5
 20
-13.25857864376498
 30
0.0
 10
8.5
 20
-13.29999999999995
 30
0.0
 10
8.5
 20
-13.34142135623498
 30
0.0
 10
8.466421356235008
 20
-13.37499999999997
 30
0.0
 10
8.42499999999998
 20
-13.37499999999997
 30
0.0
 10
8.38357864376495
 20
-13.37499999999997
 30
0.0
 10
8.35000000000001
 20
-13.34142135623498
 30
0.0
 10
8.35000000000001
 20
-13.29999999999995
 30
0.0
 10
8.35000000000001
 20
-13.25857864376498
 30
0.0
 10
8.38357864376495
 20
-13.22499999999998
 30
0.0
 10
8.42499999999998
 20
-13.22499999999998
 30
0.0
  0
SPLINE
  5
F8
330
F1
100
AcDbEntity
  8
Layer 1
 62
   179
420
  2301728
370
     9
100
AcDbSpline
210
0.0
220
0.0
230
1.0
 70
    11
 71
     3
 72
    17
 73
    13
 74
     0
 42
0.0000000001
 43
0.0000000001
 12
1.0
 22
0.0
 32
0.0
 13
1.0
 23
0.0
 33
0.0
 40
0.0
 40
0.0
 40
0.0
 40
0.0
 40
1.0
 40
1.0
 40
1.0
 40
2.0
 40
2.0
 40
2.0
 40
3.0
 40
3.0
 40
3.0
 40
4.0
 40
4.0
 40
4.0
 40
4.0
 10
4.175000000000005
 20
-13.22499999999998
 30
0.0
 10
4.216421356235021
 20
-13.22499999999998
 30
0.0
 10
4.250000000000012
 20
-13.25857864376498
 30
0.0
 10
4.250000000000012
 20
-13.3
 30
0.0
 10
4.250000000000012
 20
-13.34142135623498
 30
0.0
 10
4.216421356235021
 20
-13.37499999999997
 30
0.0
 10
4.175000000000005
 20
-13.37499999999997
 30
0.0
 10
4.133578643765
 20
-13.37499999999997
 30
0.0
 10
4.10000000000001
 20
-13.34142135623498
 30
0.0
 10
4.10000000000001
 20
-13.3
 30
0.0
 10
4.10000000000001
 20
-13.25857864376498
 30
0.0
 10
4.133578643765
 20
-13.22499999999998
 30
0.0
 10
4.175000000000005
 20
-13.22499999999998
 30
0.0
  0
ENDBLK
  5
F4
330
F1
100
AcDbEntity
  8
0
100
AcDbBlockEnd
  0
BLOCK
  5
FB
330
F9
100
AcDbEntity
  8
0
100
AcDbBlockBegin
  2
block 25
 70
     0
 10
0.0
 20
0.0
 30
0.0
  3
block 25
  1

  0
SPLINE
  5
FD
330
F9
100
AcDbEntity
  8
Layer 1
 62
   179
420
  2301728
370
     9
100
AcDbSpline
210
0.0
220
0.0
230
1.0
 70
    11
 71
     3
 72
    29
 73
    25
 74
     0
 42
0.0000000001
 43
0.0000000001
 12
1.0
 22
0.0
 32
0.0
 13
1.0
 23
0.0
 33
0.0
 40
0.0
 40
0.0
 40
0.0
 40
0.0
 40
1.0
 40
1.0
 40
1.0
 40
2.0
 40
2.0
 40
2.0
 40
3.0
 40
3.0
 40
3.0
 40
4.0
 40
4.0
 40
4.0
 40
5.0
 40
5.0
 40
5.0
 40
6.0
 40
6.0
 40
6.0
 40
7.0
 40
7.0
 40
7.0
 40
8.0
 40
8.0
 40
8.0
 40
8.0
 10
8.67499999999998
 20
-12.69829818871507
 30
0.0
 10
8.67499999999998
 20
-12.69829818871507
 30
0.0
 10
8.67499999999998
 20
-12.70170181128487
 30
0.0
 10
8.67499999999998
 20
-12.70170181128487
 30
0.0
 10
8.67499999999998
 20
-12.83883311432285
 30
0.0
 10
8.563833114322835
 20
-12.94999999999999
 30
0.0
 10
8.426701811284904
 20
-12.94999999999999
 30
0.0
 10
8.426701811284904
 20
-12.94999999999999
 30
0.0
 10
-0.0767018112848948
 20
-12.94999999999999
 30
0.0
 10
-0.0767018112848948
 20
-12.94999999999999
 30
0.0
 10
-0.2138331143228621
 20
-12.94999999999999
 30
0.0
 10
-0.3249999999999949
 20
-12.83883311432285
 30
0.0
 10
-0.3249999999999949
 20
-12.70170181128487
 30
0.0
 10
-0.3249999999999949
 20
-12.70170181128487
 30
0.0
 10
-0.3249999999999949
 20
-12.69829818871507
 30
0.0
 10
-0.3249999999999949
 20
-12.69829818871507
 30
0.0
 10
-0.3249999999999949
 20
-12.56116688567714
 30
0.0
 10
-0.2138331143228621
 20
-12.44999999999999
 30
0.0
 10
-0.0767018112848948
 20
-12.44999999999999
 30
0.0
 10
-0.0767018112848948
 20
-12.44999999999999
 30
0.0
 10
8.426701811284904
 20
-12.44999999999999
 30
0.0
 10
8.426701811284904
 20
-12.44999999999999
 30
0.0
 10
8.563833114322835
 20
-12.44999999999999
 30
0.0
 10
8.67499999999998
 20
-12.56116688567714
 30
0.0
 10
8.67499999999998
 20
-12.69829818871507
 30
0.0
  0
SPLINE
  5
FE
330
F9
100
AcDbEntity
  8
Layer 1
 62
   179
420
  2301728
370
     9
100
AcDbSpline
210
0.0
220
0.0
230
1.0
 70
    11
 71
     3
 72
    17
 73
    13
 74
     0
 42
0.0000000001
 43
0.0000000001
 12
1.0
 22
0.0
 32
0.0
 13
1.0
 23
0.0
 33
0.0
 40
0.0
 40
0.0
 40
0.0
 40
0.0
 40
1.0
 40
1.0
 40
1.0
 40
2.0
 40
2.0
 40
2.0
 40
3.0
 40
3.0
 40
3.0
 40
4.0
 40
4.0
 40
4.0
 40
4.0
 10
-0.0749999999999949
 20
-12.625
 30
0.0
 10
-0.0335786437649782
 20
-12.625
 30
0.0
 10
0.0
 20
-12.65857864376499
 30
0.0
 10
0.0
 20
-12.69999999999999
 30
0.0
 10
0.0
 20
-12.741421356235
 30
0.0
 10
-0.0335786437649782
 20
-12.77499999999999
 30
0.0
 10
-0.0749999999999949
 20
-12.77499999999999
 30
0.0
 10
-0.1164213562350116
 20
-12.77499999999999
 30
0.0
 10
-0.1499999999999899
 20
-12.741421356235
 30
0.0
 10
-0.1499999999999899
 20
-12.69999999999999
 30
0.0
 10
-0.1499999999999899
 20
-12.65857864376499
 30
0.0
 10
-0.1164213562350116
 20
-12.625
 30
0.0
 10
-0.0749999999999949
 20
-12.625
 30
0.0
  0
SPLINE
  5
FF
330
F9
100
AcDbEntity
  8
Layer 1
 62
   179
420
  2301728
370
     9
100
AcDbSpline
210
0.0
220
0.0
230
1.0
 70
    11
 71
     3
 72
    17
 73
    13
 74
     0
 42
0.0000000001
 43
0.0000000001
 12
1.0
 22
0.0
 32
0.0
 13
1.0
 23
0.0
 33
0.0
 40
0.0
 40
0.0
 40
0.0
 40
0.0
 40
1.0
 40
1.0
 40
1.0
 40
2.0
 40
2.0
 40
2.0
 40
3.0
 40
3.0
 40
3.0
 40
4.0
 40
4.0
 40
4.0
 40
4.0
 10
8.42499999999998
 20
-12.62499999999997
 30
0.0
 10
8.466421356235008
 20
-12.62499999999997
 30
0.0
 10
8.5
 20
-12.65857864376497
 30
0.0
 10
8.5
 20
-12.69999999999997
 30
0.0
 10
8.5
 20
-12.74142135623497
 30
0.0
 10
8.466421356235008
 20
-12.77499999999996
 30
0.0
 10
8.42499999999998
 20
-12.77499999999996
 30
0.0
 10
8.38357864376495
 20
-12.77499999999996
 30
0.0
 10
8.35000000000001
 20
-12.74142135623497
 30
0.0
 10
8.35000000000001
 20
-12.69999999999997
 30
0.0
 10
8.35000000000001
 20
-12.65857864376497
 30
0.0
 10
8.38357864376495
 20
-12.62499999999997
 30
0.0
 10
8.42499999999998
 20
-12.62499999999997
 30
0.0
  0
SPLINE
  5
100
330
F9
100
AcDbEntity
  8
Layer 1
 62
   179
420
  2301728
370
     9
100
AcDbSpline
210
0.0
220
0.0
230
1.0
 70
    11
 71
     3
 72
    17
 73
    13
 74
     0
 42
0.0000000001
 43
0.0000000001
 12
1.0
 22
0.0
 32
0.0
 13
1.0
 23
0.0
 33
0.0
 40
0.0
 40
0.0
 40
0.0
 40
0.0
 40
1.0
 40
1.0
 40
1.0
 40
2.0
 40
2.0
 40
2.0
 40
3.0
 40
3.0
 40
3.0
 40
4.0
 40
4.0
 40
4.0
 40
4.0
 10
4.175000000000005
 20
-12.625
 30
0.0
 10
4.216421356235021
 20
-12.625
 30
0.0
 10
4.250000000000012
 20
-12.65857864376499
 30
0.0
 10
4.250000000000012
 20
-12.69999999999999
 30
0.0
 10
4.250000000000012
 20
-12.741421356235
 30
0.0
 10
4.216421356235021
 20
-12.77499999999999
 30
0.0
 10
4.175000000000005
 20
-12.77499999999999
 30
0.0
 10
4.133578643765
 20
-12.77499999999999
 30
0.0
 10
4.10000000000001
 20
-12.741421356235
 30
0.0
 10
4.10000000000001
 20
-12.69999999999999
 30
0.0
 10
4.10000000000001
 20
-12.65857864376499
 30
0.0
 10
4.133578643765
 20
-12.625
 30
0.0
 10
4.175000000000005
 20
-12.625
 30
0.0
  0
ENDBLK
  5
FC
330
F9
100
AcDbEntity
  8
0
100
AcDbBlockEnd
  0
BLOCK
  5
103
330
101
100
AcDbEntity
  8
0
100
AcDbBlockBegin
  2
block 26
 70
     0
 10
0.0
 20
0.0
 30
0.0
  3
block 26
  1

  0
SPLINE
  5
105
330
101
100
AcDbEntity
  8
Layer 1
 62
   179
420
  2301728
370
     9
100
AcDbSpline
210
0.0
220
0.0
230
1.0
 70
    11
 71
     3
 72
    29
 73
    25
 74
     0
 42
0.0000000001
 43
0.0000000001
 12
1.0
 22
0.0
 32
0.0
 13
1.0
 23
0.0
 33
0.0
 40
0.0
 40
0.0
 40
0.0
 40
0.0
 40
1.0
 40
1.0
 40
1.0
 40
2.0
 40
2.0
 40
2.0
 40
3.0
 40
3.0
 40
3.0
 40
4.0
 40
4.0
 40
4.0
 40
5.0
 40
5.0
 40
5.0
 40
6.0
 40
6.0
 40
6.0
 40
7.0
 40
7.0
 40
7.0
 40
8.0
 40
8.0
 40
8.0
 40
8.0
 10
8.67499999999998
 20
-13.89829818871506
 30
0.0
 10
8.67499999999998
 20
-13.89829818871506
 30
0.0
 10
8.67499999999998
 20
-13.90170181128486
 30
0.0
 10
8.67499999999998
 20
-13.90170181128486
 30
0.0
 10
8.67499999999998
 20
-14.03883311432284
 30
0.0
 10
8.563833114322835
 20
-14.14999999999999
 30
0.0
 10
8.426701811284904
 20
-14.14999999999999
 30
0.0
 10
8.426701811284904
 20
-14.14999999999999
 30
0.0
 10
-0.0767018112848948
 20
-14.14999999999999
 30
0.0
 10
-0.0767018112848948
 20
-14.14999999999999
 30
0.0
 10
-0.2138331143228621
 20
-14.14999999999999
 30
0.0
 10
-0.3249999999999949
 20
-14.03883311432284
 30
0.0
 10
-0.3249999999999949
 20
-13.90170181128486
 30
0.0
 10
-0.3249999999999949
 20
-13.90170181128486
 30
0.0
 10
-0.3249999999999949
 20
-13.89829818871506
 30
0.0
 10
-0.3249999999999949
 20
-13.89829818871506
 30
0.0
 10
-0.3249999999999949
 20
-13.76116688567713
 30
0.0
 10
-0.2138331143228621
 20
-13.64999999999999
 30
0.0
 10
-0.0767018112848948
 20
-13.64999999999999
 30
0.0
 10
-0.0767018112848948
 20
-13.64999999999999
 30
0.0
 10
8.426701811284904
 20
-13.64999999999999
 30
0.0
 10
8.426701811284904
 20
-13.64999999999999
 30
0.0
 10
8.563833114322835
 20
-13.64999999999999
 30
0.0
 10
8.67499999999998
 20
-13.76116688567713
 30
0.0
 10
8.67499999999998
 20
-13.89829818871506
 30
0.0
  0
SPLINE
  5
106
330
101
100
AcDbEntity
  8
Layer 1
 62
   179
420
  2301728
370
     9
100
AcDbSpline
210
0.0
220
0.0
230
1.0
 70
    11
 71
     3
 72
    17
 73
    13
 74
     0
 42
0.0000000001
 43
0.0000000001
 12
1.0
 22
0.0
 32
0.0
 13
1.0
 23
0.0
 33
0.0
 40
0.0
 40
0.0
 40
0.0
 40
0.0
 40
1.0
 40
1.0
 40
1.0
 40
2.0
 40
2.0
 40
2.0
 40
3.0
 40
3.0
 40
3.0
 40
4.0
 40
4.0
 40
4.0
 40
4.0
 10
-0.0749999999999949
 20
-13.82499999999999
 30
0.0
 10
-0.0335786437649782
 20
-13.82499999999999
 30
0.0
 10
0.0
 20
-13.85857864376499
 30
0.0
 10
0.0
 20
-13.89999999999999
 30
0.0
 10
0.0
 20
-13.94142135623499
 30
0.0
 10
-0.0335786437649782
 20
-13.97499999999998
 30
0.0
 10
-0.0749999999999949
 20
-13.97499999999998
 30
0.0
 10
-0.1164213562350116
 20
-13.97499999999998
 30
0.0
 10
-0.1499999999999899
 20
-13.94142135623499
 30
0.0
 10
-0.1499999999999899
 20
-13.89999999999999
 30
0.0
 10
-0.1499999999999899
 20
-13.85857864376499
 30
0.0
 10
-0.1164213562350116
 20
-13.82499999999999
 30
0.0
 10
-0.0749999999999949
 20
-13.82499999999999
 30
0.0
  0
SPLINE
  5
107
330
101
100
AcDbEntity
  8
Layer 1
 62
   179
420
  2301728
370
     9
100
AcDbSpline
210
0.0
220
0.0
230
1.0
 70
    11
 71
     3
 72
    17
 73
    13
 74
     0
 42
0.0000000001
 43
0.0000000001
 12
1.0
 22
0.0
 32
0.0
 13
1.0
 23
0.0
 33
0.0
 40
0.0
 40
0.0
 40
0.0
 40
0.0
 40
1.0
 40
1.0
 40
1.0
 40
2.0
 40
2.0
 40
2.0
 40
3.0
 40
3.0
 40
3.0
 40
4.0
 40
4.0
 40
4.0
 40
4.0
 10
8.42499999999998
 20
-13.82499999999997
 30
0.0
 10
8.466421356235008
 20
-13.82499999999997
 30
0.0
 10
8.5
 20
-13.85857864376496
 30
0.0
 10
8.5
 20
-13.89999999999996
 30
0.0
 10
8.5
 20
-13.94142135623497
 30
0.0
 10
8.466421356235008
 20
-13.97499999999996
 30
0.0
 10
8.42499999999998
 20
-13.97499999999996
 30
0.0
 10
8.38357864376495
 20
-13.97499999999996
 30
0.0
 10
8.35000000000001
 20
-13.94142135623497
 30
0.0
 10
8.35000000000001
 20
-13.89999999999996
 30
0.0
 10
8.35000000000001
 20
-13.85857864376496
 30
0.0
 10
8.38357864376495
 20
-13.82499999999997
 30
0.0
 10
8.42499999999998
 20
-13.82499999999997
 30
0.0
  0
SPLINE
  5
108
330
101
100
AcDbEntity
  8
Layer 1
 62
   179
420
  2301728
370
     9
100
AcDbSpline
210
0.0
220
0.0
230
1.0
 70
    11
 71
     3
 72
    17
 73
    13
 74
     0
 42
0.0000000001
 43
0.0000000001
 12
1.0
 22
0.0
 32
0.0
 13
1.0
 23
0.0
 33
0.0
 40
0.0
 40
0.0
 40
0.0
 40
0.0
 40
1.0
 40
1.0
 40
1.0
 40
2.0
 40
2.0
 40
2.0
 40
3.0
 40
3.0
 40
3.0
 40
4.0
 40
4.0
 40
4.0
 40
4.0
 10
4.175000000000005
 20
-13.82499999999999
 30
0.0
 10
4.216421356235021
 20
-13.82499999999999
 30
0.0
 10
4.250000000000012
 20
-13.85857864376499
 30
0.0
 10
4.250000000000012
 20
-13.89999999999999
 30
0.0
 10
4.250000000000012
 20
-13.94142135623499
 30
0.0
 10
4.216421356235021
 20
-13.97499999999998
 30
0.0
 10
4.175000000000005
 20
-13.97499999999998
 30
0.0
 10
4.133578643765
 20
-13.97499999999998
 30
0.0
 10
4.10000000000001
 20
-13.94142135623499
 30
0.0
 10
4.10000000000001
 20
-13.89999999999999
 30
0.0
 10
4.10000000000001
 20
-13.85857864376499
 30
0.0
 10
4.133578643765
 20
-13.82499999999999
 30
0.0
 10
4.175000000000005
 20
-13.82499999999999
 30
0.0
  0
ENDBLK
  5
104
330
101
100
AcDbEntity
  8
0
100
AcDbBlockEnd
  0
ENDSEC
  0
SECTION
  2
ENTITIES
  0
INSERT
  5
42
330
1F
100
AcDbEntity
  8
Layer 1
100
AcDbBlockReference
  2
block 2
 10
0.0
 20
0.0
 30
0.0
  0
INSERT
  5
4A
330
1F
100
AcDbEntity
  8
Layer 1
100
AcDbBlockReference
  2
block 3
 10
0.0
 20
0.0
 30
0.0
  0
INSERT
  5
52
330
1F
100
AcDbEntity
  8
Layer 1
100
AcDbBlockReference
  2
block 4
 10
0.0
 20
0.0
 30
0.0
  0
INSERT
  5
5A
330
1F
100
AcDbEntity
  8
Layer 1
100
AcDbBlockReference
  2
block 5
 10
0.0
 20
0.0
 30
0.0
  0
INSERT
  5
62
330
1F
100
AcDbEntity
  8
Layer 1
100
AcDbBlockReference
  2
block 6
 10
0.0
 20
0.0
 30
0.0
  0
INSERT
  5
6A
330
1F
100
AcDbEntity
  8
Layer 1
100
AcDbBlockReference
  2
block 7
 10
0.0
 20
0.0
 30
0.0
  0
INSERT
  5
72
330
1F
100
AcDbEntity
  8
Layer 1
100
AcDbBlockReference
  2
block 8
 10
0.0
 20
0.0
 30
0.0
  0
INSERT
  5
7A
330
1F
100
AcDbEntity
  8
Layer 1
100
AcDbBlockReference
  2
block 9
 10
0.0
 20
0.0
 30
0.0
  0
INSERT
  5
82
330
1F
100
AcDbEntity
  8
Layer 1
100
AcDbBlockReference
  2
block 10
 10
0.0
 20
0.0
 30
0.0
  0
INSERT
  5
8A
330
1F
100
AcDbEntity
  8
Layer 1
100
AcDbBlockReference
  2
block 11
 10
0.0
 20
0.0
 30
0.0
  0
INSERT
  5
92
330
1F
100
AcDbEntity
  8
Layer 1
100
AcDbBlockReference
  2
block 12
 10
0.0
 20
0.0
 30
0.0
  0
INSERT
  5
9A
330
1F
100
AcDbEntity
  8
Layer 1
100
AcDbBlockReference
  2
block 13
 10
0.0
 20
0.0
 30
0.0
  0
INSERT
  5
A2
330
1F
100
AcDbEntity
  8
Layer 1
100
AcDbBlockReference
  2
block 14
 10
0.0
 20
0.0
 30
0.0
  0
INSERT
  5
AA
330
1F
100
AcDbEntity
  8
Layer 1
100
AcDbBlockReference
  2
block 15
 10
0.0
 20
0.0
 30
0.0
  0
INSERT
  5
B2
330
1F
100
AcDbEntity
  8
Layer 1
100
AcDbBlockReference
  2
block 16
 10
0.0
 20
0.0
 30
0.0
  0
INSERT
  5
BA
330
1F
100
AcDbEntity
  8
Layer 1
100
AcDbBlockReference
  2
block 17
 10
0.0
 20
0.0
 30
0.0
  0
INSERT
  5
C2
330
1F
100
AcDbEntity
  8
Layer 1
100
AcDbBlockReference
  2
block 18
 10
0.0
 20
0.0
 30
0.0
  0
INSERT
  5
CA
330
1F
100
AcDbEntity
  8
Layer 1
100
AcDbBlockReference
  2
block 19
 10
0.0
 20
0.0
 30
0.0
  0
INSERT
  5
D2
330
1F
100
AcDbEntity
  8
Layer 1
100
AcDbBlockReference
  2
block 20
 10
0.0
 20
0.0
 30
0.0
  0
INSERT
  5
DA
330
1F
100
AcDbEntity
  8
Layer 1
100
AcDbBlockReference
  2
block 21
 10
0.0
 20
0.0
 30
0.0
  0
INSERT
  5
E2
330
1F
100
AcDbEntity
  8
Layer 1
100
AcDbBlockReference
  2
block 22
 10
0.0
 20
0.0
 30
0.0
  0
INSERT
  5
EA
330
1F
100
AcDbEntity
  8
Layer 1
100
AcDbBlockReference
  2
block 23
 10
0.0
 20
0.0
 30
0.0
  0
INSERT
  5
F2
330
1F
100
AcDbEntity
  8
Layer 1
100
AcDbBlockReference
  2
block 24
 10
0.0
 20
0.0
 30
0.0
  0
INSERT
  5
FA
330
1F
100
AcDbEntity
  8
Layer 1
100
AcDbBlockReference
  2
block 25
 10
0.0
 20
0.0
 30
0.0
  0
INSERT
  5
102
330
1F
100
AcDbEntity
  8
Layer 1
100
AcDbBlockReference
  2
block 26
 10
0.0
 20
0.0
 30
0.0
  0
ENDSEC
  0
SECTION
  2
OBJECTS
  0
DICTIONARY
  5
C
330
0
100
AcDbDictionary
281
     1
  3
ACAD_GROUP
350
D
  3
ACAD_LAYOUT
350
1A
  3
ACAD_MATERIAL
350
3B
  3
ACAD_MLEADERSTYLE
350
10A
  3
ACAD_MLINESTYLE
350
17
  3
ACAD_PLOTSETTINGS
350
19
  3
ACAD_PLOTSTYLENAME
350
E
  3
ACAD_TABLESTYLE
350
109
  3
ACAD_VISUALSTYLE
350
2A
  0
SUN
  5
3F
330
29
100
AcDbSun
 90
        1
290
     0
 63
     7
421
 16777215
 40
1.0
291
     1
 91
  2455826
 92
 54000000
292
     0
 70
     2
 71
   256
280
     1
  0
DICTIONARY
  5
D
102
{ACAD_REACTORS
330
C
102
}
330
C
100
AcDbDictionary
281
     1
  0
DICTIONARY
  5
1A
102
{ACAD_REACTORS
330
C
102
}
330
C
100
AcDbDictionary
281
     1
  3
Layout1
350
1E
  3
Layout2
350
26
  3
Model
350
22
  0
DICTIONARY
  5
3B
102
{ACAD_REACTORS
330
C
102
}
330
C
100
AcDbDictionary
281
     1
  3
ByBlock
350
3D
  3
ByLayer
350
3C
  3
Global
350
3E
  0
DICTIONARY
  5
10A
102
{ACAD_REACTORS
330
C
102
}
330
C
100
AcDbDictionary
281
     1
  0
DICTIONARY
  5
17
102
{ACAD_REACTORS
330
C
102
}
330
C
100
AcDbDictionary
281
     1
  3
Standard
350
18
  0
DICTIONARY
  5
19
102
{ACAD_REACTORS
330
C
102
}
330
C
100
AcDbDictionary
281
     1
  0
ACDBDICTIONARYWDFLT
  5
E
102
{ACAD_REACTORS
330
C
102
}
330
C
100
AcDbDictionary
281
     1
  3
Normal
350
F
100
AcDbDictionaryWithDefault
340
F
  0
DICTIONARY
  5
109
102
{ACAD_REACTORS
330
C
102
}
330
C
100
AcDbDictionary
281
     1
  0
DICTIONARY
  5
2A
102
{ACAD_REACTORS
330
C
102
}
330
C
100
AcDbDictionary
281
     1
  3
2dWireframe
350
2F
  3
3D Hidden
350
31
  3
3dWireframe
350
30
  3
Basic
350
32
  3
Brighten
350
36
  3
ColorChange
350
3A
  3
Conceptual
350
34
  3
Dim
350
35
  3
Facepattern
350
39
  3
Flat
350
2B
  3
FlatWithEdges
350
2C
  3
Gouraud
350
2D
  3
GouraudWithEdges
350
2E
  3
Linepattern
350
38
  3
Realistic
350
33
  3
Thicken
350
37
  0
LAYOUT
  5
1E
102
{ACAD_REACTORS
330
1A
102
}
330
1A
100
AcDbPlotSettings
  1

  2
none_device
  4

  6

 40
0.0
 41
0.0
 42
0.0
 43
0.0
 44
0.0
 45
0.0
 46
0.0
 47
0.0
 48
0.0
 49
0.0
140
0.0
141
0.0
142
1.0
143
1.0
 70
   688
 72
     0
 73
     0
 74
     5
  7

 75
    16
 76
     0
 77
     2
 78
   300
147
1.0
148
0.0
149
0.0
100
AcDbLayout
  1
Layout1
 70
     1
 71
     1
 10
0.0
 20
0.0
 11
12.0
 21
9.0
 12
0.0
 22
0.0
 32
0.0
 14
1.000000000000000E+20
 24
1.000000000000000E+20
 34
1.000000000000000E+20
 15
-1.000000000000000E+20
 25
-1.000000000000000E+20
 35
-1.000000000000000E+20
146
0.0
 13
0.0
 23
0.0
 33
0.0
 16
1.0
 26
0.0
 36
0.0
 17
0.0
 27
1.0
 37
0.0
 76
     0
330
1B
  0
LAYOUT
  5
26
102
{ACAD_REACTORS
330
1A
102
}
330
1A
100
AcDbPlotSettings
  1

  2
none_device
  4

  6

 40
0.0
 41
0.0
 42
0.0
 43
0.0
 44
0.0
 45
0.0
 46
0.0
 47
0.0
 48
0.0
 49
0.0
140
0.0
141
0.0
142
1.0
143
1.0
 70
   688
 72
     0
 73
     0
 74
     5
  7

 75
    16
 76
     0
 77
     2
 78
   300
147
1.0
148
0.0
149
0.0
100
AcDbLayout
  1
Layout2
 70
     1
 71
     2
 10
0.0
 20
0.0
 11
0.0
 21
0.0
 12
0.0
 22
0.0
 32
0.0
 14
0.0
 24
0.0
 34
0.0
 15
0.0
 25
0.0
 35
0.0
146
0.0
 13
0.0
 23
0.0
 33
0.0
 16
1.0
 26
0.0
 36
0.0
 17
0.0
 27
1.0
 37
0.0
 76
     0
330
23
  0
LAYOUT
  5
22
102
{ACAD_REACTORS
330
1A
102
}
330
1A
100
AcDbPlotSettings
  1

  2
none_device
  4

  6

 40
0.0
 41
0.0
 42
0.0
 43
0.0
 44
0.0
 45
0.0
 46
0.0
 47
0.0
 48
0.0
 49
0.0
140
0.0
141
0.0
142
1.0
143
1.0
 70
  1712
 72
     0
 73
     0
 74
     0
  7

 75
     0
 76
     0
 77
     2
 78
   300
147
1.0
148
0.0
149
0.0
100
AcDbLayout
  1
Model
 70
     1
 71
     0
 10
0.0
 20
0.0
 11
12.0
 21
9.0
 12
0.0
 22
0.0
 32
0.0
 14
1.000000000000000E+20
 24
1.000000000000000E+20
 34
1.000000000000000E+20
 15
-1.000000000000000E+20
 25
-1.000000000000000E+20
 35
-1.000000000000000E+20
146
0.0
 13
0.0
 23
0.0
 33
0.0
 16
1.0
 26
0.0
 36
0.0
 17
0.0
 27
1.0
 37
0.0
 76
     0
330
1F
331
29
  0
MATERIAL
  5
3D
102
{ACAD_REACTORS
330
3B
102
}
330
3B
100
AcDbMaterial
  1
ByBlock
 72
     1
 94
      127
  0
MATERIAL
  5
3C
102
{ACAD_REACTORS
330
3B
102
}
330
3B
100
AcDbMaterial
  1
ByLayer
 72
     1
 94
      127
  0
MATERIAL
  5
3E
102
{ACAD_REACTORS
330
3B
102
}
330
3B
100
AcDbMaterial
  1
Global
 72
     1
 94
      127
  0
MLINESTYLE
  5
18
102
{ACAD_REACTORS
330
17
102
}
330
17
100
AcDbMlineStyle
  2
Standard
 70
     0
  3

 62
   256
 51
90.0
 52
90.0
 71
     2
 49
0.5
 62
   256
  6
BYLAYER
 49
-0.5
 62
   256
  6
BYLAYER
  0
ACDBPLACEHOLDER
  5
F
102
{ACAD_REACTORS
330
E
102
}
330
E
  0
VISUALSTYLE
  5
2F
102
{ACAD_REACTORS
330
2A
102
}
330
2A
100
AcDbVisualStyle
  2
2dWireframe
 70
     4
177
     2
291
     0
 71
     0
176
     1
 72
     2
176
     1
 73
     0
176
     1
 90
        0
176
     1
 40
-0.6
176
     1
 41
-30.0
176
     1
 62
     5
 63
     7
421
 16777215
176
     1
 74
     1
176
     1
 91
        4
176
     1
 64
     7
176
     1
 65
   257
176
     1
 75
     1
176
     1
175
     1
176
     1
 42
1.0
176
     1
 92
        0
176
     1
 66
   257
176
     1
 43
1.0
176
     1
 76
     1
176
     1
 77
     6
176
     1
 78
     2
176
     1
 67
     7
176
     1
 79
     5
176
     1
170
     0
176
     1
171
     0
176
     1
290
     0
176
     1
 93
        1
176
     1
 44
0.0
176
     1
173
     0
176
     1
  0
VISUALSTYLE
  5
31
102
{ACAD_REACTORS
330
2A
102
}
330
2A
100
AcDbVisualStyle
  2
3D Hidden
 70
     6
177
     2
291
     0
 71
     1
176
     1
 72
     2
176
     1
 73
     2
176
     1
 90
        0
176
     1
 40
-0.6
176
     1
 41
-30.0
176
     1
 62
     5
 63
     7
421
 16777215
176
     1
 74
     2
176
     1
 91
        2
176
     1
 64
     7
176
     1
 65
   257
176
     1
 75
     2
176
     1
175
     1
176
     1
 42
40.0
176
     1
 92
        0
176
     1
 66
   257
176
     1
 43
1.0
176
     1
 76
     1
176
     1
 77
     6
176
     1
 78
     2
176
     1
 67
     7
176
     1
 79
     3
176
     1
170
     0
176
     1
171
     0
176
     1
290
     0
176
     1
 93
        1
176
     1
 44
0.0
176
     1
173
     0
176
     1
  0
VISUALSTYLE
  5
30
102
{ACAD_REACTORS
330
2A
102
}
330
2A
100
AcDbVisualStyle
  2
3dWireframe
 70
     5
177
     2
291
     0
 71
     0
176
     1
 72
     2
176
     1
 73
     0
176
     1
 90
        0
176
     1
 40
-0.6
176
     1
 41
-30.0
176
     1
 62
     5
 63
     7
421
 16777215
176
     1
 74
     1
176
     1
 91
        4
176
     1
 64
     7
176
     1
 65
   257
176
     1
 75
     1
176
     1
175
     1
176
     1
 42
1.0
176
     1
 92
        0
176
     1
 66
   257
176
     1
 43
1.0
176
     1
 76
     1
176
     1
 77
     6
176
     1
 78
     2
176
     1
 67
     7
176
     1
 79
     5
176
     1
170
     0
176
     1
171
     0
176
     1
290
     0
176
     1
 93
        1
176
     1
 44
0.0
176
     1
173
     0
176
     1
  0
VISUALSTYLE
  5
32
102
{ACAD_REACTORS
330
2A
102
}
330
2A
100
AcDbVisualStyle
  2
Basic
 70
     7
177
     2
291
     1
 71
     1
176
     1
 72
     0
176
     1
 73
     1
176
     1
 90
        0
176
     1
 40
-0.6
176
     1
 41
-30.0
176
     1
 62
     5
 63
     7
421
 16777215
176
     1
 74
     0
176
     1
 91
        4
176
     1
 64
     7
176
     1
 65
   257
176
     1
 75
     1
176
     1
175
     1
176
     1
 42
1.0
176
     1
 92
        8
176
     1
 66
     7
176
     1
 43
1.0
176
     1
 76
     1
176
     1
 77
     6
176
     1
 78
     2
176
     1
 67
     7
176
     1
 79
     5
176
     1
170
     0
176
     1
171
     0
176
     1
290
     0
176
     1
 93
        1
176
     1
 44
0.0
176
     1
173
     0
176
     1
  0
VISUALSTYLE
  5
36
102
{ACAD_REACTORS
330
2A
102
}
330
2A
100
AcDbVisualStyle
  2
Brighten
 70
    12
177
     2
291
     1
 71
     2
176
     1
 72
     2
176
     1
 73
     0
176
     1
 90
        0
176
     1
 40
-0.6
176
     1
 41
-30.0
176
     1
 62
     5
 63
     7
421
 16777215
176
     1
 74
     1
176
     1
 91
        4
176
     1
 64
     7
176
     1
 65
   257
176
     1
 75
     1
176
     1
175
     1
176
     1
 42
1.0
176
     1
 92
        8
176
     1
 66
     7
176
     1
 43
1.0
176
     1
 76
     1
176
     1
 77
     6
176
     1
 78
     2
176
     1
 67
     7
176
     1
 79
     5
176
     1
170
     0
176
     1
171
     0
176
     1
290
     0
176
     1
 93
        1
176
     1
 44
50.0
176
     1
173
     0
176
     1
  0
VISUALSTYLE
  5
3A
102
{ACAD_REACTORS
330
2A
102
}
330
2A
100
AcDbVisualStyle
  2
ColorChange
 70
    16
177
     2
291
     1
 71
     2
176
     1
 72
     2
176
     1
 73
     3
176
     1
 90
        0
176
     1
 40
-0.6
176
     1
 41
-30.0
176
     1
 62
     5
 63
     8
421
  8421504
176
     1
 74
     1
176
     1
 91
        4
176
     1
 64
     7
176
     1
 65
   257
176
     1
 75
     1
176
     1
175
     1
176
     1
 42
1.0
176
     1
 92
        8
176
     1
 66
     8
424
  8421504
176
     1
 43
1.0
176
     1
 76
     1
176
     1
 77
     6
176
     1
 78
     2
176
     1
 67
     7
176
     1
 79
     5
176
     1
170
     0
176
     1
171
     0
176
     1
290
     0
176
     1
 93
        1
176
     1
 44
0.0
176
     1
173
     0
176
     1
  0
VISUALSTYLE
  5
34
102
{ACAD_REACTORS
330
2A
102
}
330
2A
100
AcDbVisualStyle
  2
Conceptual
 70
     9
177
     2
291
     0
 71
     3
176
     1
 72
     2
176
     1
 73
     0
176
     1
 90
        0
176
     1
 40
-0.6
176
     1
 41
-30.0
176
     1
 62
     5
 63
     7
421
 16777215
176
     1
 74
     2
176
     1
 91
        2
176
     1
 64
     7
176
     1
 65
   257
176
     1
 75
     1
176
     1
175
     1
176
     1
 42
40.0
176
     1
 92
        8
176
     1
 66
     7
176
     1
 43
1.0
176
     1
 76
     1
176
     1
 77
     6
176
     1
 78
     2
176
     1
 67
     7
176
     1
 79
     3
176
     1
170
     0
176
     1
171
     0
176
     1
290
     0
176
     1
 93
        1
176
     1
 44
0.0
176
     1
173
     0
176
     1
  0
VISUALSTYLE
  5
35
102
{ACAD_REACTORS
330
2A
102
}
330
2A
100
AcDbVisualStyle
  2
Dim
 70
    11
177
     2
291
     1
 71
     2
176
     1
 72
     2
176
     1
 73
     0
176
     1
 90
        0
176
     1
 40
-0.6
176
     1
 41
-30.0
176
     1
 62
     5
 63
     7
421
 16777215
176
     1
 74
     1
176
     1
 91
        4
176
     1
 64
     7
176
     1
 65
   257
176
     1
 75
     1
176
     1
175
     1
176
     1
 42
1.0
176
     1
 92
        8
176
     1
 66
     7
176
     1
 43
1.0
176
     1
 76
     1
176
     1
 77
     6
176
     1
 78
     2
176
     1
 67
     7
176
     1
 79
     5
176
     1
170
     0
176
     1
171
     0
176
     1
290
     0
176
     1
 93
        1
176
     1
 44
-50.0
176
     1
173
     0
176
     1
  0
VISUALSTYLE
  5
39
102
{ACAD_REACTORS
330
2A
102
}
330
2A
100
AcDbVisualStyle
  2
Facepattern
 70
    15
177
     2
291
     1
 71
     2
176
     1
 72
     2
176
     1
 73
     0
176
     1
 90
        0
176
     1
 40
-0.6
176
     1
 41
-30.0
176
     1
 62
     5
 63
     7
421
 16777215
176
     1
 74
     1
176
     1
 91
        4
176
     1
 64
     7
176
     1
 65
   257
176
     1
 75
     1
176
     1
175
     1
176
     1
 42
1.0
176
     1
 92
        8
176
     1
 66
     7
176
     1
 43
1.0
176
     1
 76
     1
176
     1
 77
     6
176
     1
 78
     2
176
     1
 67
     7
176
     1
 79
     5
176
     1
170
     0
176
     1
171
     0
176
     1
290
     0
176
     1
 93
        1
176
     1
 44
0.0
176
     1
173
     0
176
     1
  0
VISUALSTYLE
  5
2B
102
{ACAD_REACTORS
330
2A
102
}
330
2A
100
AcDbVisualStyle
  2
Flat
 70
     0
177
     2
291
     1
 71
     2
176
     1
 72
     1
176
     1
 73
     1
176
     1
 90
        2
176
     1
 40
-0.6
176
     1
 41
30.0
176
     1
 62
     5
 63
     7
421
 16777215
176
     1
 74
     0
176
     1
 91
        4
176
     1
 64
     7
176
     1
 65
   257
176
     1
 75
     1
176
     1
175
     1
176
     1
 42
1.0
176
     1
 92
        8
176
     1
 66
     7
176
     1
 43
1.0
176
     1
 76
     1
176
     1
 77
     6
176
     1
 78
     2
176
     1
 67
     7
176
     1
 79
     5
176
     1
170
     0
176
     1
171
     0
176
     1
290
     0
176
     1
 93
       13
176
     1
 44
0.0
176
     1
173
     0
176
     1
  0
VISUALSTYLE
  5
2C
102
{ACAD_REACTORS
330
2A
102
}
330
2A
100
AcDbVisualStyle
  2
FlatWithEdges
 70
     1
177
     2
291
     1
 71
     2
176
     1
 72
     1
176
     1
 73
     1
176
     1
 90
        2
176
     1
 40
-0.6
176
     1
 41
30.0
176
     1
 62
     5
 63
     7
421
 16777215
176
     1
 74
     1
176
     1
 91
        4
176
     1
 64
     7
176
     1
 65
   257
176
     1
 75
     1
176
     1
175
     1
176
     1
 42
1.0
176
     1
 92
        0
176
     1
 66
   257
176
     1
 43
1.0
176
     1
 76
     1
176
     1
 77
     6
176
     1
 78
     2
176
     1
 67
     7
176
     1
 79
     5
176
     1
170
     0
176
     1
171
     0
176
     1
290
     0
176
     1
 93
       13
176
     1
 44
0.0
176
     1
173
     0
176
     1
  0
VISUALSTYLE
  5
2D
102
{ACAD_REACTORS
330
2A
102
}
330
2A
100
AcDbVisualStyle
  2
Gouraud
 70
     2
177
     2
291
     1
 71
     2
176
     1
 72
     2
176
     1
 73
     1
176
     1
 90
        2
176
     1
 40
-0.6
176
     1
 41
30.0
176
     1
 62
     5
 63
     7
421
 16777215
176
     1
 74
     0
176
     1
 91
        4
176
     1
 64
     7
176
     1
 65
   257
176
     1
 75
     1
176
     1
175
     1
176
     1
 42
1.0
176
     1
 92
        0
176
     1
 66
     7
176
     1
 43
1.0
176
     1
 76
     1
176
     1
 77
     6
176
     1
 78
     2
176
     1
 67
     7
176
     1
 79
     5
176
     1
170
     0
176
     1
171
     0
176
     1
290
     0
176
     1
 93
       13
176
     1
 44
0.0
176
     1
173
     0
176
     1
  0
VISUALSTYLE
  5
2E
102
{ACAD_REACTORS
330
2A
102
}
330
2A
100
AcDbVisualStyle
  2
GouraudWithEdges
 70
     3
177
     2
291
     1
 71
     2
176
     1
 72
     2
176
     1
 73
     1
176
     1
 90
        2
176
     1
 40
-0.6
176
     1
 41
30.0
176
     1
 62
     5
 63
     7
421
 16777215
176
     1
 74
     1
176
     1
 91
        4
176
     1
 64
     7
176
     1
 65
   257
176
     1
 75
     1
176
     1
175
     1
176
     1
 42
1.0
176
     1
 92
        0
176
     1
 66
   257
176
     1
 43
1.0
176
     1
 76
     1
176
     1
 77
     6
176
     1
 78
     2
176
     1
 67
     7
176
     1
 79
     5
176
     1
170
     0
176
     1
171
     0
176
     1
290
     0
176
     1
 93
       13
176
     1
 44
0.0
176
     1
173
     0
176
     1
  0
VISUALSTYLE
  5
38
102
{ACAD_REACTORS
330
2A
102
}
330
2A
100
AcDbVisualStyle
  2
Linepattern
 70
    14
177
     2
291
     1
 71
     2
176
     1
 72
     2
176
     1
 73
     0
176
     1
 90
        0
176
     1
 40
-0.6
176
     1
 41
-30.0
176
     1
 62
     5
 63
     7
421
 16777215
176
     1
 74
     1
176
     1
 91
        4
176
     1
 64
     7
176
     1
 65
   257
176
     1
 75
     7
176
     1
175
     7
176
     1
 42
1.0
176
     1
 92
        8
176
     1
 66
     7
176
     1
 43
1.0
176
     1
 76
     1
176
     1
 77
     6
176
     1
 78
     2
176
     1
 67
     7
176
     1
 79
     5
176
     1
170
     0
176
     1
171
     0
176
     1
290
     0
176
     1
 93
        1
176
     1
 44
0.0
176
     1
173
     0
176
     1
  0
VISUALSTYLE
  5
33
102
{ACAD_REACTORS
330
2A
102
}
330
2A
100
AcDbVisualStyle
  2
Realistic
 70
     8
177
     2
291
     0
 71
     2
176
     1
 72
     2
176
     1
 73
     0
176
     1
 90
        0
176
     1
 40
-0.6
176
     1
 41
-30.0
176
     1
 62
     5
 63
     7
421
 16777215
176
     1
 74
     1
176
     1
 91
        0
176
     1
 64
     7
176
     1
 65
   257
176
     1
 75
     1
176
     1
175
     1
176
     1
 42
1.0
176
     1
 92
        8
176
     1
 66
     8
424
  7895160
176
     1
 43
1.0
176
     1
 76
     1
176
     1
 77
     6
176
     1
 78
     2
176
     1
 67
     7
176
     1
 79
     5
176
     1
170
     0
176
     1
171
     0
176
     1
290
     0
176
     1
 93
       13
176
     1
 44
0.0
176
     1
173
     0
176
     1
  0
VISUALSTYLE
  5
37
102
{ACAD_REACTORS
330
2A
102
}
330
2A
100
AcDbVisualStyle
  2
Thicken
 70
    13
177
     2
291
     1
 71
     2
176
     1
 72
     2
176
     1
 73
     0
176
     1
 90
        0
176
     1
 40
-0.6
176
     1
 41
-30.0
176
     1
 62
     5
 63
     7
421
 16777215
176
     1
 74
     1
176
     1
 91
        4
176
     1
 64
     7
176
     1
 65
   257
176
     1
 75
     1
176
     1
175
     1
176
     1
 42
1.0
176
     1
 92
       12
176
     1
 66
     7
176
     1
 43
1.0
176
     1
 76
     1
176
     1
 77
     6
176
     1
 78
     2
176
     1
 67
     7
176
     1
 79
     5
176
     1
170
     0
176
     1
171
     0
176
     1
290
     0
176
     1
 93
        1
176
     1
 44
0.0
176
     1
173
     0
176
     1
  0
ENDSEC
  0
EOF
